<svg width="40" height="60" viewBox="0 0 40 60" fill="none" xmlns="http://www.w3.org/2000/svg">
<path d="M34.5794 48.8017C34.4533 48.8017 34.3273 48.7603 34.2432 48.6777C34.1592 48.5951 34.1172 48.4711 34.1172 48.3471L34.2432 11.1984C34.2432 10.9917 34.3693 10.8265 34.5373 10.7851L36.5541 9.95869C36.8062 9.83472 37.1003 9.7934 37.3944 9.7934C38.6129 9.7934 39.5792 10.7438 39.5792 11.9422V46.6942C39.5792 47.8926 38.6129 48.843 37.3944 48.843H34.5794V48.8017Z" fill="white"/>
<path d="M37.3522 10.248C38.2345 10.248 39.0748 10.9504 39.0748 11.9422V46.6942C39.0748 47.6033 38.3186 48.3885 37.3522 48.3885H34.5792L34.7052 11.2397L36.722 10.4132C36.932 10.2893 37.1421 10.248 37.3522 10.248ZM37.3522 9.29755C37.0161 9.29755 36.6799 9.38019 36.3438 9.50416L34.3271 10.3306C33.9909 10.4546 33.7388 10.8265 33.7388 11.1984L33.6128 48.3471C33.6128 48.5951 33.6968 48.843 33.9069 49.0083C34.075 49.1736 34.3271 49.2975 34.5792 49.2975H37.3522C38.8227 49.2975 39.9992 48.1405 39.9992 46.6942V11.9422C40.0412 10.4959 38.8227 9.29755 37.3522 9.29755Z" fill="white"/>
<path d="M18.3611 59.5454C17.9409 59.5454 17.5208 59.4215 17.1846 59.2149L1.93293 49.5041C1.0506 48.9256 0.504395 47.9752 0.504395 46.9008V15.9504C0.504395 15.0413 0.924552 14.1735 1.63882 13.595L16.9746 0.950397C17.3947 0.619818 17.8569 0.454529 18.3611 0.454529C19.5795 0.454529 20.5459 1.40494 20.5459 2.60329V57.3967C20.5459 58.595 19.5795 59.5454 18.3611 59.5454Z" fill="white"/>
<path d="M18.3609 0.950413C19.2432 0.950413 20.0835 1.61157 20.0835 2.64463V57.438C20.0835 58.4298 19.2432 59.1322 18.3609 59.1322C18.0668 59.1322 17.7306 59.0496 17.4365 58.843L2.18482 49.1322C1.42853 48.6364 0.966361 47.8099 0.966361 46.9422V15.9504C0.966361 15.1653 1.30249 14.4215 1.93272 13.9256L3.90746 12.314L8.8233 8.26446L17.2685 1.32231C17.6046 1.07438 17.9827 0.950413 18.3609 0.950413ZM18.3609 0C17.7306 0 17.1424 0.206612 16.6802 0.619835L8.19306 7.56198L3.27723 11.6116L1.30249 13.2231C0.462173 13.8843 0 14.9174 0 15.9504V46.9008C0 48.0992 0.630236 49.2149 1.63861 49.876L16.8903 59.5868C17.3105 59.876 17.8147 60 18.3188 60C19.7894 60 20.9658 58.843 20.9658 57.3967V2.60331C21.0079 1.15702 19.8314 0 18.3609 0Z" fill="white"/>
<path d="M23.0667 54.8347C22.7726 54.8347 22.5625 54.5868 22.5625 54.3388V4.54543C22.5625 4.25617 22.8146 4.04956 23.0667 4.04956C23.3188 4.04956 23.5709 4.29749 23.5709 4.54543V54.2975C23.6129 54.6281 23.3608 54.8347 23.0667 54.8347Z" fill="white"/>
<path d="M27.3523 52.9339C27.0582 52.9339 26.8481 52.686 26.8481 52.438V6.44631C26.8481 6.15705 27.1002 5.95044 27.3523 5.95044C27.6044 5.95044 27.8565 6.19837 27.8565 6.44631V52.438C27.8565 52.7273 27.6464 52.9339 27.3523 52.9339Z" fill="white"/>
<path d="M31.638 51.0331C31.3439 51.0331 31.1338 50.7851 31.1338 50.5372V8.34713C31.1338 8.05787 31.3859 7.85126 31.638 7.85126C31.8901 7.85126 32.1422 8.09919 32.1422 8.34713V50.5372C32.1422 50.8265 31.9321 51.0331 31.638 51.0331Z" fill="white"/>
<path d="M8.82309 8.26447V23.3471L6.34416 20.4959L3.86523 25.7851V12.3141L8.82309 8.26447Z" fill="#2E4A5B"/>
</svg>
