<svg width="134" height="60" viewBox="0 0 134 60" fill="none" xmlns="http://www.w3.org/2000/svg">
<path d="M23.1 10.5246C20 11.7049 15 15.2459 13 21.6394L11 21.2459C13.2 16.7213 17.5 12.1967 23.1 10.5246Z" fill="white"/>
<path d="M10.8 21.8361C9.2 25.5738 9.1 27.8361 9 29.6066L12.3 29.1147C12.3 29.1147 11.9 25.5738 12.8 22.3279L10.8 21.8361Z" fill="white"/>
<path d="M8.99998 30.2951C8.99998 30.5902 8.89998 33.9344 10.4 37.7705L14.6 36C14.6 36 13 33.7377 12.4 29.8033L8.99998 30.2951Z" fill="white"/>
<path d="M16.3 46.1312C15.8 45.9344 12.6 42.8853 10.8 38.8525L15.1 36.7869C15.1 36.7869 16.5 39.3443 20.1 41.9016L16.3 46.1312Z" fill="white"/>
<path d="M17.7 47.2131C18.5 47.9016 22.4 50.8524 28.8 51.2459L28.2 44.7541C25.8 44.3606 24 44.0656 21.6 42.5901L17.7 47.2131Z" fill="white"/>
<path d="M30.2 44.9508L30.9 51.3443C30.9 51.3443 36.5 51.3443 41.3 48.1967L37.2 43.5738C37.1 43.4754 34.8 44.7541 30.2 44.9508Z" fill="white"/>
<path d="M49.8 48.6885L68 47.0164L45.8 46.5246C41.7 50.5574 36.1 53.0164 30 53.0164C17.5 53.0164 7.30001 42.8852 7.30001 30.2951C7.30001 17.7049 17.4 7.47541 30 7.47541C36.5 7.47541 42.4 10.2295 46.5 14.6557L50.4 13.7705L54.4 12.7869C54.5 12.5902 54.5 12.3934 54.2 12.0984L50.6 8.16393C50.3 7.86885 49.9 7.77049 49.5 7.96721L46.5 9.7377C45.6 9.04918 44.7 8.36065 43.8 7.86885L44.5 4.62295C44.6 4.13114 44.4 3.7377 44 3.54098L39.7 1.67213C39.3 1.47541 38.9 1.67213 38.7 1.96721L36.7 4.81967C34.6 4.22951 32.5 3.93442 30.3 3.93442L29.2 0.786883C29.1 0.39344 28.6 0.0983582 28.2 0.0983582L23.6 0.688522C23.2 0.786883 22.9 1.08196 22.9 1.47541L22.7 4.91803C20.6 5.50819 18.6 6.39344 16.8 7.47541L14.3 5.31147C14 5.01639 13.4 5.01639 13.1 5.31147L9.30001 8.16393C9.00001 8.45901 8.90001 8.85246 9.10001 9.2459L10.7 12.2951C9.60001 13.4754 8.60001 14.7541 7.80001 16.1311L4.60001 15.4426C4.20001 15.3443 3.70001 15.541 3.50001 16.0328L1.70001 20.3607C1.50001 20.7541 1.70001 21.1475 2.00001 21.3443L4.70001 23.2131C4.10001 25.2787 3.80001 27.4426 3.70001 29.7049L0.700009 30.7869C0.300009 30.9836 8.92021e-06 31.377 0.100009 31.8689L0.700009 36.3934C0.800009 36.7869 1.10001 37.082 1.50001 37.082L4.50001 37.2787C5.10001 39.541 6.00001 41.6066 7.20001 43.4754L5.30001 45.7377C5.00001 46.0328 5.00001 46.5246 5.30001 46.8197L8.20001 50.459C8.50001 50.8525 9.00001 50.9508 9.40001 50.7541L12 49.377C13.3 50.5574 14.6 51.541 16.1 52.4262L15.5 55.4754C15.4 55.8689 15.6 56.2623 16 56.459L20.3 58.2295C20.7 58.4262 21.2 58.2295 21.5 57.8361L23.2 55.377C25.3 55.9672 27.6 56.2623 29.9 56.2623L31 59.2131C31.1 59.6066 31.5 59.8033 31.9 59.8033L36.5 59.1147C37 59.0164 37.3 58.7213 37.3 58.2295L37.5 55.1803C39.7 54.5902 41.7 53.7049 43.8 52.6229L46.2 54.5902C46.5 54.8852 47 54.8852 47.3 54.5902L50.9 51.6393C51.3 51.3443 51.4 50.8525 51.1 50.459L49.8 48.6885Z" fill="#EF0F3A"/>
<path d="M104.6 23.5902L104.4 22.5082L102.1 24.8688L101.2 24.6721L101 23.7869L103.3 21.4262L102.2 21.2295C101.2 21.0328 100.2 21.3279 99.5 22.1148C98.9 22.7049 98.6 23.4918 98.6 24.2787C98.6 24.7705 98.4 25.2623 98.1 25.5574L90.6 33.1311C90.3 33.4262 89.8 33.6229 89.3 33.6229H89C88.3 33.7213 87.6 34.0164 87.1 34.5082C86.4 35.1967 86.1 36.2787 86.3 37.2623L86.5 38.4426L88.8 36.082L89.7 36.2787L89.9 37.1639L87.6 39.5246L88.7 39.7213C88.9 39.7213 89.1 39.7213 89.2 39.7213C90 39.7213 90.8 39.4262 91.4 38.8361C92 38.2459 92.3 37.459 92.3 36.6721C92.3 36.1803 92.5 35.6885 92.8 35.3934L100.3 27.8197C100.6 27.5246 101.1 27.3279 101.6 27.3279C102.4 27.3279 103.2 27.0328 103.8 26.4426C104.5 25.6557 104.8 24.6721 104.6 23.5902Z" fill="#EF0F3A"/>
<path d="M103.8 34.4098C103.3 33.918 102.6 33.6229 101.9 33.5246H101.6C101.1 33.5246 100.7 33.3279 100.3 33.0328L92.8 25.459C92.5 25.1639 92.3 24.6721 92.3 24.1803C92.3 23.3934 92 22.6066 91.4 22.0164C90.7 21.3279 89.7 21.0328 88.7 21.1311L87.6 21.3279L89.9 23.6885L89.7 24.5738L88.8 24.7705L86.5 22.4098L86.3 23.5902C86.1 24.5738 86.4 25.5574 87.1 26.3443C87.7 26.9344 88.5 27.2295 89.3 27.2295C89.8 27.2295 90.2 27.4262 90.6 27.7213L98.1 35.2951C98.4 35.5902 98.6 36.082 98.6 36.5738C98.6 37.3607 98.9 38.1475 99.5 38.7377C100.1 39.3279 100.9 39.6229 101.7 39.6229C101.9 39.6229 102.1 39.6229 102.2 39.6229L103.3 39.4262L101 37.0656L101.2 36.1803L102.1 35.9836L104.4 38.2459L104.6 37.1639C104.8 36.1803 104.5 35.0984 103.8 34.4098Z" fill="#EF0F3A"/>
<path d="M29.476 40.216C27.82 40.216 26.32 39.94 24.976 39.388C23.656 38.836 22.6 37.936 21.808 36.688C21.04 35.44 20.656 33.784 20.656 31.72V22.18C20.656 20.116 21.04 18.46 21.808 17.212C22.6 15.964 23.656 15.064 24.976 14.512C26.296 13.96 27.736 13.684 29.296 13.684C31.024 13.684 32.56 13.972 33.904 14.548C35.272 15.1 36.352 15.904 37.144 16.96C37.936 18.016 38.332 19.312 38.332 20.848C38.332 21.928 38.104 22.648 37.648 23.008C37.192 23.344 36.484 23.512 35.524 23.512C34.78 23.512 34.132 23.392 33.58 23.152C33.028 22.912 32.74 22.468 32.716 21.82C32.716 21.388 32.656 20.92 32.536 20.416C32.44 19.912 32.164 19.48 31.708 19.12C31.276 18.76 30.544 18.58 29.512 18.58C28.48 18.58 27.676 18.88 27.1 19.48C26.548 20.056 26.272 20.956 26.272 22.18V31.72C26.272 32.944 26.548 33.856 27.1 34.456C27.676 35.032 28.468 35.32 29.476 35.32C30.484 35.32 31.276 35.032 31.852 34.456C32.428 33.856 32.716 32.944 32.716 31.72V30.496H30.592C30.064 30.496 29.644 30.28 29.332 29.848C29.044 29.392 28.9 28.888 28.9 28.336C28.9 27.808 29.044 27.316 29.332 26.86C29.644 26.404 30.064 26.176 30.592 26.176H36.64C37.192 26.176 37.612 26.356 37.9 26.716C38.188 27.052 38.332 27.46 38.332 27.94V31.72C38.332 33.784 37.936 35.44 37.144 36.688C36.376 37.936 35.32 38.836 33.976 39.388C32.632 39.94 31.132 40.216 29.476 40.216Z" fill="white"/>
<path d="M45.4767 40.4C44.0901 40.4 42.8901 39.9733 41.8767 39.12C40.8634 38.24 40.3567 36.8933 40.3567 35.08C40.3567 33.5067 40.7567 32.28 41.5567 31.4C42.3567 30.52 43.4501 29.9067 44.8367 29.56C46.2501 29.2133 47.8767 29.04 49.7167 29.04H51.1567V28.64C51.1567 28.1867 51.0634 27.7333 50.8767 27.28C50.6901 26.8267 50.3834 26.4533 49.9567 26.16C49.5301 25.84 48.9301 25.68 48.1567 25.68C47.0634 25.68 46.2501 25.7867 45.7167 26C45.1834 26.2133 44.7701 26.44 44.4767 26.68C44.1834 26.8933 43.8501 27 43.4767 27C42.8101 27 42.2901 26.6667 41.9167 26C41.5701 25.3333 41.3967 24.64 41.3967 23.92C41.3967 23.28 41.7567 22.72 42.4767 22.24C43.2234 21.76 44.1167 21.3867 45.1567 21.12C46.2234 20.8533 47.2501 20.72 48.2367 20.72C50.4234 20.72 52.1834 21.0933 53.5167 21.84C54.8501 22.5867 55.8234 23.56 56.4367 24.76C57.0501 25.9333 57.3567 27.2 57.3567 28.56V38.08C57.3567 38.6133 57.0634 39.0667 56.4767 39.44C55.9167 39.8133 55.1967 40 54.3167 40C53.5434 40 52.8901 39.8133 52.3567 39.44C51.8234 39.0667 51.5567 38.6133 51.5567 38.08V37.2C50.8367 38.0267 49.9967 38.7733 49.0367 39.44C48.0767 40.08 46.8901 40.4 45.4767 40.4ZM48.1567 35.88C48.5834 35.88 49.0234 35.72 49.4767 35.4C49.9301 35.0533 50.3167 34.6 50.6367 34.04C50.9834 33.48 51.1567 32.8667 51.1567 32.2V32.04H50.9967C50.2501 32.04 49.5301 32.0933 48.8367 32.2C48.1701 32.28 47.6234 32.48 47.1967 32.8C46.7967 33.0933 46.5967 33.56 46.5967 34.2C46.5967 34.7867 46.7434 35.2133 47.0367 35.48C47.3301 35.7467 47.7034 35.88 48.1567 35.88Z" fill="white"/>
<path d="M63.8517 40C62.9717 40 62.2384 39.8 61.6517 39.4C61.0917 39 60.8117 38.56 60.8117 38.08V22.84C60.8117 22.28 61.0917 21.8267 61.6517 21.48C62.2384 21.1333 62.9717 20.96 63.8517 20.96C64.6251 20.96 65.2784 21.1333 65.8117 21.48C66.3451 21.8267 66.6117 22.28 66.6117 22.84V24.32C66.8784 23.7333 67.2517 23.1733 67.7317 22.64C68.2384 22.08 68.7984 21.6267 69.4117 21.28C70.0517 20.9067 70.7051 20.72 71.3717 20.72H72.5317C73.1184 20.72 73.6251 20.9867 74.0517 21.52C74.5051 22.0533 74.7317 22.68 74.7317 23.4C74.7317 24.1467 74.5051 24.7867 74.0517 25.32C73.6251 25.8533 73.1184 26.12 72.5317 26.12H71.3717C70.6517 26.12 69.9584 26.3733 69.2917 26.88C68.6251 27.36 68.0784 28.04 67.6517 28.92C67.2251 29.8 67.0117 30.8533 67.0117 32.08V38.08C67.0117 38.56 66.7051 39 66.0917 39.4C65.4784 39.8 64.7317 40 63.8517 40Z" fill="white"/>
<path d="M79.6339 17.28C78.7272 17.28 77.9539 16.9867 77.3139 16.4C76.6739 15.8133 76.3539 15.1467 76.3539 14.4C76.3539 13.6267 76.6739 12.96 77.3139 12.4C77.9539 11.84 78.7272 11.56 79.6339 11.56C80.5406 11.56 81.3006 11.84 81.9139 12.4C82.5539 12.96 82.8739 13.6267 82.8739 14.4C82.8739 15.1467 82.5539 15.8133 81.9139 16.4C81.3006 16.9867 80.5406 17.28 79.6339 17.28ZM79.6339 40C78.7272 40 77.9806 39.8 77.3939 39.4C76.8339 39 76.5539 38.56 76.5539 38.08V22.84C76.5539 22.28 76.8339 21.8267 77.3939 21.48C77.9806 21.1333 78.7272 20.96 79.6339 20.96C80.4872 20.96 81.2206 21.1333 81.8339 21.48C82.4472 21.8267 82.7539 22.28 82.7539 22.84V38.08C82.7539 38.56 82.4472 39 81.8339 39.4C81.2206 39.8 80.4872 40 79.6339 40Z" fill="white"/>
</svg>
