<svg width="195" height="60" viewBox="0 0 195 60" fill="none" xmlns="http://www.w3.org/2000/svg">
<path d="M54.0538 10.597C54.0538 8.87164 53.8173 7.60298 53.3444 6.79104C52.8714 5.94527 51.9255 5.52239 50.5067 5.52239H50V4H72.3464C75.2178 4 76.6536 5.35323 76.6536 8.0597V12.3731H75.1334C75.1334 10.2756 74.5929 8.73632 73.5119 7.75522C72.4647 6.77413 70.8938 6.28358 68.7994 6.28358H60.6412V18.9701H73.8159V21.2537H60.6412V35.209H69.3061C71.2316 35.209 72.8363 34.7861 74.12 33.9403C75.4036 33.0607 76.4678 31.5552 77.3123 29.4239L78.6804 29.9313L77.211 33.9403C76.7718 35.1582 76.2482 36.0547 75.6401 36.6298C75.0321 37.205 74.0862 37.4925 72.8025 37.4925H54.0538V10.597Z" fill="white"/>
<path d="M96.852 38C95.0278 38 93.5414 37.5433 92.3928 36.6298C91.8185 36.2239 91.3625 35.7502 91.0247 35.209H90.7713L88.9978 37.4925H84.6906V10.597C84.6906 8.87164 84.4542 7.60298 83.9812 6.79104C83.5083 5.94527 82.5624 5.52239 81.1436 5.52239H80.6369V4H86.7175C87.9337 4 88.8626 4.20299 89.5045 4.60896C90.1463 5.01493 90.6024 5.69154 90.8726 6.63881C91.1429 7.55224 91.278 8.87164 91.278 10.597V14.6567C91.7172 14.3861 92.1901 14.1323 92.6968 13.8955C94.0819 13.3881 95.3825 13.1343 96.5986 13.1343C100.112 13.1343 102.797 14.3015 104.655 16.6358C106.547 18.9363 107.493 21.9134 107.493 25.5672C107.493 29.2209 106.564 32.2149 104.706 34.5493C102.882 36.8498 100.264 38 96.852 38ZM95.8385 35.7164C97.4938 35.7164 98.7099 34.803 99.4869 32.9761C100.264 31.1493 100.652 28.6796 100.652 25.5672C100.652 18.801 98.9633 15.4179 95.5852 15.4179C94.6055 15.4179 93.5752 15.6716 92.4942 16.1791C92.0212 16.4498 91.6158 16.7035 91.278 16.9403V32.4179C91.5821 33.0945 91.9537 33.6527 92.3928 34.0925C93.4063 35.1751 94.5548 35.7164 95.8385 35.7164Z" fill="white"/>
<path d="M124.31 38C121.101 38 118.736 37.2557 117.216 35.7672C115.696 34.2786 114.936 31.9104 114.936 28.6627V20.2388C114.936 18.5134 114.699 17.2448 114.226 16.4328C113.753 15.5871 112.807 15.1642 111.389 15.1642H110.882V13.6418H116.962C118.179 13.6418 119.108 13.8448 119.749 14.2507C120.391 14.6567 120.847 15.3333 121.118 16.2806C121.388 17.194 121.523 18.5134 121.523 20.2388V28.7134C121.523 31.2507 121.878 33.0607 122.587 34.1433C123.297 35.192 124.378 35.7164 125.83 35.7164C127.08 35.7164 128.212 35.1751 129.225 34.0925C129.597 33.7204 129.985 33.1622 130.391 32.4179V13.6418H136.978V37.4925H132.671L130.897 35.209H130.644C130.171 35.7164 129.614 36.19 128.972 36.6298C127.688 37.5433 126.134 38 124.31 38Z" fill="white"/>
<path d="M164.109 38C162.623 38 161.255 37.6955 160.005 37.0866C158.789 36.4438 157.64 35.395 156.559 33.9403L151.695 27.5463V37.4925H145.107V10.597C145.107 8.87164 144.871 7.60298 144.398 6.79104C143.925 5.94527 142.979 5.52239 141.56 5.52239H141.054V4H147.134C148.35 4 149.279 4.20299 149.921 4.60896C150.563 5.01493 151.019 5.69154 151.289 6.63881C151.56 7.55224 151.695 8.87164 151.695 10.597V25.0597L157.826 17.5493C158.975 16.1622 160.056 15.1642 161.069 14.5552C162.082 13.9463 163.434 13.6418 165.123 13.6418H166.136V14.9612C165.123 14.9612 164.211 15.1642 163.4 15.5701C162.589 15.9761 161.812 16.6189 161.069 17.4985L156.154 23.4866L162.893 32.4179C164.515 34.6169 166.086 35.9025 167.606 36.2746V37.4925C167.335 37.6279 166.829 37.7463 166.086 37.8478C165.376 37.9493 164.717 38 164.109 38Z" fill="white"/>
<path d="M171.654 35.9194L184.98 15.9254H179.001C176.873 15.9254 175.37 16.3144 174.491 17.0925C173.613 17.8368 173.174 19.0547 173.174 20.7463H171.654V17.7015C171.654 14.995 173.089 13.6418 175.961 13.6418H194L179.609 35.209H192.936V37.4925H171.654V35.9194Z" fill="white"/>
<path d="M190.402 56.8853V48.0115H191.518V56.8853H190.402ZM192.719 53.7325L195 56.8853H193.691L191.974 54.3287L192.719 53.7325ZM191.17 55.372L191.062 54.3516L194.076 52.0357L194.76 52.5975L191.17 55.372Z" fill="white"/>
<path d="M178.384 54.4662C178.384 53.9924 178.5 53.5643 178.733 53.1822C178.973 52.8 179.301 52.4981 179.717 52.2764C180.133 52.0548 180.606 51.944 181.134 51.944C181.678 51.944 182.154 52.0548 182.563 52.2764C182.971 52.4981 183.287 52.8 183.511 53.1822C183.735 53.5643 183.847 53.9924 183.847 54.4662C183.847 54.9401 183.735 55.372 183.511 55.7618C183.287 56.1439 182.967 56.4459 182.551 56.6675C182.142 56.8892 181.666 57 181.122 57C180.594 57 180.121 56.8968 179.705 56.6904C179.297 56.4764 178.973 56.1822 178.733 55.8076C178.5 55.4255 178.384 54.9783 178.384 54.4662ZM179.501 54.4777C179.501 54.7834 179.573 55.0624 179.717 55.3147C179.861 55.5592 180.053 55.7541 180.293 55.8994C180.542 56.0446 180.814 56.1172 181.11 56.1172C181.422 56.1172 181.698 56.0446 181.938 55.8994C182.186 55.7541 182.378 55.5592 182.515 55.3147C182.651 55.0624 182.719 54.7834 182.719 54.4777C182.719 54.172 182.651 53.8968 182.515 53.6522C182.378 53.4 182.186 53.2013 181.938 53.0561C181.698 52.9032 181.422 52.8268 181.11 52.8268C180.806 52.8268 180.529 52.9032 180.281 53.0561C180.041 53.2089 179.849 53.4115 179.705 53.6637C179.569 53.9083 179.501 54.1796 179.501 54.4777Z" fill="white"/>
<path d="M166.799 54.4662C166.799 53.9924 166.915 53.5643 167.148 53.1822C167.388 52.8 167.716 52.4981 168.132 52.2764C168.548 52.0548 169.021 51.944 169.549 51.944C170.093 51.944 170.569 52.0548 170.978 52.2764C171.386 52.4981 171.702 52.8 171.926 53.1822C172.15 53.5643 172.262 53.9924 172.262 54.4662C172.262 54.9401 172.15 55.372 171.926 55.7618C171.702 56.1439 171.382 56.4459 170.966 56.6675C170.557 56.8892 170.081 57 169.537 57C169.009 57 168.536 56.8968 168.12 56.6904C167.712 56.4764 167.388 56.1822 167.148 55.8076C166.915 55.4255 166.799 54.9783 166.799 54.4662ZM167.916 54.4777C167.916 54.7834 167.988 55.0624 168.132 55.3147C168.276 55.5592 168.468 55.7541 168.708 55.8994C168.956 56.0446 169.229 56.1172 169.525 56.1172C169.837 56.1172 170.113 56.0446 170.353 55.8994C170.601 55.7541 170.793 55.5592 170.93 55.3147C171.066 55.0624 171.134 54.7834 171.134 54.4777C171.134 54.172 171.066 53.8968 170.93 53.6522C170.793 53.4 170.601 53.2013 170.353 53.0561C170.113 52.9032 169.837 52.8268 169.525 52.8268C169.221 52.8268 168.944 52.9032 168.696 53.0561C168.456 53.2089 168.264 53.4115 168.12 53.6637C167.984 53.9083 167.916 54.1796 167.916 54.4777Z" fill="white"/>
<path d="M157.277 48.5962C158.149 48.5962 158.833 48.7682 159.33 49.1121C159.834 49.4484 160.086 49.9758 160.086 50.6943C160.086 51.1299 159.982 51.5083 159.774 51.8293C159.566 52.1503 159.274 52.4025 158.897 52.586C158.529 52.7694 158.093 52.8726 157.589 52.8955L157.421 52.3223C158.005 52.3376 158.529 52.4369 158.993 52.6204C159.458 52.8038 159.826 53.0599 160.098 53.3885C160.37 53.7172 160.506 54.107 160.506 54.558C160.506 54.9707 160.426 55.3261 160.266 55.6242C160.106 55.9146 159.89 56.1554 159.618 56.3465C159.346 56.5299 159.037 56.6675 158.693 56.7592C158.349 56.8433 157.993 56.8853 157.625 56.8853H155.043V48.5962H157.277ZM157.517 52.2306C157.997 52.2306 158.345 52.1045 158.561 51.8522C158.777 51.5924 158.885 51.279 158.885 50.9121C158.885 50.4764 158.745 50.1592 158.465 49.9605C158.185 49.7618 157.809 49.6624 157.337 49.6624H156.208V52.2306H157.517ZM157.565 55.8535C157.885 55.8535 158.177 55.8076 158.441 55.7159C158.713 55.6242 158.925 55.4828 159.077 55.2917C159.238 55.1006 159.318 54.8599 159.318 54.5694C159.318 54.2484 159.226 53.9962 159.041 53.8127C158.865 53.6293 158.637 53.4994 158.357 53.4229C158.077 53.3389 157.789 53.2968 157.493 53.2968H156.208V55.8535H157.565Z" fill="white"/>
<path d="M136.742 56.8853V53.0904H135.89V52.1389H136.742V50.1325C136.742 49.4446 136.902 48.9172 137.222 48.5503C137.551 48.1834 138.031 48 138.663 48C138.831 48 139.015 48.0229 139.215 48.0688C139.424 48.1146 139.604 48.1911 139.756 48.2981L139.288 49.0662C139.215 48.9975 139.135 48.9516 139.047 48.9287C138.959 48.8981 138.871 48.8828 138.783 48.8828C138.487 48.8828 138.259 48.9783 138.099 49.1694C137.939 49.3605 137.859 49.6853 137.859 50.1439V52.1389H139.432V53.0904H137.859V56.8853H136.742Z" fill="white"/>
<path d="M120.733 52.7465C120.733 52.1732 120.845 51.6344 121.069 51.1299C121.301 50.6178 121.621 50.1669 122.03 49.7771C122.438 49.3796 122.906 49.0701 123.434 48.8484C123.971 48.6191 124.547 48.5045 125.163 48.5045C125.771 48.5045 126.34 48.6191 126.868 48.8484C127.404 49.0701 127.877 49.3796 128.285 49.7771C128.701 50.1669 129.025 50.6178 129.257 51.1299C129.489 51.6344 129.605 52.1732 129.605 52.7465C129.605 53.335 129.489 53.8853 129.257 54.3974C129.025 54.9095 128.701 55.3605 128.285 55.7503C127.877 56.1325 127.404 56.4344 126.868 56.656C126.34 56.8701 125.771 56.9771 125.163 56.9771C124.547 56.9771 123.971 56.8701 123.434 56.656C122.906 56.442 122.438 56.1439 122.03 55.7618C121.621 55.3796 121.301 54.9325 121.069 54.4204C120.845 53.9083 120.733 53.3503 120.733 52.7465ZM121.934 52.758C121.934 53.1936 122.018 53.6025 122.186 53.9847C122.354 54.3592 122.586 54.6917 122.882 54.9822C123.178 55.2726 123.522 55.5019 123.915 55.6701C124.307 55.8306 124.731 55.9108 125.187 55.9108C125.635 55.9108 126.056 55.8306 126.448 55.6701C126.84 55.5019 127.18 55.2726 127.468 54.9822C127.757 54.6917 127.985 54.3592 128.153 53.9847C128.321 53.6025 128.405 53.1898 128.405 52.7465C128.405 52.3108 128.321 51.9019 128.153 51.5197C127.985 51.1299 127.753 50.7898 127.456 50.4994C127.16 50.2089 126.816 49.9834 126.424 49.8229C126.032 49.6548 125.611 49.5707 125.163 49.5707C124.707 49.5707 124.283 49.6548 123.891 49.8229C123.498 49.9911 123.154 50.2204 122.858 50.5108C122.562 50.8013 122.334 51.1414 122.174 51.5312C122.014 51.9134 121.934 52.3223 121.934 52.758Z" fill="white"/>
<path d="M101.473 52.1388L101.569 53.2968L101.521 53.1134C101.681 52.7618 101.942 52.4828 102.302 52.2764C102.662 52.0624 103.078 51.9554 103.55 51.9554C104.023 51.9554 104.407 52.0892 104.703 52.3567C105.007 52.6166 105.163 52.9567 105.171 53.3771V56.8853H104.043V53.7554C104.035 53.4955 103.955 53.2853 103.803 53.1248C103.658 52.9567 103.43 52.8726 103.118 52.8726C102.83 52.8726 102.57 52.949 102.338 53.1019C102.106 53.2548 101.922 53.465 101.785 53.7325C101.657 54 101.593 54.3095 101.593 54.6611V56.8853H100.477V52.1388H101.473Z" fill="white"/>
<path d="M90.4644 57C90.0002 57 89.5759 56.9045 89.1917 56.7134C88.8156 56.5223 88.5154 56.2433 88.2913 55.8764C88.0752 55.5019 87.9671 55.0471 87.9671 54.5121C87.9671 53.9847 88.0832 53.5299 88.3153 53.1478C88.5474 52.758 88.8556 52.4599 89.2398 52.2535C89.632 52.0471 90.0602 51.944 90.5244 51.944C90.9887 51.944 91.3809 52.0471 91.701 52.2535C92.0212 52.4522 92.2653 52.6892 92.4334 52.9643L92.3614 53.1478L92.4694 52.1389H93.502V56.8854H92.3854V55.6471L92.5055 55.9223C92.4734 55.9987 92.4014 56.0981 92.2893 56.2204C92.1853 56.335 92.0412 56.4535 91.8571 56.5758C91.681 56.6981 91.4769 56.8013 91.2448 56.8854C91.0127 56.9618 90.7526 57 90.4644 57ZM90.7646 56.1172C91.0447 56.1172 91.2968 56.0675 91.5209 55.9682C91.7451 55.8688 91.9292 55.7312 92.0732 55.5554C92.2253 55.372 92.3294 55.1541 92.3854 54.9019V53.9733C92.3214 53.744 92.2093 53.5452 92.0492 53.3771C91.8891 53.2013 91.697 53.0675 91.4729 52.9758C91.2488 52.8764 91.0007 52.8268 90.7285 52.8268C90.4324 52.8268 90.1602 52.8955 89.9121 53.0331C89.664 53.1707 89.4639 53.3618 89.3118 53.6064C89.1677 53.851 89.0957 54.1376 89.0957 54.4662C89.0957 54.772 89.1717 55.051 89.3238 55.3032C89.4759 55.5554 89.68 55.7541 89.9361 55.8994C90.1923 56.0446 90.4684 56.1172 90.7646 56.1172Z" fill="white"/>
<path d="M79.4243 57C78.856 57 78.3678 56.893 77.9596 56.679C77.5514 56.4573 77.2352 56.1592 77.0111 55.7847C76.795 55.4025 76.6869 54.9669 76.6869 54.4777C76.6869 54.0115 76.811 53.5873 77.0591 53.2051C77.3073 52.8229 77.6394 52.5172 78.0556 52.2879C78.4719 52.0586 78.9361 51.944 79.4484 51.944C80.1047 51.944 80.649 52.1274 81.0812 52.4943C81.5134 52.8611 81.8056 53.3656 81.9576 54.0076L77.8635 55.3834L77.5994 54.7529L80.9611 53.5834L80.721 53.7325C80.625 53.4803 80.4649 53.2624 80.2408 53.079C80.0166 52.8879 79.7245 52.7924 79.3643 52.7924C79.0602 52.7924 78.788 52.865 78.5479 53.0102C78.3078 53.1478 78.1197 53.3389 77.9836 53.5834C77.8475 53.828 77.7795 54.107 77.7795 54.4204C77.7795 54.749 77.8515 55.0395 77.9956 55.2917C78.1397 55.5363 78.3358 55.7312 78.5839 55.8764C78.84 56.014 79.1282 56.0828 79.4484 56.0828C79.6645 56.0828 79.8726 56.0446 80.0727 55.9682C80.2808 55.8917 80.4729 55.7924 80.649 55.6701L81.1652 56.4611C80.9171 56.6217 80.637 56.7516 80.3248 56.851C80.0206 56.9503 79.7205 57 79.4243 57Z" fill="white"/>
<path d="M70.6352 56.4497C70.4111 56.6178 70.1429 56.7516 69.8308 56.851C69.5186 56.9503 69.2064 57 68.8943 57C68.35 57 67.8738 56.8968 67.4655 56.6904C67.0573 56.4841 66.7372 56.1975 66.505 55.8306C66.2809 55.4561 66.1689 55.0166 66.1689 54.5121C66.1689 54.0076 66.2889 53.5682 66.5291 53.1936C66.7772 52.8191 67.0974 52.5325 67.4896 52.3338C67.8898 52.1274 68.318 52.0242 68.7742 52.0242C69.1744 52.0242 69.5306 52.0777 69.8428 52.1847C70.1629 52.2917 70.4351 52.4369 70.6592 52.6204L70.1069 53.3083C69.9628 53.2013 69.7867 53.1057 69.5786 53.0217C69.3705 52.9376 69.1344 52.8955 68.8703 52.8955C68.5821 52.8955 68.314 52.9682 68.0658 53.1134C67.8257 53.251 67.6336 53.442 67.4896 53.6866C67.3535 53.9312 67.2854 54.2064 67.2854 54.5121C67.2854 54.8025 67.3575 55.0739 67.5016 55.3261C67.6456 55.5707 67.8457 55.7656 68.1019 55.9108C68.358 56.0484 68.6502 56.1172 68.9783 56.1172C69.1944 56.1172 69.3905 56.0866 69.5666 56.0255C69.7507 55.9643 69.9148 55.8803 70.0589 55.7732L70.6352 56.4497Z" fill="white"/>
<path d="M51 52.7465C51 52.1732 51.1121 51.6344 51.3362 51.1299C51.5683 50.6178 51.8885 50.1669 52.2967 49.7771C52.7049 49.3796 53.1731 49.0701 53.7014 48.8484C54.2377 48.6191 54.814 48.5045 55.4303 48.5045C56.0386 48.5045 56.6069 48.6191 57.1352 48.8484C57.6714 49.0701 58.1437 49.3796 58.5519 49.7771C58.9681 50.1669 59.2923 50.6178 59.5244 51.1299C59.7565 51.6344 59.8726 52.1732 59.8726 52.7465C59.8726 53.335 59.7565 53.8853 59.5244 54.3974C59.2923 54.9095 58.9681 55.3605 58.5519 55.7503C58.1437 56.1325 57.6714 56.4344 57.1352 56.656C56.6069 56.8701 56.0386 56.9771 55.4303 56.9771C54.814 56.9771 54.2377 56.8701 53.7014 56.656C53.1731 56.442 52.7049 56.1439 52.2967 55.7618C51.8885 55.3796 51.5683 54.9325 51.3362 54.4204C51.1121 53.9083 51 53.3503 51 52.7465ZM52.2006 52.758C52.2006 53.1936 52.2847 53.6025 52.4527 53.9847C52.6208 54.3592 52.853 54.6917 53.1491 54.9822C53.4453 55.2726 53.7894 55.5019 54.1816 55.6701C54.5738 55.8306 54.9981 55.9108 55.4543 55.9108C55.9025 55.9108 56.3227 55.8306 56.7149 55.6701C57.1071 55.5019 57.4473 55.2726 57.7355 54.9822C58.0236 54.6917 58.2517 54.3592 58.4198 53.9847C58.5879 53.6025 58.6719 53.1898 58.6719 52.7465C58.6719 52.3108 58.5879 51.9019 58.4198 51.5197C58.2517 51.1299 58.0196 50.7898 57.7235 50.4994C57.4273 50.2089 57.0831 49.9834 56.6909 49.8229C56.2987 49.6548 55.8785 49.5707 55.4303 49.5707C54.974 49.5707 54.5498 49.6548 54.1576 49.8229C53.7654 49.9911 53.4212 50.2204 53.1251 50.5108C52.8289 50.8013 52.6008 51.1414 52.4407 51.5312C52.2807 51.9134 52.2006 52.3223 52.2006 52.758Z" fill="white"/>
<path d="M34.5794 48.8017C34.4533 48.8017 34.3273 48.7603 34.2432 48.6777C34.1592 48.5951 34.1172 48.4711 34.1172 48.3471L34.2432 11.1984C34.2432 10.9917 34.3693 10.8265 34.5373 10.7851L36.5541 9.95869C36.8062 9.83472 37.1003 9.7934 37.3944 9.7934C38.6129 9.7934 39.5792 10.7438 39.5792 11.9422V46.6942C39.5792 47.8926 38.6129 48.843 37.3944 48.843H34.5794V48.8017Z" fill="white"/>
<path d="M37.3527 10.248C38.235 10.248 39.0753 10.9504 39.0753 11.9422V46.6942C39.0753 47.6033 38.319 48.3885 37.3527 48.3885H34.5796L34.7057 11.2397L36.7224 10.4132C36.9325 10.2893 37.1426 10.248 37.3527 10.248ZM37.3527 9.29755C37.0166 9.29755 36.6804 9.38019 36.3443 9.50416L34.3275 10.3306C33.9914 10.4546 33.7393 10.8265 33.7393 11.1984L33.6133 48.3471C33.6133 48.5951 33.6973 48.843 33.9074 49.0083C34.0755 49.1736 34.3275 49.2975 34.5796 49.2975H37.3527C38.8232 49.2975 39.9997 48.1405 39.9997 46.6942V11.9422C40.0417 10.4959 38.8232 9.29755 37.3527 9.29755Z" fill="white"/>
<path d="M18.3606 59.5454C17.9404 59.5454 17.5203 59.4215 17.1841 59.2149L1.93244 49.5041C1.05011 48.9256 0.503906 47.9752 0.503906 46.9008V15.9504C0.503906 15.0413 0.924063 14.1735 1.63833 13.595L16.9741 0.950397C17.3942 0.619818 17.8564 0.454529 18.3606 0.454529C19.579 0.454529 20.5454 1.40494 20.5454 2.60329V57.3967C20.5454 58.595 19.579 59.5454 18.3606 59.5454Z" fill="white"/>
<path d="M18.3609 0.950413C19.2432 0.950413 20.0835 1.61157 20.0835 2.64463V57.438C20.0835 58.4298 19.2432 59.1322 18.3609 59.1322C18.0668 59.1322 17.7306 59.0496 17.4365 58.843L2.18482 49.1322C1.42853 48.6364 0.966361 47.8099 0.966361 46.9422V15.9504C0.966361 15.1653 1.30249 14.4215 1.93272 13.9256L3.90746 12.314L8.8233 8.26446L17.2685 1.32231C17.6046 1.07438 17.9827 0.950413 18.3609 0.950413ZM18.3609 0C17.7306 0 17.1424 0.206612 16.6802 0.619835L8.19306 7.56198L3.27723 11.6116L1.30249 13.2231C0.462173 13.8843 0 14.9174 0 15.9504V46.9008C0 48.0992 0.630236 49.2149 1.63861 49.876L16.8903 59.5868C17.3105 59.876 17.8147 60 18.3188 60C19.7894 60 20.9658 58.843 20.9658 57.3967V2.60331C21.0079 1.15702 19.8314 0 18.3609 0Z" fill="white"/>
<path d="M23.0667 54.8347C22.7726 54.8347 22.5625 54.5868 22.5625 54.3388V4.54543C22.5625 4.25617 22.8146 4.04956 23.0667 4.04956C23.3188 4.04956 23.5709 4.29749 23.5709 4.54543V54.2975C23.6129 54.6281 23.3608 54.8347 23.0667 54.8347Z" fill="white"/>
<path d="M27.3518 52.9339C27.0577 52.9339 26.8477 52.686 26.8477 52.438V6.44631C26.8477 6.15705 27.0997 5.95044 27.3518 5.95044C27.6039 5.95044 27.856 6.19837 27.856 6.44631V52.438C27.856 52.7273 27.646 52.9339 27.3518 52.9339Z" fill="white"/>
<path d="M31.637 51.0331C31.3429 51.0331 31.1328 50.7851 31.1328 50.5372V8.34713C31.1328 8.05787 31.3849 7.85126 31.637 7.85126C31.8891 7.85126 32.1412 8.09919 32.1412 8.34713V50.5372C32.1412 50.8265 31.9311 51.0331 31.637 51.0331Z" fill="white"/>
<path d="M8.82309 8.26447V23.3471L6.34416 20.4959L3.86523 25.7851V12.3141L8.82309 8.26447Z" fill="#2E4A5B"/>
</svg>
