<svg width="80" height="123" viewBox="0 0 80 123" fill="none" xmlns="http://www.w3.org/2000/svg">
<path d="M14.0325 92.3149C15.6063 96.4328 20.3276 103.075 28.8522 105.731L28.3276 108.388C22.2948 105.466 16.262 99.7537 14.0325 92.3149Z" fill="white" fill-opacity="0.4"/>
<path d="M29.1145 108.654C34.0981 110.779 37.1145 110.912 39.4751 111.045L38.8194 106.661C38.8194 106.661 34.0981 107.193 29.7702 105.997L29.1145 108.654Z" fill="white" fill-opacity="0.4"/>
<path d="M40.3932 111.046C40.7866 111.046 45.2456 111.178 50.3604 109.186L47.9997 103.607C47.9997 103.607 44.9833 105.732 39.7374 106.529L40.3932 111.046Z" fill="white" fill-opacity="0.4"/>
<path d="M61.5079 101.347C61.2456 102.011 57.1801 106.262 51.803 108.653L49.0489 102.941C49.0489 102.941 52.4587 101.081 55.8686 96.2989L61.5079 101.347Z" fill="white" fill-opacity="0.4"/>
<path d="M62.9505 99.4891C63.8685 98.4264 67.803 93.2458 68.3276 84.7443L59.6718 85.5413C59.1472 88.7294 58.7538 91.1204 56.7866 94.3085L62.9505 99.4891Z" fill="white" fill-opacity="0.4"/>
<path d="M59.9342 82.8846L68.4587 81.9547C68.4587 81.9547 68.4587 74.5159 64.262 68.1398L58.0981 73.5861C57.9669 73.7189 59.6719 76.7741 59.9342 82.8846Z" fill="white" fill-opacity="0.4"/>
<path d="M64.9177 56.8485L62.6882 32.6723L62.0325 62.1619C67.4095 67.6082 70.6882 75.047 70.6882 83.1499C70.6882 99.7544 57.18 113.304 40.3932 113.304C23.6063 113.304 9.96693 99.8873 9.96692 83.1499C9.96692 74.5156 13.6391 66.6783 19.5407 61.232L18.3604 56.0514L17.0489 50.738C16.7866 50.6052 16.5243 50.6052 16.1309 51.0037L10.885 55.7858C10.4915 56.1843 10.3604 56.7156 10.6227 57.247L12.9833 61.232C12.0653 62.4276 11.1473 63.6231 10.4915 64.8186L6.16365 63.8888C5.50791 63.7559 4.98332 64.0216 4.72102 64.5529L2.22922 70.2649C1.96692 70.7962 2.22922 71.3276 2.62266 71.5932L6.42594 74.2499C5.63906 77.0395 5.24561 79.829 5.24561 82.7514L1.04889 84.2126C0.524302 84.3455 0.130859 85.0096 0.130859 85.541L0.917745 91.6514C1.04889 92.1828 1.44234 92.5813 1.96693 92.5813L6.55709 92.847C7.34397 95.6365 8.5243 98.2932 9.96693 100.684L7.08168 104.005C6.68824 104.404 6.68824 105.201 7.08168 105.599L10.885 110.647C11.2784 111.045 11.803 111.178 12.3276 110.913L16.3932 108.787C17.9669 110.248 19.6718 111.577 21.5079 112.639L20.5899 116.89C20.4587 117.422 20.721 118.086 21.3768 118.351L27.1473 120.742C27.6718 121.008 28.1964 120.742 28.4587 120.344L30.9505 116.757C33.7046 117.554 36.5899 117.953 39.6063 118.086L41.0489 122.071C41.3112 122.602 41.8358 123.001 42.4915 122.868L48.5243 122.071C49.0489 121.938 49.4423 121.539 49.4423 121.008L49.7046 117.023C52.721 116.226 55.4751 115.031 57.9669 113.437L60.9833 115.96C61.3768 116.359 62.0325 116.359 62.4259 115.96L67.2784 112.108C67.803 111.71 67.9341 111.045 67.6718 110.514L65.8358 107.06C67.4096 105.334 68.721 103.607 69.9014 101.614L73.9669 102.411C74.4915 102.544 75.0161 102.278 75.2784 101.747L77.6391 96.035C77.9014 95.5037 77.6391 94.8395 77.1145 94.441L73.8358 92.1828C74.6227 89.3932 75.0161 86.338 75.0161 83.2828L78.9505 81.8216C79.4751 81.6887 79.7374 81.1574 79.7374 80.6261L78.8194 74.5156C78.6882 73.8514 78.2948 73.4529 77.6391 73.4529L73.5735 73.1873C72.7866 70.2649 71.6063 67.6082 70.1636 64.8186L72.7866 61.6305C73.18 61.232 73.18 60.5679 72.7866 60.1693L68.8522 55.3873C68.4587 54.8559 67.803 54.7231 67.2784 55.1216L64.9177 56.8485Z" fill="white" fill-opacity="0.4"/>
<path d="M34.8399 0.861192L33.5995 1.09195L36.3058 3.74553L36.0803 4.78391L35.0655 5.01465L32.3591 2.36105L32.1336 3.63017C31.9081 4.78391 32.2464 5.93764 33.1485 6.74525C33.8251 7.4375 34.7272 7.78362 35.6293 7.78362C36.1931 7.78362 36.7569 8.01437 37.0952 8.36049L45.7779 17.0135C46.1162 17.3596 46.3417 17.9365 46.3417 18.5134V18.8595C46.4545 19.6671 46.7928 20.4747 47.3566 21.0516C48.1459 21.8592 49.3863 22.2053 50.514 21.9746L51.8671 21.7438L49.1608 19.0902L49.3863 18.0519L50.4012 17.8211L53.1075 20.4747L53.333 19.2056C53.333 18.9749 53.333 18.7441 53.333 18.6287C53.333 17.7058 52.9948 16.7828 52.3182 16.0905C51.6416 15.3983 50.7395 15.0522 49.8374 15.0522C49.2736 15.0522 48.7098 14.8214 48.3715 14.4753L39.6887 5.82226C39.3504 5.47614 39.1249 4.89927 39.1249 4.3224C39.1249 3.39941 38.7866 2.47643 38.1101 1.78418C37.2079 0.976568 36.0803 0.630445 34.8399 0.861192Z" fill="white" fill-opacity="0.4"/>
<path d="M47.2438 1.78418C46.68 2.36105 46.3417 3.16868 46.229 3.97629V4.3224C46.229 4.89927 46.0035 5.36077 45.6652 5.82226L36.9824 14.4753C36.6441 14.8214 36.0803 15.0522 35.5165 15.0522C34.6144 15.0522 33.7123 15.3983 33.0357 16.0905C32.2464 16.8981 31.9081 18.0519 32.0209 19.2056L32.2464 20.4747L34.9527 17.8211L35.9676 18.0519L36.1931 19.0902L33.4868 21.7438L34.8399 21.9746C35.9676 22.2053 37.0952 21.8592 37.9973 21.0516C38.6739 20.3593 39.0122 19.4364 39.0122 18.5134C39.0122 17.9365 39.2377 17.475 39.576 17.0135L48.2587 8.36049C48.597 8.01437 49.1608 7.78362 49.7246 7.78362C50.6267 7.78362 51.5288 7.4375 52.2054 6.74525C52.882 6.05301 53.2203 5.13003 53.2203 4.20704C53.2203 3.97629 53.2203 3.74554 53.2203 3.63017L52.9948 2.36105L50.2884 5.01465L49.2736 4.78391L49.0481 3.74553L51.6416 1.09195L50.4012 0.861191C49.2736 0.630444 48.0332 0.976568 47.2438 1.78418Z" fill="white" fill-opacity="0.4"/>
<path d="M53.333 30.1282C53.333 31.1219 53.113 31.9401 52.673 32.583C52.233 33.1967 51.749 33.5036 51.221 33.5036L34.457 33.5036C33.841 33.5036 33.3424 33.1967 32.961 32.583C32.5797 31.9401 32.389 31.1219 32.389 30.1282C32.389 29.1931 32.5797 28.3894 32.961 27.7173C33.3424 27.0451 33.841 26.7091 34.457 26.7091L51.221 26.709C51.749 26.709 52.233 27.0451 52.673 27.7173C53.113 28.3894 53.333 29.1931 53.333 30.1282ZM28.341 30.1282C28.341 31.1219 28.0184 31.9693 27.373 32.6707C26.7277 33.3721 25.9944 33.7228 25.173 33.7228C24.3224 33.7228 23.589 33.3721 22.973 32.6707C22.357 31.9693 22.049 31.1219 22.049 30.1282C22.049 29.1346 22.357 28.3017 22.973 27.6296C23.589 26.9282 24.3224 26.5775 25.173 26.5775C25.9944 26.5775 26.7277 26.9282 27.373 27.6296C28.0184 28.3017 28.341 29.1346 28.341 30.1282Z" fill="white" fill-opacity="0.4"/>
<path d="M53.333 47.4239C53.333 48.3883 53.113 49.1919 52.673 49.8348C52.233 50.4485 51.749 50.7554 51.221 50.7554H34.457C33.841 50.7554 33.3424 50.4485 32.961 49.8348C32.5797 49.1919 32.389 48.3883 32.389 47.4239C32.389 46.5764 32.5797 45.8604 32.961 45.2759C33.3424 44.6914 33.841 44.3992 34.457 44.3992H36.085C35.4397 44.107 34.8237 43.6978 34.237 43.1718C33.621 42.6165 33.1224 42.0028 32.741 41.3307C32.3304 40.6293 32.125 39.9133 32.125 39.1827V37.9115C32.125 37.2686 32.4184 36.7133 33.005 36.2457C33.5917 35.7489 34.281 35.5005 35.073 35.5005C35.8944 35.5005 36.5984 35.7489 37.185 36.2457C37.7717 36.7133 38.065 37.2686 38.065 37.9115V39.1827C38.065 39.9718 38.3437 40.7316 38.901 41.4622C39.429 42.1928 40.177 42.7919 41.145 43.2595C42.113 43.727 43.2717 43.9608 44.621 43.9608H51.221C51.749 43.9608 52.233 44.2969 52.673 44.9691C53.113 45.6412 53.333 46.4595 53.333 47.4239Z" fill="white" fill-opacity="0.4"/>
<path d="M53.773 67.5609C53.773 69.0806 53.3037 70.3957 52.365 71.5062C51.397 72.6167 49.9157 73.1719 47.921 73.1719C46.1904 73.1719 44.841 72.7336 43.873 71.8569C42.905 70.9801 42.2304 69.782 41.849 68.2623C41.4677 66.7135 41.277 64.9308 41.277 62.9143V61.3363H40.837C40.3384 61.3363 39.8397 61.4385 39.341 61.6431C38.8424 61.8477 38.4317 62.1838 38.109 62.6513C37.757 63.1189 37.581 63.7765 37.581 64.6239C37.581 65.8221 37.6984 66.7135 37.933 67.2979C38.1677 67.8824 38.417 68.3354 38.681 68.6568C38.9157 68.9783 39.033 69.3436 39.033 69.7527C39.033 70.4833 38.6664 71.0532 37.933 71.4623C37.1997 71.8422 36.437 72.0322 35.645 72.0322C34.941 72.0322 34.325 71.6377 33.797 70.8486C33.269 70.0304 32.8584 69.0514 32.565 67.9116C32.2717 66.7427 32.125 65.6176 32.125 64.5363C32.125 62.1399 32.5357 60.2111 33.357 58.7499C34.1784 57.2888 35.249 56.2221 36.569 55.5499C37.8597 54.8778 39.253 54.5417 40.749 54.5417H51.221C51.8077 54.5417 52.3064 54.8632 52.717 55.5061C53.1277 56.1198 53.333 56.9088 53.333 57.8732C53.333 58.7207 53.1277 59.4367 52.717 60.0212C52.3064 60.6057 51.8077 60.8979 51.221 60.8979H50.253C51.1624 61.6869 51.9837 62.6075 52.717 63.6596C53.421 64.7116 53.773 66.0121 53.773 67.5609ZM48.801 64.6239C48.801 64.1564 48.625 63.6742 48.273 63.1774C47.8917 62.6806 47.393 62.2568 46.777 61.9061C46.161 61.5262 45.4864 61.3363 44.753 61.3363H44.577V61.5116C44.577 62.3299 44.6357 63.1189 44.753 63.8787C44.841 64.6093 45.061 65.2084 45.413 65.676C45.7357 66.1144 46.249 66.3335 46.953 66.3335C47.5984 66.3335 48.0677 66.1728 48.361 65.8513C48.6544 65.5299 48.801 65.1208 48.801 64.6239Z" fill="white" fill-opacity="0.4"/>
<path d="M53.5971 86.3333C53.5971 88.3497 53.2597 90.1762 52.585 91.8128C51.9104 93.4201 50.8104 94.7059 49.2851 95.6703C47.7597 96.6055 45.7357 97.0731 43.2131 97.0731H31.553C29.0304 97.0731 27.0064 96.6055 25.481 95.6703C23.9557 94.7059 22.8557 93.4201 22.181 91.8128C21.5064 90.2055 21.169 88.452 21.169 86.5525C21.169 84.4484 21.521 82.578 22.225 80.9415C22.8997 79.2757 23.8824 77.9607 25.173 76.9963C26.4637 76.0319 28.0477 75.5497 29.925 75.5497C31.245 75.5497 32.125 75.8273 32.565 76.3826C32.9757 76.9378 33.181 77.7999 33.181 78.9689C33.181 79.8748 33.0344 80.6639 32.741 81.336C32.4477 82.0082 31.905 82.3589 31.113 82.3881C30.585 82.3881 30.013 82.4611 29.397 82.6073C28.781 82.7241 28.253 83.0602 27.813 83.6155C27.373 84.1415 27.153 85.0328 27.153 86.2895C27.153 87.5461 27.5197 88.5251 28.253 89.2265C28.957 89.8986 30.057 90.2347 31.553 90.2347H43.2131C44.7091 90.2347 45.8237 89.8986 46.557 89.2265C47.261 88.5251 47.613 87.5607 47.613 86.3333C47.613 85.1059 47.261 84.1415 46.557 83.4401C45.8237 82.7388 44.7091 82.3881 43.2131 82.3881H41.717V84.9744C41.717 85.6173 41.453 86.1287 40.925 86.5086C40.3677 86.8593 39.7517 87.0347 39.077 87.0347C38.4317 87.0347 37.8304 86.8593 37.273 86.5086C36.7157 86.1287 36.437 85.6173 36.437 84.9744V77.61C36.437 76.9378 36.6571 76.4264 37.097 76.0757C37.5077 75.725 38.0064 75.5497 38.593 75.5497H43.2131C45.7357 75.5497 47.7597 76.0319 49.285 76.9963C50.8104 77.9314 51.9104 79.2173 52.585 80.8538C53.2597 82.4904 53.5971 84.3168 53.5971 86.3333Z" fill="white" fill-opacity="0.4"/>
</svg>
