<svg width="38" height="38" viewBox="0 0 38 38" fill="none" xmlns="http://www.w3.org/2000/svg">
<path d="M1.04281 16.071C0.372839 14.2581 -0.10008 12.4059 0.0181497 10.4354C0.0969696 9.21367 0.569889 8.18902 1.47632 7.322C2.42216 6.41557 3.36799 5.43032 4.31383 4.52389C5.53554 3.30219 7.11194 3.30219 8.33364 4.52389C9.08243 5.27268 9.87063 6.06088 10.6194 6.80967C11.3682 7.55846 12.117 8.26784 12.8264 9.01662C14.1269 10.3172 14.1269 11.8541 12.8264 13.1547C11.9199 14.1005 10.9741 15.0069 10.0283 15.9134C9.79181 16.1498 9.7524 16.3469 9.87063 16.6622C10.5012 18.1597 11.3682 19.4603 12.3929 20.7214C14.4028 23.2042 16.728 25.4111 19.4472 27.1452C20.0384 27.4999 20.6689 27.7757 21.2995 28.091C21.6148 28.2487 21.8118 28.2093 22.0877 27.9334C22.9941 26.9875 23.94 26.0417 24.8858 25.0959C26.1075 23.8742 27.6839 23.8742 28.9056 25.0959C30.4032 26.5935 31.9402 28.091 33.4378 29.628C34.6989 30.8891 34.6989 32.4655 33.4378 33.7266C32.5707 34.5937 31.6643 35.4213 30.8761 36.3277C29.6938 37.6282 28.2357 38.0617 26.541 37.9829C24.0976 37.8647 21.8118 37.0371 19.6443 35.973C14.7969 33.6084 10.6194 30.3374 7.15135 26.1994C4.55029 23.1648 2.42216 19.8149 1.04281 16.071ZM37.991 16.9018C37.0914 8.02394 30.0472 0.955477 21.1804 0.0184717C20.11 -0.0946473 19.1714 0.727677 19.1714 1.80407V1.83849C19.1714 2.76052 19.8704 3.5267 20.7873 3.62331C27.9333 4.37621 33.6531 10.0644 34.4155 17.2346C34.5137 18.1589 35.2906 18.8604 36.22 18.8502C37.2644 18.8387 38.0963 17.9409 37.991 16.9018ZM19.1714 8.60742V8.63258C19.1714 9.49188 19.7733 10.2556 20.6202 10.4007C22.3608 10.6988 23.9709 11.5304 25.2405 12.8C26.5101 14.0695 27.3417 15.6797 27.6398 17.4202C27.7849 18.2672 28.5486 18.8691 29.4079 18.8691H29.4237C30.5321 18.8691 31.3927 17.8724 31.1989 16.7811C30.2991 11.714 26.2942 7.70806 21.2522 6.83106C20.1631 6.64162 19.1714 7.50197 19.1714 8.60742Z" fill="#EFB7C1"/>
</svg>
