<svg width="30" height="30" viewBox="0 0 30 30" fill="none" xmlns="http://www.w3.org/2000/svg">
<g clip-path="url(#clip0_2811_125)">
<path d="M26.1865 28.2831C26.1694 28.5489 25.9369 28.75 25.6705 28.75H14.3325C14.1945 28.75 14.0825 28.6381 14.0825 28.5V28C14.0825 27.8619 14.1945 27.75 14.3325 27.75H25.6875C25.9747 27.75 26.2052 27.9918 26.1865 28.2831Z" fill="#EFB7C1"/>
<path d="M25.25 25.3748V26.25C25.25 26.5261 25.0262 26.75 24.75 26.75H14.3325C14.1944 26.75 14.0825 26.6381 14.0825 26.5C14.0825 26.3006 14.1051 26.1288 13.9363 25.9588C13.6151 25.6398 13.0825 25.875 13.0825 26.3317V28.7216C13.0825 29.588 12.3005 30.1665 11.5075 29.9569L10.5 29.6863L9.52125 29.9488C8.67625 30.176 7.9175 29.5608 7.9175 28.7538V26.3295C7.9175 26.0631 7.71637 25.8306 7.45056 25.8136C7.15931 25.7949 6.91749 26.0253 6.91749 26.3125V26.5C6.91749 26.6381 6.80556 26.75 6.66749 26.75H6.52724C6.02305 26.75 5.58862 26.3634 5.56368 25.8599C5.53699 25.3216 5.96737 24.8751 6.49999 24.875C20.1255 24.8725 23.7173 24.8806 24.747 24.8748C25.0243 24.8733 25.25 25.0974 25.25 25.3748Z" fill="#EFB7C1"/>
<path d="M6.66751 27.75H6.50001C5.41219 27.75 4.53056 26.8483 4.56338 25.7533C4.5905 24.8491 5.25157 24.1139 6.10476 23.9236C6.33482 23.8723 6.50001 23.6708 6.50001 23.4351V0.551463C6.50001 0.230963 6.20351 -0.00285029 5.88988 0.0633998C4.56031 0.344275 3.5625 1.52434 3.5625 2.93747V25.8125C3.5625 27.4348 4.87769 28.75 6.50001 28.75H6.66751C6.80557 28.75 6.91751 28.6381 6.91751 28.5V28C6.91751 27.862 6.80557 27.75 6.66751 27.75Z" fill="#EFB7C1"/>
<path d="M21.57 16.9231C21.5081 16.9644 21.3387 16.9963 21.2687 16.9588C21.1478 16.893 21.0962 16.2533 20.5337 15.9706C20.2025 15.8031 19.7731 15.7988 19.4393 15.9581C18.8406 16.2454 18.7411 16.9155 18.6662 17.5681C18.6243 17.9369 18.5718 18.3963 18.3956 18.4944C18.2768 18.56 18.0837 18.5031 18.0193 18.4756C17.8618 18.4081 17.715 18.2213 17.6193 17.9375C17.4396 17.4066 17.5285 16.8975 17.5362 16.5963C17.5453 16.2421 17.476 15.8227 17.3181 15.4262C16.5713 13.5499 18.3508 11.5137 19.9587 12.11C21.0486 12.5096 21.6433 14.1236 21.7781 15.2831C21.8931 16.27 21.6993 16.8381 21.57 16.9231Z" fill="#EFB7C1"/>
<path d="M16.3892 15.7963C15.4331 13.396 17.3962 10.8126 19.6204 11.0177C19.7765 11.0321 19.9062 10.9031 19.8939 10.7468C19.7931 9.45732 19.2287 8.35576 18.2149 7.46688C18.0354 7.30882 17.7469 7.35938 17.6392 7.5825L13.714 15.6751C13.6537 15.7993 13.7061 15.9491 13.8304 16.0094L16.1556 17.1372C16.3159 17.2148 16.5034 17.1046 16.5132 16.9268C16.5263 16.6894 16.5998 16.326 16.3892 15.7963Z" fill="#EFB7C1"/>
<path d="M13.393 16.9088C13.2687 16.8485 13.1192 16.9004 13.0589 17.0246L11.6956 19.8351C11.6069 20.018 11.6835 20.2389 11.8664 20.3276L12.3811 20.5773C12.5642 20.6662 12.7847 20.5899 12.8736 20.4066L14.2369 17.5962C14.2971 17.472 14.2453 17.3224 14.1211 17.2622L13.393 16.9088Z" fill="#EFB7C1"/>
<path d="M24.9375 0H8C7.72375 0 7.5 0.22375 7.5 0.500001V23.375C7.5 23.6513 7.72375 23.875 8 23.875H24.9375C25.7657 23.875 26.4375 23.2032 26.4375 22.375V1.5C26.4375 0.671876 25.7657 0 24.9375 0ZM20.9012 3.37501H22.125C22.4012 3.37501 22.625 3.59888 22.625 3.87501C22.625 4.15113 22.4012 4.37501 22.125 4.37501H20.9012C20.6251 4.37501 20.4012 4.15113 20.4012 3.87501C20.4012 3.59888 20.6251 3.37501 20.9012 3.37501ZM10.375 3.87501C10.375 3.59888 10.5989 3.37501 10.875 3.37501H17.9415C18.2176 3.37501 18.4415 3.59888 18.4415 3.87501C18.4415 4.15113 18.2176 4.37501 17.9415 4.37501H10.875C10.5989 4.37501 10.375 4.15113 10.375 3.87501ZM22.1194 17.7588C21.7907 17.975 21.2307 18.0725 20.7963 17.84C20.2577 17.5511 20.2225 16.9332 20.0838 16.8638C20.0288 16.8357 19.9257 16.8344 19.8713 16.86C19.7469 16.92 19.6925 17.3969 19.66 17.6813C19.5919 18.2782 19.5069 19.0213 18.8813 19.3682C18.4946 19.5837 18.0151 19.562 17.6256 19.395C17.2069 19.215 16.8894 18.8388 16.7013 18.335C16.5273 18.3479 16.2758 18.3068 16.0544 18.2L15.2461 17.8075L13.7737 20.843C13.4436 21.5235 12.6258 21.8073 11.945 21.4772L11.4303 21.2275C10.7513 20.8981 10.4668 20.0778 10.7961 19.3988L16.7395 7.14626C17.1324 6.33426 18.1933 6.11789 18.8745 6.71501C20.3343 7.99439 20.9926 9.68752 20.9032 11.4819C22.0457 12.2682 22.6226 13.885 22.772 15.1675C22.8419 15.7713 22.9188 17.2325 22.1194 17.7588Z" fill="#EFB7C1"/>
</g>
<defs>
<clipPath id="clip0_2811_125">
<rect width="30" height="30" fill="white"/>
</clipPath>
</defs>
</svg>
