<svg width="30" height="30" viewBox="0 0 30 30" fill="none" xmlns="http://www.w3.org/2000/svg">
<path d="M4.25 28.875C4.25 29.4954 4.72933 30 5.31875 30H25.0906C25.3856 30 25.625 29.748 25.625 29.4375V27.75H5.31875C4.72933 27.75 4.25 28.2546 4.25 28.875Z" fill="#EFB7C1"/>
<path d="M11 16.5C11.1593 16.4686 11.5026 16.3524 12.125 15.9685C11.9133 15.7845 11.7152 15.5863 11.5318 15.375C11.1484 15.9976 11.0314 16.341 11 16.5Z" fill="#EFB7C1"/>
<path d="M21.5 7.13195C20.3844 5.76025 18.656 4.875 16.7138 4.875C13.3566 4.875 10.625 7.51256 10.625 10.7537C10.625 12.6289 11.5424 14.2973 12.963 15.375C14.3166 14.439 15.9227 13.0961 17.5338 11.5448C19.1388 9.99029 20.53 8.43844 21.5 7.13195Z" fill="#EFB7C1"/>
<path d="M22.625 4.875C22.4124 4.90643 21.9552 5.02257 21.125 5.40653C21.4074 5.59008 21.6716 5.78866 21.9163 6C22.4276 5.37738 22.5831 5.03396 22.625 4.875Z" fill="#EFB7C1"/>
<path d="M4.25 1.06812V27C4.61938 26.8163 5.0425 26.7031 5.5 26.7031H6.125V0H5.5C4.81062 0 4.25 0.479053 4.25 1.06812Z" fill="#EFB7C1"/>
<path d="M18.2468 12.1216C16.7694 13.5946 15.2904 14.8919 14 15.8532C14.8068 16.2639 15.7168 16.5 16.6824 16.5C19.9588 16.5 22.625 13.8339 22.625 10.5578C22.625 9.59222 22.3883 8.68228 21.9776 7.875C21.0157 9.16481 19.7188 10.6443 18.2463 12.121L18.2468 12.1216Z" fill="#EFB7C1"/>
<path d="M26.2128 0H6.875V26.625H26.2128C26.5094 26.625 26.75 26.3864 26.75 26.0925V0.5325C26.75 0.23856 26.5094 0 26.2128 0ZM18.6926 21.8325H14.3953C14.0982 21.8325 13.8581 21.5945 13.8581 21.3C13.8581 21.0055 14.0982 20.7675 14.3953 20.7675H18.6926C18.9896 20.7675 19.2297 21.0055 19.2297 21.3C19.2297 21.5945 18.9896 21.8325 18.6926 21.8325ZM20.8412 19.7025H12.2466C11.9496 19.7025 11.7095 19.4645 11.7095 19.17C11.7095 18.8755 11.9496 18.6375 12.2466 18.6375H20.8412C21.1383 18.6375 21.3784 18.8755 21.3784 19.17C21.3784 19.4645 21.1383 19.7025 20.8412 19.7025ZM16.5455 17.5709C15.2118 17.5709 13.9693 17.1918 12.9079 16.5464C11.8577 17.2349 11.0815 17.5746 10.5261 17.5746C10.2382 17.5746 10.0088 17.4846 9.82939 17.3068C9.30512 16.7871 9.54792 15.8344 10.5981 14.2582C9.94596 13.206 9.56296 11.9733 9.56296 10.65C9.56296 6.83357 12.6952 3.7291 16.545 3.7291C17.8793 3.7291 19.1234 4.10877 20.1848 4.75523C21.7743 3.71472 22.7358 3.47297 23.2601 3.99322C23.7849 4.5124 23.5415 5.46505 22.4914 7.04178C23.1435 8.094 23.5265 9.32727 23.5265 10.65C23.5265 14.4664 20.3954 17.5709 16.5455 17.5709Z" fill="#EFB7C1"/>
</svg>
