<svg width="30" height="30" viewBox="0 0 30 30" fill="none" xmlns="http://www.w3.org/2000/svg">
<path d="M15.2099 29.878C14.9376 29.8817 14.6396 29.904 14.3725 29.8504C13.7638 29.7282 12.8557 28.9987 12.4294 28.5695C11.2186 27.3504 10.2008 25.4799 9.71569 23.814C8.9961 24.0096 7.88839 24.1819 7.11653 24.2209L6.31925 24.2307C5.06571 24.23 3.71376 24.067 2.74901 23.1848C0.8478 21.4464 2.54896 17.9754 3.74316 16.3038C4.07594 15.838 4.43102 15.3826 4.81735 14.9598C4.77931 14.8875 4.70729 14.8184 4.65443 14.7546L4.2926 14.3177C3.90419 13.8466 3.51933 13.3795 3.18932 12.8644C2.06822 11.1147 0.879487 8.04944 3.0892 6.65772C4.26237 5.91879 6.06671 5.82601 7.45239 5.92002L8.3136 6.01986C8.75429 6.07981 9.18706 6.14813 9.62077 6.2482C9.65933 6.21035 9.67837 6.11602 9.69653 6.06445L10.2459 4.70398C10.9616 3.1318 12.7428 0.229288 14.6891 0.123319C15.2639 0.113477 15.6079 0.145581 16.1281 0.425721C17.8436 1.34942 19.0718 3.42846 19.8103 5.16951C19.9529 5.50558 20.1114 5.8457 20.2158 6.1957C20.9015 6.00738 21.7245 5.93379 22.4401 5.91041C23.753 5.86752 25.138 5.86277 26.3523 6.43213C28.1328 7.26697 28.2693 8.79492 27.7894 10.4736C27.3095 12.1528 26.265 13.6786 25.068 14.9298L26.1816 16.3038C27.1307 17.5538 27.9303 19.13 28.0596 20.7121C28.2464 22.9988 26.6248 24.0618 24.4689 24.2184C23.6748 24.2761 22.8267 24.2418 22.0387 24.1509L20.2066 23.8771C20.1265 24.2914 19.9408 24.706 19.7739 25.0914L19.2475 26.2276C18.4988 27.6568 16.9469 29.7712 15.2099 29.878ZM14.8499 1.0466C12.7821 1.20125 11.1323 4.83841 10.5086 6.46084C11.5319 6.67067 12.6997 7.0926 13.6575 7.4877L14.6843 7.97444C14.7964 8.03754 14.7971 7.99916 14.9165 7.94631L16.0746 7.44733C17.1309 7.02545 18.2082 6.68807 19.3064 6.39615L18.94 5.45226C18.3524 4.10931 16.6305 0.987036 14.8499 1.0466ZM6.5589 6.78451C5.52508 6.7984 3.94256 6.95742 3.16843 7.75606C1.867 9.09873 3.68492 12.1261 4.6239 13.2939L5.47134 14.2532C5.48888 14.2467 5.50006 14.2421 5.51543 14.231L7.88892 12.212C8.1039 12.0453 8.38966 11.8635 8.57581 11.7065C8.64624 10.6226 8.80468 9.5594 9.01708 8.49463L9.24466 7.46994C9.27056 7.35797 9.3237 7.22883 9.33097 7.1175C8.79519 6.97617 8.22595 6.89408 7.67505 6.84258L6.5589 6.78451ZM22.7233 6.78697L20.4901 7.08059L20.8255 8.44037L21.12 10.1907L21.2738 11.5599C21.2761 11.5928 21.2729 11.6551 21.2831 11.6848C21.2832 11.6851 22.0839 12.2693 22.1776 12.3413C22.9609 12.943 23.7074 13.5894 24.4068 14.287L24.6399 14.0138C25.9094 12.5897 27.2307 10.7008 27.1117 8.6966C27.0027 6.86262 24.0369 6.74145 22.7233 6.78697ZM19.5408 7.2876C19.0889 7.39084 18.6465 7.52772 18.2042 7.66494L17.1157 8.02453L15.959 8.50389C16.6943 8.81848 17.3692 9.25406 18.0611 9.65133L20.3029 10.9982L20.0747 9.44139C20.0193 9.10166 19.7658 7.53211 19.5831 7.28461L19.5408 7.2876ZM10.243 7.30412C9.86903 8.48953 9.6898 9.76254 9.54343 10.9945C9.81407 10.865 10.0683 10.6655 10.3242 10.5066L11.7497 9.65145L13.753 8.51584L10.243 7.30412ZM14.8217 8.99309L12.6875 10.1686C11.7065 10.7384 10.7191 11.3054 9.79866 11.9715C9.68933 12.0506 9.53095 12.1351 9.44745 12.238L9.42015 13.0788C9.41669 13.1912 9.39683 13.3015 9.39372 13.4143L9.39232 16.333L9.48015 17.6068C9.48525 17.6622 9.48437 17.7315 9.50458 17.7836L14.8888 21.0248L15.0534 20.9408L18.1887 19.1797L20.1637 17.8901C20.6033 17.5802 20.4324 17.8449 20.5042 17.335C20.5316 17.1396 20.5297 16.9344 20.5319 16.7371L20.5291 13.8223L20.4143 12.2093C20.3389 12.1426 20.2621 12.1041 20.1797 12.0482L17.7687 10.5465L15.6787 9.39299C15.405 9.25828 15.1102 9.08783 14.8217 8.99309ZM21.3679 12.9086L21.4452 16.9343L22.6784 15.9277L23.714 14.953C23.1258 14.2669 22.139 13.3957 21.3679 12.9086ZM8.47046 12.9712C8.25044 13.0974 8.05603 13.253 7.85985 13.4103L7.03872 14.1062C6.73087 14.379 6.41388 14.6478 6.12841 14.9443L7.23665 15.9715L8.00429 16.6034C8.14638 16.7161 8.38222 16.8561 8.48769 16.9884L8.47046 12.9712ZM5.45609 15.6226C5.08772 16.0864 4.69585 16.5211 4.35206 17.0061C3.50087 18.2069 2.66425 19.9907 2.83822 21.4567C3.0523 23.2605 5.39512 23.3061 6.77657 23.304C7.66087 23.2792 8.52419 23.1295 9.39079 22.961C9.21753 22.3431 9.0939 21.7245 8.97905 21.0938L8.73601 19.6454C8.67694 19.2328 8.61073 18.8118 8.5887 18.3958C8.57505 18.1375 8.62673 18.2136 8.41567 18.0753L7.80501 17.6331C7.25335 17.214 6.73433 16.7539 6.21929 16.2911L5.7334 15.8333C5.67683 15.7795 5.53832 15.5974 5.45609 15.6226ZM24.3904 15.6055C23.6858 16.3249 22.9169 16.9575 22.1338 17.588L21.4534 18.0928C21.2797 18.2143 21.3492 18.3342 21.3253 18.5669L20.8281 21.7944L20.6192 22.7196C20.6002 22.8053 20.5587 22.9052 20.5554 22.9914C21.4812 23.1891 22.4159 23.3278 23.3633 23.3497C24.9623 23.3513 27.1822 23.0844 27.1814 21.0124C27.1807 19.138 25.6659 16.9008 24.3904 15.6055ZM20.3389 18.8892C19.2659 19.6515 18.0992 20.3047 16.9603 20.9623L16.2458 21.3473C16.144 21.4001 15.9954 21.4535 15.9116 21.5269L16.8642 21.8904L17.9462 22.3218C18.4971 22.5163 19.0644 22.673 19.6337 22.8029C19.7602 22.3723 19.8531 21.9313 19.9446 21.492L20.3732 18.8892C20.3462 18.8871 20.3576 18.8861 20.3389 18.8892ZM9.55626 18.9222L9.73198 20.159C9.87027 21.0335 10.0522 21.8866 10.2972 22.7374L12.9384 21.861L13.8166 21.4847C13.6276 21.4219 13.4525 21.3127 13.2789 21.2163L10.4065 19.4921C10.1237 19.3123 9.81273 19.1376 9.55626 18.9222ZM14.8203 22.0386C14.6397 22.1065 14.4681 22.1963 14.2922 22.2753L13.3098 22.7051C12.4331 23.0758 11.507 23.3866 10.5859 23.6244C10.8147 24.222 11.0363 24.8119 11.3131 25.3902C11.8861 26.5876 13.0656 28.2995 14.341 28.8727C14.6073 28.9924 14.8611 29.0091 15.1482 28.9859C16.8262 28.7129 18.2646 26.3103 18.873 24.9107L19.3769 23.6762C18.5533 23.4932 18.0038 23.3164 17.2162 23.0122L14.9608 22.0727C14.8977 22.0428 14.8883 22.0308 14.8203 22.0386Z" fill="#EFB7C1"/>
<path d="M15.231 18.4173C13.5149 18.6039 11.7795 17.1903 11.5844 15.4866C11.3645 13.5661 12.7178 11.7691 14.6745 11.5635L14.6775 11.5629C17.6979 11.3088 19.4993 14.958 17.6099 17.1559C16.9943 17.872 16.1842 18.3455 15.231 18.4173Z" fill="#EFB7C1"/>
</svg>
