<svg width="30" height="30" viewBox="0 0 30 30" fill="none" xmlns="http://www.w3.org/2000/svg">
<g clip-path="url(#clip0_2811_152)">
<path d="M29.3374 28.2396L29.299 28.2299L28.5087 25.0696C28.4483 24.8277 28.2878 24.6229 28.0673 24.5062C27.7338 24.3296 20.0876 20.349 15 23.304C9.91214 20.3489 2.26623 24.3295 1.93266 24.5062C1.71224 24.6229 1.55175 24.8277 1.49128 25.0696L0.700981 28.2299L0.662603 28.2396C0.19216 28.3592 -0.0922504 28.8375 0.0272792 29.308C0.128411 29.7058 0.486003 29.9706 0.878459 29.9706C0.950118 29.9706 1.02295 29.9617 1.0956 29.9433L10.9077 27.4492C11.6974 28.9495 13.2534 29.9118 14.9999 29.9118C16.7465 29.9118 18.3025 28.9496 19.0922 27.4492L28.9043 29.9433C28.9769 29.9617 29.0497 29.9706 29.1214 29.9706C29.5138 29.9706 29.8715 29.7057 29.9726 29.308C30.0923 28.8375 29.8078 28.3592 29.3374 28.2396Z" fill="#EFB7C1"/>
<path d="M2.9841 21.4574C3.01481 21.4514 4.11313 21.2416 5.63005 21.1898C7.10014 20.7781 8.79858 20.4581 10.5278 20.4581H10.5289C11.1141 20.4581 11.6793 20.4958 12.2242 20.569C11.0144 19.9948 9.57499 19.6288 7.92747 19.4856C5.13868 19.243 2.74071 19.7135 2.63999 19.7336C2.16427 19.8288 1.85596 20.2913 1.9507 20.7671C2.04556 21.2429 2.5081 21.5518 2.9841 21.4574Z" fill="#EFB7C1"/>
<path d="M19.4705 20.4582C21.2 20.4582 22.8985 20.7781 24.3687 21.1898C25.8861 21.2417 26.9847 21.4514 27.0154 21.4575C27.4914 21.5527 27.9539 21.2437 28.049 20.7679C28.1442 20.2919 27.8355 19.8289 27.3595 19.7337C27.2587 19.7136 24.8606 19.2429 22.072 19.4856C20.4246 19.6289 18.9852 19.9948 17.7754 20.569C18.3203 20.4957 18.8855 20.4582 19.4705 20.4582Z" fill="#EFB7C1"/>
<path d="M25.0781 3.89656H25.8398V4.65827C25.8398 5.14365 26.2333 5.53716 26.7187 5.53716C27.2041 5.53716 27.5976 5.14365 27.5976 4.65827V3.89656H28.3593C28.8447 3.89656 29.2382 3.50305 29.2382 3.01767C29.2382 2.53228 28.8447 2.13877 28.3593 2.13877H27.5976V1.37706C27.5976 0.891679 27.2041 0.498169 26.7187 0.498169C26.2333 0.498169 25.8398 0.891679 25.8398 1.37706V2.13877H25.0781C24.5927 2.13877 24.1992 2.53228 24.1992 3.01767C24.1992 3.50305 24.5927 3.89656 25.0781 3.89656Z" fill="#EFB7C1"/>
<path d="M19.688 17.2559C19.8007 17.2559 19.9152 17.2341 20.0257 17.1881L25.6507 14.8444C26.0987 14.6577 26.3106 14.1431 26.1239 13.6951C25.9371 13.2471 25.4226 13.0349 24.9746 13.2219L19.3496 15.5656C18.9016 15.7523 18.6897 16.2668 18.8764 16.7149C19.017 17.0524 19.3438 17.2559 19.688 17.2559Z" fill="#EFB7C1"/>
<path d="M16.6716 16.2944C16.7401 16.3106 16.8085 16.3185 16.8759 16.3185C17.2735 16.3185 17.634 16.0467 17.7301 15.643L20.0738 5.79936C20.1863 5.3271 19.8946 4.85326 19.4225 4.74082C18.95 4.62844 18.4764 4.92006 18.3639 5.3922L16.0202 15.2358C15.9078 15.708 16.1994 16.1819 16.6716 16.2944Z" fill="#EFB7C1"/>
<path d="M12.255 15.5637C12.3176 16.0021 12.6936 16.3184 13.124 16.3184C13.1654 16.3184 13.2073 16.3155 13.2494 16.3095C13.7299 16.2408 14.0638 15.7956 13.9952 15.3151L13.0577 8.75272C12.9891 8.2722 12.5433 7.93816 12.0633 8.00689C11.5828 8.07556 11.249 8.52075 11.3175 9.00127L12.255 15.5637Z" fill="#EFB7C1"/>
<path d="M3.12852 10.1304C2.78528 10.4736 2.78528 11.0301 3.12852 11.3734L8.75345 16.9983C8.92506 17.1699 9.15 17.2557 9.37488 17.2557C9.59976 17.2557 9.82476 17.1699 9.99632 16.9983C10.3396 16.6551 10.3396 16.0986 9.99632 15.7554L4.3714 10.1304C4.02828 9.78725 3.47176 9.78725 3.12852 10.1304Z" fill="#EFB7C1"/>
<path d="M22.9688 9.75574C23.4542 9.75574 23.8477 9.36224 23.8477 8.87683C23.8477 8.39142 23.4542 7.99792 22.9688 7.99792C22.4833 7.99792 22.0898 8.39142 22.0898 8.87683C22.0898 9.36224 22.4833 9.75574 22.9688 9.75574Z" fill="#EFB7C1"/>
<path d="M15 4.59961C15.4854 4.59961 15.8789 4.20611 15.8789 3.7207C15.8789 3.2353 15.4854 2.8418 15 2.8418C14.5146 2.8418 14.1211 3.2353 14.1211 3.7207C14.1211 4.20611 14.5146 4.59961 15 4.59961Z" fill="#EFB7C1"/>
<path d="M1.40625 16.7871C1.89166 16.7871 2.28516 16.3936 2.28516 15.9082C2.28516 15.4228 1.89166 15.0293 1.40625 15.0293C0.920844 15.0293 0.527344 15.4228 0.527344 15.9082C0.527344 16.3936 0.920844 16.7871 1.40625 16.7871Z" fill="#EFB7C1"/>
<path d="M2.81246 5.53716C4.33338 5.53716 5.56633 4.30421 5.56633 2.78329C5.56633 1.26237 4.33338 0.0294189 2.81246 0.0294189C1.29154 0.0294189 0.0585938 1.26237 0.0585938 2.78329C0.0585938 4.30421 1.29154 5.53716 2.81246 5.53716Z" fill="#EFB7C1"/>
</g>
<defs>
<clipPath id="clip0_2811_152">
<rect width="30" height="30" fill="white"/>
</clipPath>
</defs>
</svg>
