<svg width="30" height="30" viewBox="0 0 30 30" fill="none" xmlns="http://www.w3.org/2000/svg">
<path fill-rule="evenodd" clip-rule="evenodd" d="M13.2601 19.9937C13.6446 20.2369 14.0223 20.4581 14.4298 20.6107C14.4625 20.5242 14.4265 20.4795 14.3934 20.4385C14.3852 20.4283 14.3771 20.4182 14.3703 20.4078C13.6199 19.2547 13.0367 17.9993 12.6622 16.6185C12.6079 16.4182 12.5356 16.3602 12.3458 16.3747C11.5534 16.435 10.8064 16.2541 10.183 15.6464C9.36224 14.8462 9.01181 13.809 9.0927 12.569C9.18429 11.1645 9.73359 10.0302 10.6269 9.11446C11.3644 8.35846 12.2379 7.8962 13.1914 7.63647C13.5014 7.55203 13.8129 7.4684 14.1336 7.45672C14.2113 7.45389 14.2654 7.40394 14.32 7.35359L14.3341 7.34066C14.338 7.33705 14.342 7.33344 14.346 7.3299C15.4561 6.34048 16.7102 5.75781 18.0989 5.59926C18.3809 5.56706 18.5001 5.45988 18.6115 5.17055C18.9966 4.17091 19.6778 3.5901 20.5997 3.36752C22.0228 3.02389 23.4774 4.02529 23.8776 5.63119C23.9696 6.00036 23.9954 6.37545 23.9707 6.75286C23.9566 6.96831 24.0163 7.10226 24.1662 7.22436C25.2146 8.07868 26.0369 9.17076 26.6596 10.4676C26.7662 10.6896 26.8626 10.9189 26.9532 11.1504C26.9955 11.2586 27.0508 11.2966 27.1521 11.3033C28.4258 11.3884 29.4481 12.4707 29.6504 13.9483C29.8247 15.2211 29.5428 16.3225 28.7217 17.2133C28.4176 17.5433 28.0496 17.7438 27.6545 17.8744C27.5249 17.9173 27.4593 17.9858 27.4228 18.1404C27.1597 19.2541 26.7948 20.3169 26.2434 21.2864C25.4411 22.697 24.4022 23.8098 23.1382 24.6426C22.3464 25.1643 21.5117 25.5706 20.6285 25.8897C20.6767 25.9336 20.7222 25.9297 20.7643 25.9261C20.7714 25.9255 20.7784 25.9249 20.7853 25.9246C20.7894 25.9243 20.7935 25.9242 20.7976 25.9242C21.2356 25.9254 21.6737 25.9258 22.1117 25.9262C22.5692 25.9266 23.0268 25.927 23.4843 25.9283C23.7453 25.929 23.8902 26.0567 23.9017 26.285C23.9129 26.5071 23.8038 26.6655 23.6138 26.6925C23.5558 26.7008 23.4968 26.7001 23.4379 26.6994C23.4214 26.6992 23.405 26.699 23.3886 26.699C17.5707 26.6992 11.7527 26.6992 5.93475 26.699C5.91161 26.699 5.88845 26.6992 5.86528 26.6995C5.7944 26.7003 5.72342 26.7012 5.6531 26.6942C5.48159 26.6773 5.3617 26.5343 5.349 26.3432C5.33476 26.1291 5.4116 26.0016 5.59927 25.9494C5.6711 25.9294 5.74796 25.9284 5.82254 25.9282C6.34281 25.9265 6.86305 25.9262 7.38332 25.9259L7.83281 25.9256H7.83337C7.87398 25.9255 7.91459 25.9255 7.95749 25.9104C7.14028 25.5688 6.37122 25.1259 5.653 24.5645C5.00347 24.0568 4.43968 23.4415 3.94925 22.7346C3.87971 22.6343 3.79702 22.5691 3.69676 22.5187C2.1708 21.7504 1.07144 20.488 0.542792 18.6467C0.104189 17.1191 0.239526 15.6416 1.11123 14.3309C1.50459 13.7394 2.02753 13.3755 2.68246 13.2906C3.15067 13.2298 3.39315 13.5209 3.29871 14.0476C2.9306 16.0998 3.07848 18.1065 3.80386 20.021C4.59158 22.1 5.94656 23.5339 7.74452 24.4094C7.80349 24.4381 7.80755 24.4373 7.90398 24.4197L7.92169 24.4164C7.91527 24.3354 7.86897 24.2868 7.82375 24.2393C7.80968 24.2245 7.79573 24.2099 7.7831 24.1944C6.96227 23.1875 6.33195 22.0429 5.95327 20.7241C5.70137 19.8469 5.61668 18.9508 5.84211 18.0445C6.13165 16.8807 7.02526 16.1137 8.06289 16.0993C9.00811 16.0863 9.75918 16.5773 10.4352 17.2796C10.6668 17.5202 10.8916 17.7696 11.1164 18.0189C11.4848 18.4276 11.8533 18.8363 12.2517 19.2066C12.5653 19.498 12.9038 19.7471 13.2601 19.9937ZM13.2664 13.5083C13.2698 13.5449 13.2739 13.5814 13.2779 13.6179C13.2866 13.6967 13.2954 13.7755 13.2983 13.8546C13.33 14.7255 13.5019 15.5626 13.751 16.3801C14.4298 18.6077 15.5843 20.4377 17.1946 21.8735C18.1873 22.7586 19.2799 23.3862 20.549 23.5397C21.6489 23.6727 22.6651 23.4111 23.5914 22.7145C24.5656 21.982 25.2446 20.9447 25.7492 19.7527C26.4736 18.041 26.7373 16.2289 26.5496 14.3313C26.3918 12.7372 25.9321 11.271 25.0827 10.0032C23.8874 8.21907 22.2995 7.17506 20.3807 6.83011C19.1102 6.6017 17.8589 6.72515 16.6531 7.26341C15.2965 7.86903 14.2731 8.89935 13.698 10.4808C13.3505 11.4368 13.2564 12.4414 13.2664 13.5083ZM5.47273 7.03125C6.38077 6.3229 7.3663 5.92946 8.4452 5.83783C9.60597 5.73925 10.6772 6.05457 11.6739 6.73869C11.7978 6.8237 11.9202 6.91371 12.0135 7.04482C12.1852 7.28623 12.0976 7.61659 11.8386 7.70242C11.6914 7.75122 11.5402 7.74538 11.3897 7.73957L11.3532 7.73819C10.0183 7.68986 8.72299 7.92782 7.47511 8.48242C6.07389 9.10522 4.87435 10.0609 3.9308 11.4298C3.89932 11.4755 3.86551 11.5189 3.83168 11.5624C3.81093 11.5891 3.79015 11.6158 3.76993 11.643C3.66138 11.7889 3.53677 11.8882 3.36079 11.8238C3.18964 11.7611 3.07066 11.5723 3.05813 11.3445C3.04019 11.0181 3.12118 10.7105 3.20676 10.4073C3.57044 9.11932 4.27757 8.12104 5.17445 7.28589C5.23924 7.22551 5.30695 7.16932 5.37842 7.11002C5.40911 7.08454 5.44059 7.05846 5.47273 7.03125ZM21.0377 20.7985C21.8677 21.2234 22.7081 20.9179 23.2972 20.0138C23.8775 18.9951 24.1486 17.9023 23.8886 16.7126C23.7077 15.8851 23.2393 15.3083 22.5083 15.0883C21.7922 14.8727 21.1567 15.0845 20.6694 15.7267C19.9498 16.6749 19.7155 17.8089 19.9023 19.0376C20.0219 19.8241 20.387 20.4654 21.0377 20.7985ZM21.7642 17.2655C21.6758 17.085 21.5711 16.9431 21.3777 16.9338C21.3369 16.9307 21.296 16.9351 21.2569 16.9394C21.1522 16.9508 21.0601 16.9608 21.0168 16.8214C20.9562 16.6265 21.0559 16.483 21.1782 16.3702C21.3954 16.1702 21.6417 16.1402 21.8826 16.2865C22.115 16.4276 22.2392 16.6656 22.2283 16.9827C22.2244 17.0959 22.1913 17.1971 22.1346 17.2862C22.0178 17.4701 21.8619 17.4647 21.7642 17.2655ZM18.6681 9.63861C19.2732 9.90236 19.6914 10.357 19.8765 11.0725C20.0775 11.8495 19.8383 12.6731 19.2019 13.1936C18.3294 13.9073 17.3558 14.162 16.318 13.8092C15.6557 13.5841 15.2056 13.0444 15.0582 12.2488C14.9084 11.4403 15.1373 10.7566 15.6983 10.2401C16.189 9.78836 16.7653 9.59515 17.3774 9.50622C17.813 9.44294 18.2365 9.4806 18.6681 9.63861ZM18.4331 12.2845L18.4331 12.2849C18.4399 12.3187 18.4467 12.3525 18.4552 12.3857C18.5125 12.6104 18.6561 12.6599 18.8088 12.5038C18.95 12.3595 18.9692 12.1664 18.9532 11.964C18.9138 11.4647 18.3616 11.143 18.0167 11.4192C17.9079 11.5064 17.8285 11.6229 17.8578 11.7855C17.8842 11.931 17.9913 11.9432 18.0948 11.955L18.1105 11.9568C18.2509 11.9734 18.3608 12.0442 18.4236 12.2382C18.4269 12.2536 18.43 12.2691 18.4331 12.2845ZM19.1474 16.9626C19.4972 16.9341 19.6922 16.7459 19.7308 16.3701C19.7515 16.0876 19.66 15.8648 19.5305 15.6641C19.3314 15.3553 19.1139 15.0635 18.8713 14.799C18.7114 14.6247 18.5482 14.4525 18.3498 14.3378C17.9332 14.0968 17.5926 14.2857 17.4824 14.8102C17.46 14.9173 17.4484 15.0235 17.4481 15.1333C17.4474 15.4311 17.4469 15.7275 17.4822 16.0249C17.5131 16.2856 17.3549 16.4139 17.1396 16.3256C16.9592 16.2516 16.8567 16.0924 16.8029 15.888C16.7865 15.8259 16.7776 15.7611 16.7687 15.6964C16.7658 15.6748 16.7628 15.6532 16.7596 15.6317C16.7438 15.5275 16.6942 15.4641 16.6044 15.4382C16.5084 15.4106 16.4306 15.4424 16.369 15.5268C16.3102 15.6075 16.289 15.7045 16.2843 15.8096C16.2609 16.3316 16.5694 16.8639 17.0166 16.9911C17.2131 17.047 17.2702 17.157 17.3034 17.3608C17.3885 17.8837 17.8085 18.2589 18.2515 18.2265C18.4032 18.2154 18.5226 18.1513 18.5334 17.9491C18.5442 17.7482 18.4407 17.6652 18.2849 17.6357C17.9722 17.5762 17.824 17.3588 17.8502 17.0044C17.8685 16.756 17.9611 16.6788 18.1572 16.774C18.4758 16.9288 18.8039 16.9905 19.1474 16.9626Z" fill="#EFB7C1"/>
</svg>
