<svg width="30" height="30" viewBox="0 0 30 30" fill="none" xmlns="http://www.w3.org/2000/svg">
<path fill-rule="evenodd" clip-rule="evenodd" d="M6.96121 11.13C8.21386 11.13 9.22933 12.1455 9.22933 13.3983C9.22933 14.6511 8.21386 15.6667 6.96121 15.6667C5.70856 15.6667 4.6931 14.6511 4.6931 13.3983C4.69303 12.1455 5.70856 11.13 6.96121 11.13ZM16.9581 0.602879C17.4827 0.931259 17.9198 1.37547 18.242 1.90619L18.2895 1.98436C18.2998 2.00131 18.3018 2.02 18.2955 2.03876C18.2891 2.05752 18.2761 2.07107 18.2577 2.0783C17.9404 2.20177 17.6997 2.27598 17.3267 2.28654C16.0685 2.32212 14.9854 1.4107 14.799 0.164713L14.7855 0.0742453C14.7825 0.0546508 14.7879 0.0365155 14.8011 0.0217154C14.8143 0.00684587 14.8316 -0.000588929 14.8514 3.64257e-05C15.6812 0.0251896 16.2024 0.162976 16.96 0.599821L16.9581 0.602879ZM16.5158 5.50844L16.5153 5.50816C16.9946 4.68818 17.2673 4.01655 17.474 3.1043C17.4803 3.07685 17.5023 3.05726 17.5303 3.05427C17.9693 3.00751 18.1782 2.949 18.5717 2.79162C18.5894 2.78453 18.6074 2.78523 18.6245 2.79371C18.6416 2.80218 18.653 2.81608 18.6581 2.83449L18.724 3.07435C18.7242 3.07498 18.7243 3.07553 18.7245 3.07616C19.2787 5.35009 17.905 7.73318 15.6582 8.38987C15.0488 8.56803 14.4045 8.60763 13.7792 8.49458L13.5611 8.45518C13.5335 8.45018 13.5131 8.42934 13.5087 8.40168C13.5043 8.37403 13.5172 8.34783 13.5419 8.33456C13.9895 8.09338 14.2993 7.91786 14.7509 7.55391C15.4551 6.98629 16.0504 6.28346 16.5158 5.50844ZM11.4693 7.16244L11.6124 7.33156C11.6305 7.35296 11.6588 7.36019 11.685 7.35018C11.7111 7.34018 11.7273 7.31579 11.7264 7.28785L11.7198 7.06641C11.6788 5.70953 12.0824 4.34153 12.7572 3.17253C13.1886 2.42523 13.6631 1.84358 14.2884 1.26575C14.3091 1.24665 14.315 1.21781 14.3036 1.19203C14.1245 0.787914 14.0713 0.577795 14.0113 0.157626C14.0086 0.138796 13.9991 0.123648 13.9834 0.113087C13.9676 0.102456 13.95 0.0993983 13.9315 0.103984L13.8477 0.124899C12.6762 0.417704 11.6829 1.19808 11.0878 2.24513C10.2009 3.80567 10.3066 5.78853 11.4693 7.16244ZM15.8409 5.11878L15.843 5.12003C16.2706 4.37884 16.4784 3.88064 16.6812 3.08491C16.6856 3.0674 16.6831 3.05073 16.6737 3.0353C16.6644 3.01988 16.6507 3.01001 16.6331 3.00591C15.8384 2.82129 15.3524 2.54044 14.7946 1.94475C14.7823 1.93162 14.767 1.92474 14.749 1.92425C14.731 1.92384 14.7153 1.92995 14.7024 1.94246L14.645 1.99805C13.5701 3.03947 12.7966 4.4928 12.5666 5.96738C12.4611 6.64388 12.4749 7.15285 12.5793 7.80502C12.5825 7.82483 12.5933 7.8406 12.6107 7.85074C12.628 7.86082 12.6471 7.86249 12.6658 7.85547L12.7534 7.82274C14.0526 7.33747 15.1335 6.29201 15.8409 5.11878ZM28.1998 16.7893V16.8456C28.1998 17.2821 27.8439 17.638 27.4076 17.638H25.556C25.5545 17.638 25.5532 17.638 25.5517 17.6381C24.5744 17.7024 24.1207 18.5294 24.1496 19.9865C24.1496 19.9871 24.1497 19.9877 24.1497 19.9883L24.3895 24.9982C24.3903 25.0163 24.3845 25.0321 24.3722 25.0453C24.3599 25.0585 24.3446 25.0654 24.3265 25.0659C21.4082 25.1403 18.7122 24.6866 16.4951 23.0954C16.4707 23.0779 16.4616 23.0469 16.4727 23.019L18.7482 17.2628C18.749 17.2607 18.7496 17.259 18.7502 17.2568C18.8958 16.7483 18.9085 16.1303 18.7496 15.371C18.7494 15.3699 18.7492 15.3691 18.749 15.3681L17.3761 10.03C17.269 9.61355 17.5147 9.18671 17.9285 9.07005L18.0132 9.04621C18.3927 8.93921 18.7866 9.12237 18.9496 9.4816L20.6805 13.2986C21.2271 14.504 22.2681 15.2808 23.5791 15.4616L27.5159 16.0045C27.9103 16.0588 28.1998 16.391 28.1998 16.7893ZM18.3269 25.4789C18.3196 25.4633 18.3186 25.4475 18.3239 25.4311L18.3887 25.233C18.3995 25.2002 18.3824 25.1647 18.3501 25.1524C17.8814 24.9747 17.4228 24.7651 16.9768 24.5197C16.9594 24.5101 16.9404 24.5089 16.9218 24.5162C16.9033 24.5235 16.8903 24.5374 16.8841 24.5563L16.5619 25.5422C16.5565 25.5586 16.5576 25.5745 16.5649 25.5901L17.7366 28.0671C17.9295 28.4749 18.4209 28.6507 18.8287 28.4578C19.2364 28.2648 19.4123 27.7734 19.2193 27.3656L18.3269 25.4789ZM23.9015 26.0696L24.7462 28.9489C24.8732 29.3818 24.6229 29.8399 24.1901 29.9669C23.7572 30.0939 23.2992 29.8436 23.1722 29.4108L22.1873 26.0536C22.1811 26.0327 22.1853 26.0118 22.199 25.9948C22.2128 25.9778 22.2323 25.9693 22.2541 25.9709C22.7792 26.0095 23.3084 26.0254 23.8391 26.0231C23.8683 26.0231 23.8932 26.0416 23.9015 26.0696ZM23.7665 10.3147C22.5138 10.3147 21.4984 11.3303 21.4984 12.5831C21.4984 13.8359 22.5138 14.8515 23.7665 14.8515C25.0191 14.8515 26.0346 13.8359 26.0346 12.5831C26.0347 11.3303 25.0191 10.3147 23.7665 10.3147ZM2.88214 14.7208C2.55408 14.5382 2.14451 14.6346 1.9322 14.9441C1.72919 15.2397 1.76087 15.6268 2.01883 15.8789L4.26256 18.072C4.26298 18.0724 4.26325 18.0727 4.26367 18.0731C5.20931 18.9554 5.54717 19.7183 5.5726 20.4198C5.57267 20.4214 5.57267 20.4226 5.5726 20.4241L5.50541 22.6292C5.50528 22.6341 5.50465 22.6383 5.50347 22.643L3.88183 29.0816C3.78602 29.462 4.01085 29.8502 4.38838 29.9564L4.44417 29.9721C4.77571 30.0654 5.11802 29.9192 5.27996 29.6152L8.81171 22.9862C8.82769 22.9563 8.86374 22.9438 8.8948 22.9574L10.5819 23.6988C10.6066 23.7097 10.6214 23.7332 10.6205 23.7603L10.5217 26.616C10.4925 27.4598 11.7067 27.6589 11.9528 26.8565L12.7415 24.284C12.7417 24.2836 12.7418 24.2833 12.742 24.2829C13.1483 23.0435 13.0225 22.2031 12.3127 21.8008C12.3106 21.7996 12.3086 21.7987 12.3063 21.7977L10.0616 20.8337C10.0337 20.8217 10.0182 20.793 10.0234 20.763L10.7827 16.4463C10.7837 16.441 10.785 16.4366 10.7872 16.4317L13.0577 11.2228C13.1496 11.0118 13.1488 10.7954 13.0552 10.5852C12.7804 9.96813 11.8948 9.95187 11.6085 10.5742L10.19 13.6572C9.40774 15.3043 7.25329 17.1526 5.37869 16.1097C4.54637 15.6468 3.71425 15.1837 2.88214 14.7208Z" fill="#EFB7C1"/>
</svg>
