<svg width="30" height="30" viewBox="0 0 30 30" fill="none" xmlns="http://www.w3.org/2000/svg">
<path d="M3.0029 19.8739H1.81921L0.711189 25.6598C0.569844 26.3965 1.36158 26.875 2.41113 26.875C3.46069 26.875 4.25221 26.397 4.11148 25.6598L3.0029 19.8739Z" fill="#EFB7C1"/>
<path d="M3.28125 18.3668C3.28125 18.8695 2.89282 19.2797 2.40967 19.2797C1.92966 19.2797 1.53809 18.8695 1.53809 18.3668C1.53809 17.8608 1.92966 17.4507 2.40967 17.4507C2.89282 17.4507 3.28125 17.8608 3.28125 18.3668Z" fill="#EFB7C1"/>
<path d="M29.726 8.49603L15.4118 3.20704C15.1164 3.09765 14.8844 3.09765 14.5892 3.20704L0.273947 8.49603C0.0923079 8.563 0 8.69984 0 8.90149V10.334C0 10.5359 0.0923105 10.6731 0.273947 10.74L15 16.1811L29.726 10.74C29.9077 10.6725 30 10.5362 30 10.3342V8.90168C30 8.69982 29.9076 8.56301 29.726 8.49603Z" fill="#EFB7C1"/>
<path d="M14.9999 17.473L14.613 17.3298L5.82324 14.082V17.3574C5.82324 22.4532 8.91798 24.7496 14.9998 24.7496C21.0814 24.7496 24.1759 22.4532 24.1759 17.3574V14.082L15.3867 17.3298L14.9999 17.473Z" fill="#EFB7C1"/>
<path d="M2.99238 13.0362L1.82861 12.6064V16.9534H2.99238V13.0362Z" fill="#EFB7C1"/>
</svg>
