<svg width="30" height="30" viewBox="0 0 30 30" fill="none" xmlns="http://www.w3.org/2000/svg">
<path fill-rule="evenodd" clip-rule="evenodd" d="M26.2483 6.21629C26.5156 6.2413 26.764 6.36515 26.9448 6.56361C27.1256 6.76207 27.2259 7.02084 27.2259 7.28928C27.2259 7.55771 27.1256 7.81649 26.9448 8.01495C26.764 8.2134 26.5156 8.33726 26.2483 8.36226C26.0989 8.37623 25.9482 8.35888 25.8059 8.31131C25.6636 8.26374 25.5329 8.187 25.4219 8.08601C25.311 7.98501 25.2224 7.86198 25.1618 7.72479C25.1011 7.5876 25.0698 7.43926 25.0698 7.28928C25.0698 7.13929 25.1011 6.99096 25.1618 6.85377C25.2224 6.71657 25.311 6.59354 25.4219 6.49255C25.5329 6.39155 25.6636 6.31482 25.8059 6.26725C25.9482 6.21968 26.0989 6.20232 26.2483 6.21629Z" fill="#EFB7C1"/>
<path fill-rule="evenodd" clip-rule="evenodd" d="M2.97255 23.9837C2.75933 23.9837 2.55091 23.9205 2.37363 23.8021C2.19635 23.6837 2.05818 23.5154 1.97659 23.3184C1.895 23.1215 1.87365 22.9048 1.91525 22.6958C1.95684 22.4867 2.05951 22.2947 2.21027 22.144C2.36104 21.9933 2.55312 21.8907 2.76224 21.8491C2.97135 21.8075 3.1881 21.8288 3.38508 21.9104C3.58206 21.992 3.75043 22.1301 3.86888 22.3073C3.98733 22.4845 4.05056 22.6929 4.05056 22.906C4.05056 23.1919 3.93698 23.466 3.73482 23.6681C3.53265 23.8702 3.25845 23.9837 2.97255 23.9837Z" fill="#EFB7C1"/>
<path fill-rule="evenodd" clip-rule="evenodd" d="M20.1457 9.38374C19.0306 8.34447 17.6216 7.67503 16.1114 7.46702C14.6012 7.25902 13.0636 7.52261 11.709 8.22173C8.89681 9.73046 7.26573 13.4414 7.63132 17.977C6.03922 17.2053 4.60042 16.1511 3.38488 14.8658C0.207084 11.4828 -0.842808 7.50953 0.703907 5.02621C2.25062 2.54288 6.39395 1.39025 9.53425 4.77319C10.556 0.284465 14.6993 -0.84943 17.2959 0.584338C19.6863 1.88691 20.7925 5.32608 20.1457 9.38374Z" fill="#EFB7C1"/>
<path fill-rule="evenodd" clip-rule="evenodd" d="M26.6513 24.3774C24.3734 26.9169 19.8739 28.8755 16.2368 30C13.9682 27.5354 11.4091 24.1993 10.3967 21.1444C8.93438 17.2179 9.67493 11.4828 12.6934 10.0959C13.8582 9.50884 15.1998 9.37554 16.4575 9.72189C17.7151 10.0682 18.7991 10.8695 19.4989 11.9701C19.9568 12.6745 20.275 13.4603 20.4363 14.2848C20.5863 14.1255 20.755 13.9849 20.8769 13.8443C23.9422 11.033 27.7949 12.1294 29.3135 14.5472C30.8321 16.9649 29.7822 20.9851 26.6513 24.3774Z" fill="#EFB7C1"/>
<path fill-rule="evenodd" clip-rule="evenodd" d="M24.7017 1.02479C24.7012 0.938085 24.7269 0.853249 24.7754 0.781362C24.8239 0.709475 24.8929 0.65388 24.9735 0.621837C25.0538 0.585794 25.1435 0.576355 25.2295 0.594901C25.3155 0.613447 25.3933 0.659005 25.4516 0.724919L25.8734 1.19347C25.9153 1.23849 25.9661 1.27425 26.0226 1.29846C26.0791 1.32267 26.14 1.33478 26.2015 1.33404H26.8296C26.9176 1.32893 27.005 1.35152 27.0795 1.39863C27.154 1.44574 27.2119 1.51501 27.245 1.5967C27.2781 1.6784 27.2848 1.7684 27.2641 1.85407C27.2433 1.93975 27.1963 2.01678 27.1295 2.07435L26.6702 2.49604C26.6237 2.53669 26.5869 2.58727 26.5626 2.64404C26.5382 2.70081 26.527 2.76232 26.5296 2.82403V3.45189C26.5316 3.53966 26.5067 3.62594 26.4583 3.69919C26.4098 3.77244 26.3402 3.82916 26.2586 3.86176C26.1771 3.89437 26.0875 3.90131 26.002 3.88165C25.9164 3.86199 25.8388 3.81668 25.7797 3.75176L25.3578 3.29258C25.3172 3.24608 25.2666 3.20931 25.2098 3.18498C25.153 3.16065 25.0915 3.14938 25.0298 3.15202H24.4017C24.3137 3.15311 24.2273 3.1278 24.1538 3.07936C24.0803 3.03092 24.023 2.96157 23.9892 2.88026C23.9557 2.79883 23.9486 2.70895 23.9687 2.62324C23.9889 2.53753 24.0354 2.46028 24.1017 2.40233L24.5611 1.98064C24.6076 1.93998 24.6444 1.88941 24.6687 1.83264C24.693 1.77587 24.7043 1.71436 24.7017 1.65265C24.7017 1.50271 24.7017 1.26844 24.7017 1.02479Z" fill="#EFB7C1"/>
<path fill-rule="evenodd" clip-rule="evenodd" d="M7.17179 27.5823C7.14072 27.664 7.08553 27.7344 7.01354 27.784C6.94155 27.8336 6.85616 27.8602 6.7687 27.8602C6.68125 27.8602 6.59586 27.8336 6.52387 27.784C6.45187 27.7344 6.39668 27.664 6.36562 27.5823L6.15002 26.9919C6.10161 26.878 6.01087 26.7873 5.89692 26.7389L5.30635 26.5234C5.2246 26.4923 5.15423 26.4371 5.10457 26.3652C5.05491 26.2932 5.02832 26.2078 5.02832 26.1204C5.02832 26.033 5.05491 25.9476 5.10457 25.8756C5.15423 25.8037 5.2246 25.7485 5.30635 25.7175L5.89692 25.5019C5.95508 25.4809 6.0079 25.4473 6.05164 25.4036C6.09538 25.3599 6.12897 25.307 6.15002 25.2489C6.20626 25.1083 6.28125 24.8928 6.36562 24.6679C6.39668 24.5862 6.45187 24.5158 6.52387 24.4662C6.59586 24.4165 6.68125 24.39 6.7687 24.39C6.85616 24.39 6.94155 24.4165 7.01354 24.4662C7.08553 24.5158 7.14072 24.5862 7.17179 24.6679C7.25615 24.8928 7.34052 25.1083 7.38739 25.2489C7.40844 25.307 7.44202 25.3599 7.48576 25.4036C7.5295 25.4473 7.58232 25.4809 7.64049 25.5019L8.23105 25.7175C8.3128 25.7485 8.38318 25.8037 8.43283 25.8756C8.48249 25.9476 8.50908 26.033 8.50908 26.1204C8.50908 26.2078 8.48249 26.2932 8.43283 26.3652C8.38318 26.4371 8.3128 26.4923 8.23105 26.5234L7.64049 26.7389C7.52653 26.7873 7.4358 26.878 7.38739 26.9919C7.34052 27.1418 7.25615 27.3574 7.17179 27.5823Z" fill="#EFB7C1"/>
</svg>
