<svg width="30" height="30" viewBox="0 0 30 30" fill="none" xmlns="http://www.w3.org/2000/svg">
<path d="M26.8038 24.7006H25.5769V14.128C25.2844 14.2528 24.9696 14.3172 24.6514 14.3175H24.5192V24.7006H20.886L19.6856 23.0639C19.6356 22.9958 19.6028 22.9168 19.5899 22.8334C19.577 22.7501 19.5844 22.6649 19.6115 22.585L20.8173 19.0485C20.8446 18.9781 20.8564 18.9027 20.8519 18.8273C20.8473 18.7519 20.8265 18.6784 20.7908 18.6118C20.7585 18.5441 20.7128 18.4835 20.6565 18.4338C20.6002 18.3841 20.5344 18.3462 20.463 18.3223L16.687 17.0277H14.0428C13.7329 17.514 13.3039 17.914 12.796 18.1902C12.2882 18.4663 11.7182 18.6096 11.1395 18.6065H8.98713L5.72418 28.9475H3.19632C3.05606 28.9475 2.92155 29.0029 2.82237 29.1016C2.7232 29.2003 2.66748 29.3342 2.66748 29.4737C2.66748 29.6133 2.7232 29.7472 2.82237 29.8459C2.92155 29.9446 3.05606 30 3.19632 30H12.4722C12.5713 30.0002 12.6685 29.9727 12.7526 29.9206C12.8368 29.8685 12.9045 29.7939 12.9481 29.7053L14.889 25.7531H26.8038C26.944 25.7531 27.0785 25.6976 27.1777 25.599C27.2769 25.5003 27.3326 25.3664 27.3326 25.2268C27.3326 25.0873 27.2769 24.9534 27.1777 24.8547C27.0785 24.756 26.944 24.7006 26.8038 24.7006ZM16.7981 24.7006H14.5611C14.462 24.7004 14.3648 24.7279 14.2807 24.78C14.1965 24.8321 14.1288 24.9067 14.0852 24.9953L12.1443 28.9475H10.2669L9.26741 27.5371C9.2144 27.4609 9.18257 27.3721 9.17515 27.2796C9.16772 27.1872 9.18495 27.0945 9.2251 27.0108L12.0227 21.2694C12.1809 20.9533 12.4246 20.6873 12.7264 20.5014C13.0281 20.3155 13.3759 20.2169 13.7308 20.2168L17.0837 20.2642C17.1635 20.2624 17.2428 20.2787 17.3154 20.3117C17.3881 20.3448 17.4523 20.3938 17.5031 20.4551C17.554 20.5164 17.5903 20.5883 17.6093 20.6655C17.6282 20.7428 17.6293 20.8233 17.6125 20.901L16.7981 24.7006ZM6.18427 16.7698C5.99486 16.5249 5.86364 16.2405 5.80044 15.9379C5.73724 15.6353 5.74372 15.3224 5.81937 15.0227L6.83474 10.9336C6.99118 10.2938 7.36067 9.72552 7.88306 9.32131C8.40544 8.9171 9.04995 8.70077 9.71164 8.70755H12.3558C12.6792 8.69909 13.0002 8.76452 13.2942 8.89884C13.5881 9.03315 13.8472 9.23276 14.0515 9.48231C14.2558 9.73187 14.3999 10.0247 14.4726 10.3384C14.5454 10.652 14.5449 10.9781 14.4712 11.2915L13.4664 15.7226C13.3524 16.2475 13.0606 16.7175 12.6399 17.0538C12.2191 17.39 11.695 17.5722 11.1554 17.5698H7.82368C7.50773 17.5667 7.19648 17.4933 6.91278 17.3549C6.62908 17.2165 6.38015 17.0166 6.18427 16.7698ZM6.63907 6.87091C6.64047 6.421 6.82106 5.99 7.14125 5.67236C7.46144 5.35471 7.89511 5.17635 8.34723 5.17635H14.963C15.4147 5.17635 15.8478 5.35489 16.1671 5.67268C16.4865 5.99047 16.6659 6.42148 16.6659 6.87091C16.6659 7.32033 16.4865 7.75135 16.1671 8.06914C15.8478 8.38693 15.4147 8.56546 14.963 8.56546H14.6193C14.3211 8.2725 13.9676 8.04122 13.5791 7.88495C13.1906 7.72869 12.7748 7.65055 12.3558 7.65503H9.71164C8.92849 7.65947 8.16376 7.8918 7.51166 8.32338C7.24963 8.18029 7.03065 7.97028 6.87728 7.71499C6.72391 7.45969 6.64169 7.16833 6.63907 6.87091ZM24.6514 9.70218H24.5192V7.71292C24.5192 7.57335 24.5749 7.43949 24.6741 7.3408C24.7732 7.24211 24.9078 7.18666 25.048 7.18666C25.1883 7.18666 25.3228 7.24211 25.422 7.3408C25.5211 7.43949 25.5769 7.57335 25.5769 7.71292V9.8969C25.2855 9.768 24.9702 9.70166 24.6514 9.70218ZM17.1524 8.52336L19.675 10.4442C19.9434 10.645 20.2699 10.7539 20.6058 10.7547H24.6514C24.8239 10.7436 24.9969 10.7678 25.1596 10.8258C25.3223 10.8839 25.4713 10.9745 25.5975 11.0922C25.7236 11.2098 25.8241 11.3519 25.8928 11.5098C25.9616 11.6676 25.997 11.8378 25.997 12.0098C25.997 12.1818 25.9616 12.352 25.8928 12.5099C25.8241 12.6677 25.7236 12.8099 25.5975 12.9275C25.4713 13.0451 25.3223 13.1358 25.1596 13.1938C24.9969 13.2519 24.8239 13.2761 24.6514 13.265H20.3836C19.9555 13.2622 19.5365 13.1421 19.1726 12.9176L17.8664 12.1282C17.7931 12.0836 17.7101 12.0575 17.6244 12.052C17.5387 12.0464 17.4529 12.0618 17.3745 12.0967C17.2965 12.1306 17.2279 12.1828 17.1745 12.2487C17.1211 12.3147 17.0845 12.3925 17.0678 12.4756L16.3539 15.9752H14.4712L15.4707 11.5441C15.6158 10.8979 15.5548 10.2228 15.2962 9.61272C15.6635 9.56545 16.0174 9.44454 16.3365 9.25731C16.6555 9.07007 16.9331 8.82039 17.1524 8.52336ZM20.6851 3.05027C20.6851 3.18984 20.6294 3.32369 20.5302 3.42239C20.431 3.52108 20.2965 3.57652 20.1562 3.57652H17.7976V4.03437C17.8002 4.55605 17.6394 5.06558 17.3375 5.49211C17.0959 5.07784 16.7497 4.73362 16.3332 4.49361C15.9167 4.25359 15.4443 4.12612 14.963 4.12383H12.6097C12.6071 4.09407 12.6071 4.06414 12.6097 4.03437V2.63452C12.595 1.95061 12.8538 1.2889 13.3294 0.794941C13.805 0.300983 14.4582 0.0152478 15.1455 0.000592703C15.8327 -0.0140624 16.4977 0.243563 16.9941 0.716795C17.4905 1.19003 17.7776 1.8401 17.7923 2.52401H20.1615C20.3009 2.52539 20.434 2.58145 20.5321 2.67999C20.6301 2.77853 20.6851 2.9116 20.6851 3.05027Z" fill="#EFB7C1"/>
</svg>
