<svg width="40" height="40" viewBox="0 0 40 40" fill="none" xmlns="http://www.w3.org/2000/svg">
<g clip-path="url(#clip0_2961_3293)">
<path d="M10.0287 21.2161H8.23486C7.76428 21.2161 7.33948 21.4962 7.15332 21.9277L2.1875 33.4905L13.9807 27.4673C12.569 25.5139 11.1722 23.3593 10.0287 21.2161Z" fill="#EFB7C1"/>
<path d="M32.8439 21.9277C32.6581 21.4962 32.233 21.2161 31.7627 21.2161H29.9689C27.8095 25.2627 24.6634 29.4445 22.6621 31.7452C21.2546 33.3596 18.7405 33.3578 17.3352 31.7452C17.1915 31.5801 16.441 30.7113 15.4074 29.3752L13.2812 30.4617L21.3239 38.4887L36.5631 30.5883L32.8439 21.9277Z" fill="#EFB7C1"/>
<path d="M0.737606 36.8698L0.0961263 38.3636C-0.235905 39.1367 0.332943 40 1.17736 40H18.447C18.555 39.9197 18.5562 39.9246 19.136 39.624L11.0815 31.5863L0.737606 36.8698Z" fill="#EFB7C1"/>
<path d="M39.9048 38.3636L37.4951 32.7527L23.5156 40H38.8235C39.6661 40 40.2374 39.1382 39.9048 38.3636Z" fill="#EFB7C1"/>
<path d="M21.1771 10.5722C21.1771 9.92462 20.6492 9.39819 20.0007 9.39819C19.3519 9.39819 18.8242 9.92462 18.8242 10.5722C18.8242 11.2195 19.3519 11.7462 20.0007 11.7462C20.6492 11.7462 21.1771 11.2195 21.1771 10.5722Z" fill="#EFB7C1"/>
<path d="M20.8896 30.1264C21.2857 29.6717 30.5896 18.9093 30.5896 11.5113C30.5896 -3.74387 9.41406 -3.93002 9.41406 11.5113C9.41406 18.9093 18.718 29.6717 19.1141 30.1264C19.5831 30.6644 20.4214 30.6638 20.8896 30.1264ZM16.4725 10.5722C16.4725 8.6301 18.0557 7.0502 20.0018 7.0502C21.9476 7.0502 23.5309 8.6301 23.5309 10.5722C23.5309 12.5141 21.9476 14.094 20.0018 14.094C18.0557 14.094 16.4725 12.5141 16.4725 10.5722Z" fill="#EFB7C1"/>
</g>
<defs>
<clipPath id="clip0_2961_3293">
<rect width="40" height="40" fill="white"/>
</clipPath>
</defs>
</svg>
