<svg width="60" height="60" viewBox="0 0 60 60" fill="none" xmlns="http://www.w3.org/2000/svg">
<g clip-path="url(#clip0_2695_820)">
<path d="M57.1999 20.7693L53.8461 22.8308V18.9847L57.1999 20.7693ZM6.15384 18.9847L2.8 20.7693L6.15384 22.8308V18.9847ZM55.3845 27.4154L34.3384 40.3385C33.0279 41.125 31.5283 41.5405 30 41.5405C28.4716 41.5405 26.972 41.125 25.6615 40.3385L4.61538 27.4154L0 24.5847V53.0769C0 54.913 0.729392 56.674 2.02772 57.9723C3.32605 59.2706 5.08696 60 6.92307 60H53.0769C54.913 60 56.6739 59.2706 57.9722 57.9723C59.2705 56.674 59.9999 54.913 59.9999 53.0769V24.5847L55.3845 27.4154ZM28.0615 36.4L10.7692 25.7847V5.3847C10.7651 4.67644 10.9016 3.97441 11.1708 3.31928C11.4399 2.66414 11.8364 2.06893 12.3372 1.5681C12.8381 1.06728 13.4333 0.670809 14.0884 0.401653C14.7435 0.132497 15.4456 -0.00399334 16.1538 8.89375e-05H43.8461C44.5544 -0.00399334 45.2564 0.132497 45.9115 0.401653C46.5666 0.670809 47.1619 1.06728 47.6627 1.5681C48.1635 2.06893 48.56 2.66414 48.8291 3.31928C49.0983 3.97441 49.2348 4.67644 49.2307 5.3847V25.877L31.9384 36.4923C31.3429 36.8249 30.6692 36.9917 29.9874 36.9755C29.3055 36.9593 28.6405 36.7605 28.0615 36.4ZM18.4615 11.2924C18.4695 11.9019 18.7152 12.4843 19.1462 12.9153C19.5773 13.3464 20.1596 13.5921 20.7692 13.6001H39.2307C39.8428 13.6001 40.4297 13.3569 40.8625 12.9242C41.2953 12.4914 41.5384 11.9044 41.5384 11.2924C41.5384 10.6803 41.2953 10.0934 40.8625 9.6606C40.4297 9.22782 39.8428 8.98469 39.2307 8.98469H20.7692C20.1572 8.98469 19.5702 9.22782 19.1374 9.6606C18.7046 10.0934 18.4615 10.6803 18.4615 11.2924ZM20.7692 22.5847H39.2307C39.8428 22.5847 40.4297 22.3415 40.8625 21.9088C41.2953 21.476 41.5384 20.889 41.5384 20.277C41.5384 19.6649 41.2953 19.078 40.8625 18.6452C40.4297 18.2124 39.8428 17.9693 39.2307 17.9693H20.7692C20.1572 17.9693 19.5702 18.2124 19.1374 18.6452C18.7046 19.078 18.4615 19.6649 18.4615 20.277C18.4615 20.889 18.7046 21.476 19.1374 21.9088C19.5702 22.3415 20.1572 22.5847 20.7692 22.5847Z" fill="white"/>
</g>
<defs>
<clipPath id="clip0_2695_820">
<rect width="60" height="60" fill="white"/>
</clipPath>
</defs>
</svg>
