<svg width="68" height="50" viewBox="0 0 68 50" fill="none" xmlns="http://www.w3.org/2000/svg">
<g opacity="0.2">
<path d="M25.5 0H6.375C2.85961 0 0 2.80354 0 6.25V25C0 28.4465 2.85961 31.25 6.375 31.25H14.9528L11.7269 47.5189C11.6055 48.1303 11.7695 48.762 12.1731 49.2421C12.5767 49.7223 13.1775 50 13.8125 50H20.697C22.5449 50 24.1875 48.8149 24.7467 47.0988L30.9329 32.7128C30.9681 32.6304 30.9982 32.546 31.0221 32.4605C31.5886 30.4647 31.875 28.4007 31.875 26.3265V6.25C31.875 2.80354 29.0154 0 25.5 0Z" fill="#EFB7C1"/>
<path d="M61.625 0H42.5C38.9846 0 36.125 2.80354 36.125 6.25V25C36.125 28.4465 38.9846 31.25 42.5 31.25H51.0789L47.8519 47.5189C47.7295 48.1303 47.8934 48.762 48.2981 49.2421C48.7007 49.7223 49.3025 50 49.9375 50H56.823C58.672 50 60.3135 48.8149 60.8717 47.0978L67.0578 32.7128C67.0931 32.6304 67.1222 32.546 67.1471 32.4605C67.7136 30.4626 68 28.3986 68 26.3265V6.25C68 2.80354 65.1404 0 61.625 0Z" fill="#EFB7C1"/>
</g>
</svg>
