<svg width="231" height="258" viewBox="0 0 231 258" fill="none" xmlns="http://www.w3.org/2000/svg">
<path opacity="0.3" d="M128.931 4.56233C128.685 6.92361 128.469 8.98973 127.928 11.3203C127.08 16.6024 125.611 22.1183 124.173 27.339C121.931 34.5644 119.983 41.8205 119.182 49.4947C118.659 54.5124 118.725 59.5916 120 64.4985C120.778 68.4584 122.502 71.9203 124.845 75.1484C127.98 79.3541 131.472 83.0003 133.661 87.7042C136.084 93.0291 136.972 98.7907 136.682 104.429C136.33 110.659 134.505 116.734 130.447 121.383C129.765 122.207 129.114 122.736 128.727 123.591C127.69 124.974 126.327 126.622 125.289 128.006C123.183 131.069 121.077 134.131 118.94 137.489C116.834 140.551 114.991 143.939 113.149 147.328C112.081 149.006 111.307 150.716 110.269 152.1C109.231 153.483 108.457 155.193 107.714 156.607C106.971 158.021 105.701 158.784 104.663 160.168C103.625 161.551 102.587 162.935 101.844 164.349C101.488 164.909 101.457 165.204 101.101 165.764C101.132 165.468 101.224 164.583 101.255 164.288C101.317 163.698 101.378 163.107 101.409 162.812C101.532 161.631 101.625 160.746 102.042 159.596C102.614 156.97 103.186 154.345 103.726 152.014C113.048 136.874 124.937 114.244 109.918 98.3563C107.776 96.0444 105.837 94.6487 105.912 91.0761C105.864 88.6841 105.754 86.8824 104.76 84.9886C103.037 81.5267 100.012 79.1227 96.9558 77.0138C92.5193 73.8658 87.4014 71.5418 82.578 69.2486C79.7244 68.0559 77.1654 66.8939 74.281 65.9964C72.8388 65.5476 71.3966 65.0988 69.9545 64.6501C68.8069 64.232 67.6285 64.1091 66.7755 63.7218C68.7937 67.2143 71.168 70.1473 72.8607 73.9043C74.5535 77.6612 76.2463 81.4182 77.0245 85.3782C79.6054 94.8968 78.9458 104.077 78.2246 113.848C77.7497 121.258 77.8024 129.32 82.2256 135.45C83.7777 137.7 86.3059 139.158 88.8341 140.615C91.3623 142.072 94.1851 143.56 96.6518 145.607C98.8546 147.329 100.407 149.579 100.719 152.297C100.829 154.099 100.024 156.103 99.8394 157.874C99.3294 159.91 99.1139 161.976 98.8984 164.042L98.8677 164.337C98.7445 165.518 98.6214 166.699 98.4675 168.174C98.3752 169.06 98.3136 169.65 98.2212 170.536C98.1289 171.421 98.0366 172.307 97.6496 173.161C97.2627 174.016 96.9065 174.576 96.5196 175.43C95.7765 176.845 94.7388 178.228 93.7319 179.317C92.725 180.405 91.7489 181.199 90.742 182.287C85.4745 187.108 81.3237 192.643 78.5844 198.921C76.7113 202.605 75.9242 207.297 73.2288 210.298C71.5404 212.21 69.2936 213.766 67.6051 215.679C68.2208 209.776 68.278 203.516 67.3898 197.754C67.0469 195.331 66.4094 192.878 65.7411 190.72C65.508 190.099 65.3058 189.182 65.0728 188.561C64.3429 186.993 62.6369 186.219 61.2563 185.18C60.1702 184.171 58.7896 183.132 57.7344 181.829C56.6791 180.525 56.3054 178.398 55.9009 176.565C54.3005 171.923 52.9946 167.311 51.3942 162.668C53.2498 156.298 54.8107 149.896 56.1079 143.169C57.2819 137.623 58.4867 131.781 58.1878 126.081C58.0295 121.887 56.9875 117.601 54.024 114.607C50.0053 110.309 44.0518 110.285 40.3893 105.427C37.5489 101.252 36.5684 96.376 33.6973 92.4962C31.1207 88.647 27.2119 86.1508 22.9161 84.5093C17.1782 82.4191 10.6663 82.0384 4.80526 81.1288C0.680968 80.6987 -3.41256 79.9734 -7.53685 79.5433C-10.1882 79.2668 -12.5449 79.021 -15.1655 78.4494C-6.35413 85.3357 3.40255 91.7238 7.00792 102.841C9.68116 111.474 11.1145 120.575 20.2644 124.214C25.4132 126.243 29.6474 128.475 33.4023 132.447C37.1573 136.419 39.936 141.184 42.0949 146.183C43.2908 148.993 44.7506 152.129 45.6519 154.909C46.0872 156.446 46.8171 158.014 47.2523 159.551C47.9514 161.414 48.3559 163.247 49.055 165.11C49.3188 165.436 49.2573 166.026 49.4903 166.647C49.9564 167.889 50.4224 169.131 50.5939 170.343C51.06 171.585 51.526 172.827 51.6975 174.038C51.9305 174.659 52.1636 175.28 52.3966 175.901C52.6604 176.227 52.5373 177.408 53.0957 177.764C47.9293 173.048 43.1192 167.773 38.309 162.497C37.2537 161.194 36.1369 160.481 34.7563 159.442C26.3759 148.423 10.8637 137.257 -0.968364 133.637C-6.4425 131.872 -13.1258 130.28 -19.11 130.551C-25.7142 131.056 -26.8574 136.307 -31.1488 140.335C-38.7248 147.303 -51.4714 143.885 -60.2741 148.338C-65.6207 151.062 -69.3845 155.742 -72.8537 160.452C-77.9806 166.78 -82.316 174.086 -87.1791 180.74C-87.8914 181.859 -87.6276 182.185 -86.3876 181.717C-73.1529 174.743 -57.5262 173.389 -43.1352 178.172C-36.5134 180.354 -29.751 184.043 -22.2631 183.631C-16.5735 183.329 -12.0798 180.217 -8.11373 176.453C2.09598 167.075 15.1549 153.22 30.5397 159.897C37.0691 162.965 41.633 170.602 46.4739 175.582C48.879 178.22 51.2841 180.858 54.0146 183.231C55.3644 184.565 56.4504 185.574 57.8003 186.908C58.6225 187.59 59.1809 187.947 60.0031 188.629C60.5615 188.986 61.4145 189.373 61.9421 190.025C62.206 190.351 62.439 190.972 62.672 191.593C63.8372 194.698 64.7077 197.773 64.9275 201.376C65.2089 204.389 65.1649 207.667 64.8571 210.618C64.7208 214.781 63.7007 218.852 62.6805 222.923C62.1705 224.958 61.6604 226.994 61.1503 229.029C60.161 232.805 58.0856 235.572 55.9487 238.929C52.7125 244.261 52.3299 250.785 51.7143 256.688C51.2702 263.803 50.8568 270.622 50.4126 277.737C51.6218 277.565 52.5364 277.362 53.7455 277.189C54.0973 270.96 54.4491 264.731 54.8009 258.502C55.1835 251.978 55.6277 244.863 59.22 238.972C62.3946 234.231 67.6314 229.705 72.4197 226.624C74.3411 225.332 75.968 224.01 77.8587 223.014C78.1533 223.045 78.1841 222.749 78.4786 222.78C79.7801 221.722 80.787 220.634 82.0578 219.871C83.3592 218.813 84.63 218.051 85.9007 217.288C88.7367 215.794 91.5727 214.299 94.6725 213.131C100.872 210.794 107.243 209.668 113.553 209.132C114.762 208.96 115.971 208.788 117.444 208.941C124.312 208.763 131.646 209.826 137.85 213.158C143.76 216.46 147.655 221.938 153.209 225.799C157.087 228.591 162.235 230.62 167.164 229.045C172.682 227.532 176.741 222.883 181.762 220.423C187.14 217.403 193.278 215.656 199.323 214.795C202.656 214.247 205.928 214.29 209.199 214.333C211.586 214.284 213.943 214.529 216.595 214.806C217.773 214.929 217.834 214.338 217.276 213.982C217.012 213.656 216.718 213.625 216.454 213.299C211.956 210.742 207.752 208.215 203.874 205.423C199.996 202.632 196.149 199.545 192.596 196.49C184.018 190.224 175.255 185.73 164.403 186.985C161.101 187.238 158.032 188.111 154.761 188.068C150.281 188.198 146.869 186.649 142.867 185.038C137.719 183.009 132.293 183.637 127.008 185.771C121.397 188.169 116.842 191.872 111.961 195.838C107.732 199.276 103.502 202.713 99.2718 206.151C98.2957 206.944 97.3195 207.738 96.018 208.796C95.3365 209.62 94.3912 210.118 93.7404 210.647C93.0897 211.176 92.4389 211.704 91.5244 211.907C90.6098 212.11 89.6337 212.904 88.7191 213.107C87.1538 213.839 85.5885 214.57 83.9924 215.597C80.831 217.356 78.4919 219.798 75.5943 221.883C73.6728 223.174 72.0767 224.201 70.1553 225.492C68.2338 226.784 65.987 228.34 64.3601 229.662C65.0241 226.151 65.6572 222.935 66.6158 219.454C67.6535 218.071 68.6604 216.982 69.9927 215.629C71.2941 214.572 72.5956 213.514 73.8972 212.456C75.8802 210.574 77.041 208.01 78.2018 205.446C80.9411 199.167 83.6805 192.889 88.3896 187.711C92.7734 182.797 97.5924 179.421 100.626 173.173C102.113 170.345 103.04 167.159 105.116 164.392C107.222 161.33 110.739 159.011 113.932 156.957C117.093 155.198 120.224 153.734 123.649 152.301C127.043 151.164 130.438 150.026 134.096 149.214C135.6 149.072 137.042 149.521 138.515 149.675C139.957 150.123 141.724 150.308 143.167 150.756C146.346 151.685 149.199 152.877 152.022 154.365C156.815 156.954 160.926 160.366 165.718 162.954C172.45 166.939 181.428 169.367 188.464 164.73C191.981 162.411 193.56 158.697 195.96 155.665C198.036 152.898 200.221 151.932 203.29 151.059C204.825 150.622 206.623 150.512 207.924 149.454C212.031 147.197 214.384 141.773 217.435 138.212C219.48 135.74 223.894 130.532 228.001 128.275C228.326 128.01 228.621 128.041 228.946 127.776C229.272 127.512 229.597 127.248 229.922 126.983C230.248 126.719 230.279 126.424 230.604 126.159C230.604 126.159 230.604 126.159 230.929 125.895C230.045 125.802 229.456 125.741 228.573 125.649C221.735 125.533 214.96 124.826 208.215 123.824C204.711 123.16 201.206 122.497 197.702 121.833C193.903 121.138 190.166 119.853 186.538 120.37C184.414 120.745 182.554 121.447 180.787 121.262C179.019 121.078 177.283 120.598 175.515 120.414C172.864 120.138 170.151 120.451 167.376 121.356C161.238 123.102 156.063 127.038 151.741 131.361C146.737 136.509 142.046 144.374 134.993 146.324C128.56 148.04 122.158 149.461 115.866 152.683C114.301 153.415 112.41 154.411 110.814 155.438C117.643 144.216 124.238 132.372 132.711 122.514C137.126 117.306 142.099 112.454 146.777 107.571C148.791 105.394 150.805 103.217 152.818 101.04C164.259 99.8462 175.933 99.2734 187.141 97.4585C195.31 96.2219 195.798 85.8298 199.949 80.2953C202.737 76.4088 207.604 75.4246 210.097 71.5074C212.498 68.4757 213.223 64.3742 213.624 60.5371C214.78 52.3033 215.642 44.0388 216.798 35.8051C217.168 32.2632 218.157 28.4875 217.643 24.8534C217.01 28.0695 214.283 31.3656 211.975 33.5119C209.992 35.3936 207.451 36.9188 204.645 38.1181C201.84 39.3174 199.035 40.5167 196.199 42.0112C193.068 43.4749 190.465 45.5904 188.39 48.3577C185.958 51.6846 184.846 56.6409 181.359 58.6642C178.167 60.7183 173.84 59.3719 170.384 61.1001C167.843 62.6253 165.798 65.0974 164.343 67.631C161.309 73.8787 161.749 81.0854 159.304 87.3946C157.695 91.404 154.41 94.3435 151.684 97.6397C150.321 99.2877 148.989 100.641 147.626 102.289C143.954 106.083 140.252 110.172 136.58 113.967C138.577 109.103 139.131 103.79 138.801 98.3847L138.832 98.0896C139.047 96.0235 140.705 94.4061 141.773 92.7273C142.842 91.0485 144.205 89.4005 145.537 88.0475C147.938 85.0158 150.664 81.7197 151.684 77.6489C154.05 69.2429 153.623 59.0538 152.748 50.3098C151.843 41.861 149.697 33.8797 144.777 26.8024C138.709 19.3071 131.076 12.5437 130.448 1.43846C130.479 1.1433 130.509 0.84814 130.246 0.522256C129.006 0.98969 129.054 3.38169 128.931 4.56233ZM100.038 133.13C101.524 130.302 103.01 127.473 104.232 124.318C105.006 122.609 105.455 121.164 105.934 119.424C106.413 117.683 106.567 116.207 106.457 114.406C106.567 116.207 106.119 117.653 105.639 119.393C105.16 121.133 104.417 122.547 103.968 123.992C102.808 126.557 101.321 129.385 99.8968 131.624C99.6638 131.003 99.7254 130.412 99.4923 129.791C99.0571 128.254 98.9164 126.748 98.1865 125.18C97.7512 123.642 97.3159 122.105 96.5861 120.537C95.6847 117.758 94.458 115.243 93.5567 112.464C94.3921 110.164 94.9021 108.128 95.443 105.798C95.9838 103.467 96.5247 101.137 97.0655 98.8062C97.6064 96.4757 97.8526 94.1144 97.8043 91.7224C97.9274 90.5418 97.7559 89.3304 97.5845 88.119C97.413 86.9077 97.2415 85.6963 96.4501 84.7187C96.9469 85.6656 97.1184 86.877 97.2899 88.0883C97.4613 89.2997 97.3382 90.4803 97.2151 91.661C96.9688 94.0222 96.7226 96.3835 96.1817 98.7141C95.1616 102.785 94.1107 107.151 92.5014 111.16C91.6309 108.086 90.7603 105.011 90.4789 101.998C90.3382 100.492 90.5229 98.7207 90.3822 97.2142C90.2415 95.7076 90.1316 93.906 89.6964 92.3687C89.1204 89.3249 87.986 85.9246 86.7901 83.1145C88.2806 85.9553 89.1512 89.0298 89.6964 92.3687C89.837 93.8752 90.2723 95.4125 90.0876 97.1834C90.2283 98.69 90.0436 100.461 90.1843 101.967C90.4349 105.276 91.0109 108.319 92.176 111.425C92.8136 113.878 93.7765 116.067 94.7086 118.551L85.1234 113.374L82.327 105.922L84.798 113.639L94.8801 119.763C94.8493 120.058 95.1131 120.384 95.0823 120.679C95.5176 122.216 96.2475 123.784 96.3882 125.291C96.8234 126.828 97.2587 128.365 97.3994 129.872C98.3799 134.748 99.1756 141.395 99.8307 146.535C97.2542 142.686 92.4308 140.393 88.4912 138.192C78.1145 132.038 78.4312 120.434 79.5393 109.808C81.1399 94.4601 78.4931 79.8623 70.9174 66.8391C71.212 66.8698 71.212 66.8698 71.4758 67.1957C76.33 69.1938 80.9203 70.8659 85.4491 73.1285C90.2725 75.4217 95.3597 78.0408 99.1146 82.0128C101.287 84.0296 102.513 86.5445 102.5 89.5268C102.61 91.3285 102.131 93.0687 102.83 94.9318C103.56 96.4998 104.677 97.213 105.732 98.5165C107.64 100.207 108.928 102.132 110.186 104.352C112.406 108.76 113.387 113.637 113.189 118.39C112.964 129.108 107.499 138.682 101.801 147.636C102.434 144.42 101.049 137.711 100.038 133.13ZM50.0491 127.022L47.0019 136.252C46.1006 133.473 45.1993 130.694 44.2671 128.209C42.8074 125.073 41.053 121.907 38.6172 119.564C38.3534 119.238 38.0896 118.912 37.8257 118.587L36.7089 117.873C35.8559 117.486 35.3283 116.834 34.4753 116.447C33.6223 116.06 32.8001 115.377 31.9471 114.99C32.0087 114.399 32.0702 113.809 32.1318 113.219C32.1933 112.629 32.2857 111.743 32.0527 111.122C32.1142 110.532 31.912 109.615 31.6789 108.994C31.4459 108.373 30.9183 107.722 30.6853 107.101C31.2129 107.752 31.4459 108.373 31.6789 108.994C31.912 109.615 31.8504 110.206 32.0527 111.122C31.9911 111.712 31.8988 112.598 31.8372 113.188C31.7756 113.778 31.7448 114.074 31.3887 114.633C31.1249 114.307 30.5357 114.246 30.2719 113.92C28.8913 112.881 27.5106 111.842 26.4246 110.833C25.6024 110.151 25.1056 109.204 24.2833 108.522C23.7074 105.478 23.193 101.844 22.617 98.7999C22.1817 97.2627 22.041 95.7562 21.6057 94.2189C21.3727 93.5979 21.1705 92.6817 20.9374 92.0606C20.6736 91.7347 20.7044 91.4396 20.4714 90.8185C20.2076 90.4926 20.2383 90.1975 19.9745 89.8716C20.2383 90.1975 20.5021 90.5234 20.4714 90.8185C20.7352 91.1444 20.7044 91.4396 20.9374 92.0606C21.1705 92.6817 21.3727 93.5979 21.6057 94.2189C22.041 95.7562 22.1817 97.2627 22.3224 98.7692C22.6346 101.487 22.9467 104.205 23.2589 106.923C21.4737 104.051 20.014 100.915 18.2289 98.0439C17.2044 96.4452 16.4438 95.1724 15.0939 93.8382C14.0387 92.5347 12.6581 91.4956 11.2467 90.7516C12.6581 91.4956 14.0079 92.8298 15.0631 94.1333C16.1184 95.4369 17.1736 96.7404 17.9035 98.3084C19.6886 101.18 21.1484 104.316 22.9335 107.187C23.7249 108.165 24.4856 109.438 25.277 110.415C24.0679 110.588 22.8587 110.76 21.6803 110.637C20.2074 110.483 18.7344 110.33 17.6176 109.617C18.7344 110.33 20.1766 110.779 21.6496 110.932C22.2388 110.994 23.1225 111.086 23.7117 111.147C24.3009 111.209 25.1847 111.301 25.8046 111.067C25.8046 111.067 25.8046 111.067 26.0685 111.393C27.1237 112.697 28.5043 113.736 30.1795 114.805C31.5602 115.845 32.9716 116.588 34.3522 117.628C35.2052 118.015 35.7328 118.667 36.2912 119.023L37.1134 119.706C37.3772 120.032 37.641 120.358 37.9049 120.683C38.9601 121.987 40.0154 123.29 41.0706 124.594L34.295 123.887L28.9132 121.238L34.2642 124.183L41.5982 125.246C42.3589 126.519 42.8249 127.761 43.291 129.003C44.7507 132.139 45.5905 135.508 46.4611 138.583C47.3009 141.952 47.8461 145.291 48.0967 148.6C48.2066 150.401 48.4879 153.414 48.5363 155.806C47.1689 151.785 45.4761 148.028 43.7833 144.271C39.3733 135.158 33.3672 127.073 23.6588 123.077C20.8053 121.884 17.9209 120.986 15.485 118.644C13.3437 116.332 12.4424 113.552 11.5411 110.773C9.94063 106.131 8.99095 100.959 6.77055 96.5506C3.55646 90.248 -1.54831 84.9417 -7.75232 81.6094C1.08546 82.5311 9.92325 83.4527 18.6071 85.8502C24.4066 87.3501 29.1993 89.9385 32.5365 95.0605C34.8184 98.8789 36.1551 103.195 38.4678 106.719C40.7805 110.242 43.8979 111.761 47.5737 113.636C53.5447 116.347 55.4397 121.02 55.3825 127.28C55.5759 136.848 53.0256 147.025 50.273 156.286C49.9609 153.568 49.7103 150.26 49.3058 148.427C48.7606 145.088 48.2154 141.749 47.3757 138.38L47.4064 138.085L50.5767 127.674L47.0505 118.653L50.0491 127.022ZM-24.3689 146.711C-22.6013 146.896 -21.1591 147.345 -19.4223 147.824C-17.6856 148.304 -16.2434 148.752 -14.5066 149.232C-13.0644 149.681 -11.3584 150.455 -9.65242 151.23C-13.5437 151.421 -17.1711 151.938 -20.8294 152.75L-27.2005 153.875L-28.4097 154.048L-33.3079 155.327L-36.3769 156.2C-37.2915 156.403 -38.5314 156.871 -39.446 157.074L-45.6148 159.116C-46.2348 159.35 -46.5294 159.319 -47.1494 159.553L-47.7693 159.786C-51.0714 160.039 -54.9935 160.525 -58.2956 160.777C-60.0939 160.888 -61.6284 161.325 -63.4268 161.436C-65.8143 161.485 -67.6434 161.891 -69.1779 162.328C-67.6434 161.891 -65.8143 161.485 -64.0159 161.374C-62.2176 161.263 -60.6831 160.827 -58.8847 160.716C-55.8773 160.433 -53.1644 160.119 -50.1876 160.131L-52.0475 160.832L-57.9526 163.2L-69.8243 168.526L-57.9834 163.495L-52.1091 161.422L-49.0093 160.254L-47.4747 159.817C-46.8548 159.583 -46.5602 159.614 -45.9402 159.38L-39.8021 157.634C-38.8876 157.431 -37.6476 156.963 -36.7331 156.76L-33.664 155.887L-29.3858 154.841C-31.0742 156.753 -32.7934 158.961 -34.2181 161.2C-35.2557 162.583 -35.9681 163.702 -36.7112 165.117C-35.9681 163.702 -34.9612 162.614 -34.2181 161.2C-32.4681 158.697 -30.4543 156.52 -28.1459 154.374L-27.2313 154.171L-20.8602 153.045C-13.6053 152.011 -6.4119 151.568 1.01448 151.746C-0.287013 152.803 -1.61929 154.156 -2.62619 155.245C-4.28384 156.862 -5.64691 158.51 -7.04075 160.453C-8.43458 162.397 -9.53383 164.371 -10.6331 166.344C-11.4377 168.349 -12.2732 170.649 -12.5194 173.01C-12.2732 170.649 -11.4685 168.644 -10.3693 166.67C-9.27002 164.696 -8.17077 162.722 -6.80772 161.074C-5.44466 159.426 -3.75622 157.514 -2.12935 156.192C-0.79708 154.839 0.829795 153.516 2.45667 152.194C3.34044 152.286 4.22422 152.379 5.108 152.471C9.2323 152.901 13.6512 153.362 17.7447 154.087C20.3653 154.659 22.9858 155.23 25.5756 156.097C20.8621 155.606 15.9947 156.59 11.6242 158.521C6.92824 160.717 3.05454 163.595 -0.880726 167.063C-5.14137 170.796 -8.93595 175.771 -13.988 178.526C-25.7498 185.654 -39.2615 175.294 -50.9836 173.475C-62.4112 171.686 -73.2935 173.237 -82.9492 177.302C-79.5108 172.887 -76.0416 168.176 -72.3085 163.791C-68.8701 159.376 -65.3393 154.075 -60.2565 151.025C-51.6869 145.951 -41.2662 148.828 -32.7581 144.345C-31.1928 143.613 -29.8913 142.555 -28.5591 141.202C-26.5453 139.025 -25.3229 135.871 -22.7507 134.05C-17.9316 130.674 -8.42552 133.754 -3.21519 135.192C7.76386 138.426 19.4288 146.505 27.7917 154.836C24.3181 153.877 20.2554 152.857 17.3402 152.255C12.9521 151.499 8.8278 151.069 4.40891 150.608C0.253826 150.473 -3.90126 150.338 -8.1179 150.793C-9.82389 150.019 -12.9721 148.795 -14.7088 148.316C-16.4456 147.836 -17.8878 147.387 -19.6246 146.908C-21.0975 146.754 -22.8651 146.57 -24.3689 146.711C-26.1056 146.232 -27.6094 146.374 -29.4385 146.779C-27.904 146.343 -26.1364 146.527 -24.3689 146.711ZM110.044 202.799C108.184 203.5 105.085 204.669 102.249 206.163C105.502 203.519 108.756 200.874 112.335 197.966C117.216 193.999 122.422 189.768 128.327 187.4C131.427 186.232 134.79 185.389 138 186.022C141.21 186.655 144.002 188.438 147.181 189.366C153.244 191.192 159.382 189.445 165.397 188.879C183.737 187.211 194.865 203.29 209.771 211.707C201.197 211.111 192.407 212.582 184.611 215.946C181.806 217.145 178.97 218.64 176.429 220.165C173.562 221.955 170.897 224.66 167.472 226.093C159.413 229.132 152.43 221.839 147 216.798C137.521 207.753 125.596 205.018 112.652 206.353C109.939 206.667 106.9 207.245 104.157 207.854C106.667 206.624 109.209 205.099 110.774 204.367C114.819 202.7 118.834 201.329 122.817 200.252L123.112 200.283C126.027 200.885 129.268 201.223 132.152 202.121C133.889 202.6 135.331 203.049 136.773 203.498C135.362 202.754 133.625 202.274 132.183 201.826C129.593 200.959 127.267 200.418 124.646 199.846C126.181 199.41 127.39 199.237 128.894 199.096C131.018 198.72 133.111 198.64 135.203 198.56C137.296 198.48 139.359 198.695 141.39 199.205C143.421 199.716 145.422 200.521 147.066 201.886C149.797 204.259 153.503 205.839 156.977 206.798C158.357 207.837 159.738 208.877 161.15 209.62C162.561 210.364 164.003 210.813 165.445 211.262C166.887 211.711 168.33 212.159 170.097 212.344C170.981 212.436 171.57 212.497 172.454 212.59C171.57 212.497 170.981 212.436 170.128 212.049C168.686 211.6 167.244 211.151 165.801 210.702C164.359 210.254 162.948 209.51 161.536 208.766C160.42 208.052 159.567 207.665 158.45 206.952L158.744 206.983C160.807 207.198 163.194 207.148 165.054 206.447C167.208 205.777 169.099 204.78 170.99 203.784C172.881 202.788 175.035 202.117 177.128 202.037C179.221 201.957 181.283 202.172 183.314 202.682C187.377 203.703 191.348 205.609 194.667 208.044C191.348 205.609 187.408 203.408 183.345 202.387C181.314 201.877 179.282 201.367 176.895 201.416C176.011 201.324 175.391 201.558 174.771 201.792C175.097 201.527 175.422 201.263 175.747 200.998C176.398 200.469 177.018 200.236 177.669 199.707C178.32 199.178 178.94 198.944 179.56 198.71C180.179 198.477 181.094 198.274 181.683 198.335C180.799 198.243 180.179 198.477 179.56 198.71C178.94 198.944 178.025 199.147 177.405 199.381C176.785 199.615 176.134 200.143 175.484 200.672C174.833 201.201 173.857 201.995 173.501 202.554C172.586 202.757 171.935 203.286 171.021 203.489C169.13 204.485 167.239 205.482 165.116 205.857C162.961 206.527 160.899 206.312 158.837 206.097C154.743 205.372 150.742 203.761 147.453 201.031C145.809 199.666 143.839 198.566 141.513 198.025C140.66 197.637 139.482 197.515 138.598 197.422C141.698 196.254 145.061 195.411 148.425 194.568C150.254 194.162 152.378 193.787 154.502 193.412C156.625 193.037 158.424 192.926 160.455 193.436C158.424 192.926 156.331 193.006 154.502 193.412C152.409 193.492 150.579 193.898 148.456 194.273C144.503 195.055 140.814 196.162 137.125 197.269C136.536 197.207 135.947 197.146 135.357 197.084C133.264 197.165 131.171 197.245 128.753 197.589C126.629 197.965 124.506 198.34 122.382 198.715C118.104 199.761 114.089 201.132 110.044 202.799ZM146.306 140.641C151.046 135.168 156.081 129.725 162.698 126.238C165.829 124.775 169.223 123.637 172.525 123.384C176.122 123.163 179.534 124.712 183.192 123.9C187.734 123.18 191.3 123.254 195.657 124.305C199.72 125.325 204.108 126.081 208.202 126.807C213.474 127.655 218.776 128.208 224.404 128.496C224.079 128.761 223.784 128.73 223.753 129.025C219.849 132.198 216.472 136.023 213.095 139.848C211.376 142.056 209.951 144.294 208.263 146.207C205.862 149.239 203.18 149.257 200.111 150.131C196.127 151.207 194.052 153.974 191.915 157.332C188.71 162.368 185.394 165.603 179.146 165.548C173.193 165.524 168.106 162.905 163.344 160.022C155.79 155.355 149.089 151.076 140.7 148.709C146.39 148.407 152.405 147.841 157.83 147.213C158.745 147.01 159.334 147.072 160.249 146.869C162.188 148.264 164.421 149.691 166.36 151.087C167.477 151.8 168.269 152.777 169.385 153.491C170.471 154.499 171.263 155.477 172.054 156.454C171.588 155.212 170.502 154.204 169.711 153.226C168.919 152.249 167.833 151.24 166.717 150.527C165.072 149.162 163.428 147.797 161.489 146.401C163.612 146.026 165.736 145.651 167.86 145.276C169.394 144.839 171.193 144.728 172.758 143.996C173.083 143.732 173.703 143.498 174.029 143.234L174.354 142.969L174.679 142.705L175.036 142.145C175.392 141.586 176.042 141.057 176.693 140.528C177.995 139.47 179.56 138.738 180.831 137.976C181.745 137.773 182.396 137.244 183.311 137.041C186.753 138.295 189.932 139.223 193.406 140.182C195.143 140.662 196.879 141.141 198.647 141.325C196.91 140.846 195.173 140.366 193.437 139.887C190.258 138.959 187.404 137.766 184.256 136.543C184.581 136.278 184.876 136.309 185.496 136.075C188.565 135.202 191.929 134.359 194.967 133.781C198.3 133.233 201.369 132.36 204.671 132.107C206.175 131.966 208.004 131.56 209.477 131.713C210.36 131.806 211.275 131.603 211.864 131.664C212.453 131.725 213.337 131.818 213.926 131.879C213.368 131.522 212.484 131.43 211.895 131.369C211.011 131.277 210.127 131.185 209.507 131.418C207.709 131.529 206.205 131.671 204.702 131.812C201.4 132.065 198.036 132.907 194.998 133.486C194.378 133.719 193.494 133.627 192.874 133.861C193.586 132.742 194.299 131.622 195.305 130.534C195.956 130.005 196.312 129.445 196.963 128.917C196.312 129.445 195.662 129.974 195.011 130.503C194.004 131.592 192.672 132.945 191.634 134.328C189.51 134.704 187.356 135.374 185.232 135.749C183.698 136.186 182.132 136.918 180.567 137.65C179.002 138.382 177.436 139.113 176.135 140.171C175.484 140.7 174.833 141.229 174.183 141.758L173.532 142.287L173.501 142.582C173.501 142.582 173.501 142.582 173.47 142.877C173.145 143.141 172.82 143.406 172.525 143.375C170.96 144.107 169.456 144.249 167.921 144.685C167.007 144.888 166.418 144.827 165.503 145.03C166.725 141.875 168.242 138.751 170.054 135.658C171.122 133.979 172.16 132.596 173.198 131.212C173.879 130.388 174.53 129.859 175.181 129.33C174.53 129.859 173.585 130.357 172.903 131.181C171.571 132.534 170.533 133.918 169.465 135.597C168.396 137.276 167.359 138.659 166.585 140.369C165.811 142.078 165.068 143.493 164.294 145.202C162.17 145.577 160.077 145.657 157.659 146.002C156.45 146.174 155.566 146.082 154.357 146.254C149.551 146.648 144.156 146.981 139.381 147.08C141.953 145.259 143.936 143.377 146.306 140.641ZM194.242 77.9099C192.32 79.2014 190.399 80.4928 188.508 81.4891C186.618 82.4855 184.463 83.1559 182.309 83.8263C180.479 84.2323 178.945 84.669 177.147 84.7798L192.316 73.5319C194.576 68.9936 196.836 64.4554 199.391 59.9479C200.815 57.7095 201.945 55.4404 203.339 53.4972C204.052 52.378 204.733 51.5539 205.74 50.4655C205.028 51.5847 204.052 52.378 203.339 53.4972C201.915 55.7356 200.521 57.6788 199.096 59.9172C198.384 61.0364 197.641 62.4507 196.929 63.5699C196.524 61.7375 196.414 59.9359 196.335 57.839C196.164 56.6277 196.256 55.7422 196.084 54.5308C196.208 53.3502 196.005 52.434 196.423 51.284C196.005 52.434 195.913 53.3194 195.79 54.5001C195.667 55.6807 195.574 56.5662 195.746 57.7776C195.825 59.8744 195.873 62.2664 196.247 64.394C194.761 67.2227 192.98 70.0207 191.788 72.8801L169.289 88.7343C169.861 86.1086 170.727 83.5136 171.563 81.2138C172.011 79.7687 172.785 78.0592 173.233 76.6141C173.977 75.1998 174.72 73.7854 175.757 72.4018C174.456 73.4595 173.713 74.8739 172.97 76.2882C172.227 77.7026 171.483 79.1169 171.004 80.8572C169.813 83.7166 168.946 86.3116 168.049 89.2018L155.839 97.7746C156.195 97.215 156.846 96.6861 156.877 96.391C157.233 95.8314 157.589 95.2718 157.945 94.7122C158.627 93.8882 159.014 93.0334 159.726 91.9142C160.113 91.0594 160.764 90.5306 161.151 89.6758C161.924 87.9663 162.373 86.5212 162.852 84.781C163.811 81.3005 164.18 77.7586 164.844 74.2474C165.293 72.8023 165.741 71.3572 166.19 69.9121C166.994 67.9075 168.419 65.6691 170.046 64.3469C172.323 62.4958 174.711 62.4464 177.718 62.1633C181.315 61.9417 183.857 60.4165 185.932 57.6492C188.394 54.0272 189.709 49.9871 193.288 47.0783C196.867 44.1695 201.176 42.8286 205.252 40.8667C208.677 39.4337 211.869 37.3797 214.534 34.6738C213.501 41.727 212.762 48.8108 211.729 55.8639C211.267 60.2913 210.774 65.0139 208.87 68.9925C206.641 73.2356 201.774 74.2198 198.753 77.4852C196.383 80.2218 194.866 83.3457 193.613 86.7954C192.839 88.5049 192.329 90.5403 191.291 91.924C189.216 94.6912 186.798 95.0358 183.79 95.3189C175.357 96.2296 166.954 96.8452 158.816 97.7867L175.937 84.9521C178.325 84.9027 180.48 84.2323 182.634 83.5619C184.788 82.8914 186.974 81.9258 188.864 80.9295C190.663 80.8187 192.584 79.5272 194.242 77.9099C196.163 76.6184 197.821 75.0011 199.184 73.353C197.526 74.9704 195.869 76.5877 194.242 77.9099ZM138.573 23.4701C144.905 31.2913 148.879 38.8666 150.22 48.8527C151.39 57.6274 151.552 67.4906 150.04 76.2839C148.712 83.3063 142.886 87.771 139.294 93.6622C139.074 90.0588 138.885 86.1603 138.959 82.5877C138.85 80.786 138.77 78.6891 138.955 76.9182C140.239 73.1733 141.523 69.4283 143.071 66.0093C143.875 64.0046 144.649 62.2951 145.748 60.3212C146.135 59.4664 146.817 58.6424 147.235 57.4925C147.916 56.6684 148.598 55.8444 149.248 55.3155C148.303 55.8137 147.622 56.6377 146.94 57.4617C146.259 58.2858 145.872 59.1405 145.19 59.9646C144.122 61.6434 143.317 63.648 142.218 65.622C140.732 68.4507 139.509 71.6053 138.287 74.7599L138.318 74.4647C138.392 70.8921 138.436 67.6146 138.511 64.042C138.696 62.271 138.586 60.4693 138.74 58.9935C138.832 58.108 138.924 57.2226 139.017 56.3371C139.109 55.4516 139.202 54.5661 139.558 54.0065L139.848 48.3678C138.916 45.8836 138.014 43.1043 137.082 40.6201C137.236 39.1443 137.421 37.3733 137.575 35.8975C137.667 35.0121 137.76 34.1266 138.116 33.567C138.146 33.2718 138.208 32.6815 138.533 32.4171C138.564 32.1219 138.92 31.5623 139.246 31.2979C138.92 31.5623 138.595 31.8267 138.533 32.4171C138.503 32.7122 138.146 33.2718 138.116 33.567C137.729 34.4217 137.636 35.3072 137.575 35.8975C137.126 37.3426 137.034 38.2281 136.911 39.4087C136.445 38.1666 135.979 36.9246 135.807 35.7132C135.139 33.5549 134.471 31.3966 134.097 29.2691C133.723 27.1415 133.086 24.6881 133.301 22.6219C133.35 25.0139 133.723 27.1415 134.097 29.2691C134.471 31.3966 135.108 33.8501 135.777 36.0084C137.113 40.3249 138.45 44.6415 139.786 48.9581L139.527 54.3017C139.14 55.1564 139.048 56.0419 138.661 56.8967C138.63 57.1918 138.568 57.7822 138.538 58.0773C138.072 56.8352 137.311 55.5624 136.845 54.3203C136.146 52.4572 135.121 50.8585 134.097 49.2598C133.072 47.6612 132.048 46.0625 130.729 44.4331C129.41 42.8036 128.06 41.4694 126.354 40.6947C128.029 41.7646 129.379 43.0988 130.403 44.6975C131.722 46.3269 132.452 47.8949 133.477 49.4936C134.501 51.0922 135.2 52.9554 135.93 54.5233C136.629 56.3865 137.359 57.9544 138.058 59.8176C137.874 61.5885 137.72 63.0643 137.535 64.8353C137.46 68.4079 137.416 71.6854 137.341 75.258C136.55 74.2804 136.053 73.3335 135.262 72.3558C134.206 71.0523 133.182 69.4536 131.832 68.1194C130.777 66.8158 129.427 65.4816 128.046 64.4425C126.666 63.4034 124.991 62.3336 123.254 61.8541C124.991 62.3336 126.371 63.3727 127.752 64.4118C129.133 65.4509 130.188 66.7544 131.507 68.3838C133.617 70.9909 135.697 73.8931 137.188 76.7338C137.223 82.1082 137.289 87.1873 137.324 92.5617C136.251 88.571 134.233 85.0784 131.889 81.8503C128.785 77.3494 124.969 73.9677 123.166 68.4091C116.5 49.5134 127.726 30.3949 130.61 11.3016C132.303 15.0586 135.144 19.2336 138.573 23.4701Z" fill="#EFB7C1"/>
</svg>
