<svg width="262" height="280" viewBox="0 0 262 280" fill="none" xmlns="http://www.w3.org/2000/svg">
<path opacity="0.7" d="M3.05225 197.635C5.24777 196.168 7.44331 194.946 9.63884 193.48C14.7618 189.814 19.6407 185.903 24.2758 181.993C30.8624 176.371 37.2051 170.505 44.7675 166.106C49.6465 163.173 55.0133 160.973 60.6241 159.751C65.0152 158.774 69.6503 158.774 74.0413 159.507C79.8961 160.485 85.263 162.684 91.3617 162.684C97.9483 162.684 104.291 160.729 109.902 157.552C116.244 154.13 121.367 149.486 124.539 142.887C125.027 141.91 125.515 140.932 126.002 139.954C126.978 137.999 127.954 136.044 128.93 134.333C131.125 130.667 133.321 127.001 135.516 123.335C137.956 119.669 140.151 116.002 142.591 112.581C143.811 110.87 145.03 108.915 146.25 107.204C147.226 105.493 148.446 103.782 149.665 102.316C150.885 100.849 151.129 99.1384 151.861 97.4275C152.593 95.7167 153.813 94.0058 154.788 92.295C155.032 91.8061 155.52 91.3173 155.764 90.8285C155.52 91.0729 154.788 91.5617 154.3 91.8061C153.813 92.0505 153.325 92.5394 152.837 92.7838C151.861 93.517 150.885 94.0058 149.909 94.739C147.47 96.4499 145.03 98.1607 142.835 100.116C131.613 117.225 114.049 140.443 90.3859 132.622C86.9706 131.4 84.7751 130.178 80.8719 132.133C78.6764 133.355 76.4808 134.089 74.0413 133.844C69.6503 133.844 65.7471 131.889 62.0878 129.689C56.721 126.512 51.842 122.601 46.963 118.447C44.2796 116.247 41.8401 113.803 39.6446 111.359C38.4248 110.137 37.2051 108.67 35.9853 107.448C35.0095 106.471 34.5216 105.493 33.5458 104.515C37.9369 104.76 42.328 105.982 46.963 106.226C51.5981 106.226 56.2331 105.982 60.8681 105.004C72.0897 103.049 81.1159 97.9163 90.8738 92.5394C98.1923 88.3844 106.73 84.4739 115.269 86.4292C118.44 87.1624 121.123 88.8732 123.807 90.8285C126.734 92.7838 129.418 94.9834 132.589 96.4499C135.272 97.9163 138.444 98.6496 141.615 97.4275C143.567 96.6943 145.274 94.9834 146.982 93.7614C148.934 92.295 150.885 91.0729 152.837 89.8509C153.081 89.8509 153.081 89.8509 153.325 89.6065C154.544 88.8732 155.764 88.14 156.984 87.4068C157.716 86.918 158.448 86.4292 159.179 85.9403C160.155 85.4515 160.887 84.7183 161.619 83.9851C162.107 83.2519 162.839 82.5186 163.327 81.7854C164.302 80.319 165.278 78.6081 166.01 76.8973C166.742 75.4308 167.23 73.9644 167.718 72.4979C170.157 64.9213 173.816 57.8335 178.939 51.7233C181.867 48.0572 186.258 44.8799 188.209 40.4805C189.429 37.792 189.917 34.6147 190.893 31.9263C189.917 34.6147 179.427 37.5476 176.5 38.5253C170.645 40.4805 165.034 40.7249 158.936 41.4582C153.325 46.5907 147.226 51.4789 141.127 55.8782C136.004 59.7887 130.394 63.6993 124.539 66.1433C120.392 67.8542 115.269 69.0762 110.878 67.3654C104.535 65.1657 101.608 59.0555 94.777 57.8335C89.1662 56.8558 83.5553 58.0779 77.9445 57.1003C72.5776 56.1226 68.1866 53.4341 64.5273 49.5236C59.6483 44.3911 55.9891 38.2809 52.3299 32.1707C49.8904 28.2601 47.207 24.1052 44.7675 20.1947C43.3038 17.7506 41.5961 15.3065 40.1324 12.8625C51.598 18.7283 62.8197 25.8161 76.2369 24.1052C86.4827 22.6388 96.2407 19.7059 104.779 27.5269C109.414 31.6819 113.561 35.348 119.66 37.3032C125.515 39.2585 132.101 39.7473 138.2 39.7473C141.859 39.7473 145.518 39.5029 149.178 39.2585C151.129 39.0141 152.837 39.0141 154.788 38.7697C156.984 38.5253 159.179 38.0365 161.619 38.0365C170.157 38.0365 177.72 35.5924 185.038 31.6819C189.185 29.4822 192.844 26.5493 196.748 23.6164C198.699 22.15 200.407 20.6835 202.358 18.9727C205.774 16.2842 207.481 12.6181 210.165 8.95195C213.336 3.33057 219.679 -0.335543 225.778 -3.51284C232.852 -7.42336 239.927 -11.3339 247.001 -15C247.245 -13.778 247.733 -12.5559 247.977 -11.3339C241.634 -7.91218 235.535 -4.49047 229.193 -1.31317C222.606 2.35294 215.288 6.01905 211.141 12.8625C207.725 18.4838 205.774 26.0605 204.798 32.4151C204.31 34.8592 203.822 37.3032 203.578 39.7473C203.578 39.9917 203.578 40.2361 203.334 40.4805C203.09 42.1914 202.358 43.9022 201.871 45.6131C201.627 47.3239 201.383 49.0348 201.139 50.9901C200.895 54.6562 200.895 58.3223 201.139 61.9884C201.871 69.3206 203.578 76.6529 206.018 83.4963C206.506 84.9627 206.993 86.1848 207.725 87.6512C210.897 94.9834 215.532 102.071 221.874 106.715C228.217 111.114 235.779 112.581 242.366 116.491C247.245 119.18 251.636 123.579 252.612 129.201C253.588 135.555 250.904 142.154 250.66 148.509C250.416 155.597 251.148 162.684 253.344 169.528C254.563 173.194 256.027 176.616 257.735 179.793C258.955 182.237 260.418 184.681 261.638 187.125C262.37 188.592 261.882 188.592 261.15 188.347C260.906 188.347 260.418 188.103 260.174 187.858C255.539 184.437 250.904 181.259 245.781 178.571C240.902 175.882 236.023 173.438 231.144 170.994C220.411 165.128 211.628 158.285 207.725 146.309C206.506 142.887 205.774 139.221 204.066 135.8C202.114 131.156 198.699 128.467 195.284 124.801C190.649 120.402 188.697 114.292 188.697 108.181C188.453 101.338 190.161 94.4946 191.869 87.8956C193.332 81.7854 195.04 75.6752 196.504 69.565C196.992 68.0986 197.235 66.6321 197.723 65.1657C197.967 63.9437 198.211 62.966 198.455 61.744C198.699 60.7664 198.699 59.7887 198.699 58.8111C198.455 57.5891 198.699 56.6114 198.699 55.3894C198.699 53.4341 198.943 51.4789 198.943 49.2792C199.431 45.1243 200.651 41.4582 201.383 37.5476C201.871 35.1036 202.114 32.6595 202.602 30.2154C203.09 27.7713 203.578 24.594 204.31 22.15C200.895 24.594 197.967 26.5493 194.796 29.2378C194.064 30.9486 193.088 32.6595 192.6 34.3703C192.113 36.3256 191.869 38.2809 191.137 39.9917C190.161 42.9246 188.209 45.3687 186.014 47.8128C180.647 53.6785 175.768 59.5443 172.353 66.8766C169.425 73.72 168.45 80.5634 163.327 86.4292C160.887 89.3621 158.204 91.8061 156.496 95.2278C154.3 99.1384 153.569 103.538 153.081 107.937C152.593 112.092 152.837 116.247 153.081 120.402C153.569 124.312 154.057 128.712 155.032 132.622C155.52 134.333 156.74 135.555 157.716 137.022C158.936 138.488 159.911 139.954 161.131 141.176C163.571 143.865 166.254 146.309 169.181 148.509C174.06 152.175 179.671 155.108 184.794 158.529C192.113 163.662 198.943 171.727 197.723 181.259C197.235 185.903 194.064 189.325 191.869 193.48C190.161 196.901 189.917 199.59 190.893 203.256C191.381 205.211 191.869 206.922 191.625 208.877C191.137 214.254 186.746 219.387 184.55 224.031C183.086 227.452 179.671 234.296 179.427 239.917V240.162C179.427 240.65 179.427 240.895 179.427 241.384C179.183 241.872 179.183 242.361 178.939 242.85V243.094C178.695 243.583 178.451 243.828 178.451 244.316V244.561C177.964 243.828 177.476 243.094 176.988 242.361C173.572 235.273 169.669 228.674 165.278 222.075C163.083 218.654 160.643 215.476 158.204 212.299C155.52 208.877 152.593 205.456 151.373 201.301C150.641 199.101 150.641 196.901 149.665 194.702C148.69 192.746 147.226 191.28 146.25 189.569C144.786 186.881 143.811 183.948 143.323 180.771C142.103 173.683 143.811 166.595 146.006 159.751C148.69 152.175 154.544 143.621 153.325 135.066C152.105 127.49 150.397 120.157 150.641 112.336C150.641 110.137 150.885 107.937 151.129 105.982C142.835 118.447 133.809 130.911 127.71 144.598C124.539 151.686 121.855 159.018 118.928 166.35C117.708 169.528 116.488 172.705 115.269 175.882C115.269 175.882 115.269 175.882 115.269 176.127C119.66 188.347 124.539 200.812 128.198 213.277C130.881 222.075 120.392 227.697 116.732 234.785C114.049 239.428 115.269 245.05 112.829 249.693C110.634 253.604 106.974 256.292 103.315 258.737C95.5088 263.869 87.4585 268.757 79.4082 273.89C75.9929 276.089 72.5776 278.534 68.6745 280C71.8458 277.8 73.7974 273.401 75.0171 269.979C75.9929 266.802 76.2369 263.625 76.2369 260.447C76.2369 257.026 75.9929 253.36 75.9929 249.938C76.2369 246.027 76.7248 242.117 78.6764 238.695C80.8719 234.785 85.263 231.118 85.7509 226.475C86.2388 222.075 82.8235 218.409 83.0674 213.766C83.3114 210.344 84.7751 207.167 86.9706 204.478C91.8496 198.368 99.656 195.435 104.779 189.814C108.194 186.147 109.658 181.504 111.609 177.104C112.585 174.905 113.561 172.949 114.537 170.75C116.732 165.128 118.928 159.263 121.123 153.641C116.976 158.041 111.853 161.462 106.243 163.418C106.243 163.418 105.999 163.418 105.999 163.662C104.047 164.884 103.071 167.573 101.852 169.283C100.632 171.239 99.656 173.438 98.6802 175.394C96.7286 179.548 94.533 183.703 91.1178 186.636C83.5553 192.991 72.5776 197.635 63.3076 200.812C54.2815 203.989 44.7675 205.456 35.2535 203.745C23.5439 201.545 12.8102 196.901 1.10065 201.545C0.856689 201.545 0.612732 201.79 0.124847 201.79C-0.606995 199.59 2.07645 198.368 3.05225 197.635ZM122.099 105.982C119.904 108.915 117.708 111.848 115.025 114.536C113.805 116.002 112.341 117.225 110.878 118.691C109.414 119.913 107.706 121.135 105.999 121.868C107.706 121.135 109.414 119.913 110.634 118.691C112.097 117.469 113.317 116.002 114.537 114.536C116.732 112.092 118.684 109.403 120.636 106.471C119.904 106.715 119.172 106.715 118.44 106.959C116.732 107.448 114.781 107.693 113.073 107.937C111.122 108.181 109.414 108.426 107.462 108.67C104.291 108.915 100.876 108.915 97.7044 109.403C95.7528 111.114 93.8012 113.07 91.8496 114.536C89.898 116.247 87.7025 117.958 85.5069 119.424C83.3114 120.891 81.1159 122.357 78.6764 123.579C77.4566 124.068 76.2369 124.801 75.0171 125.046C73.7974 125.534 72.3337 125.779 71.1139 125.534C72.3337 125.534 73.7974 125.29 75.0171 124.801C76.2369 124.312 77.4566 123.824 78.6764 123.09C81.1159 121.868 83.3114 120.402 85.263 118.691C89.1662 115.758 92.8254 112.336 96.2407 108.915C92.5814 109.159 89.1662 109.892 85.7509 111.359C84.0432 112.092 82.3356 112.825 80.6279 113.558C78.9203 114.292 77.2127 114.78 75.2611 115.269C71.6019 116.247 67.9426 116.736 64.2834 116.491C62.3318 116.491 60.6241 116.247 58.9165 115.758C57.2089 115.269 55.2573 114.78 53.7936 114.047C55.5012 114.78 57.2089 115.269 59.1605 115.514C60.8681 115.758 62.8197 116.002 64.5273 116.002C68.1866 116.002 71.8458 115.514 75.2611 114.536C76.9687 114.047 78.6764 113.558 80.384 112.825C82.0916 112.092 83.5553 111.114 85.5069 110.626C88.9222 109.159 92.5814 108.426 96.2407 107.937C99.1681 107.693 101.852 107.448 104.779 107.204L94.777 99.8716L85.7509 100.605L94.777 99.6272L105.755 107.204C105.999 107.204 106.487 107.204 106.73 107.204C108.438 106.959 110.39 106.715 112.097 106.471C113.805 106.226 115.757 105.737 117.464 105.249C122.831 104.027 130.15 101.582 136.004 99.8716C130.881 98.894 126.246 95.2278 121.855 92.0505C110.39 84.2295 98.6802 90.0953 88.1904 96.4499C73.0655 105.249 56.721 109.892 39.6446 108.181C39.8885 108.426 39.8885 108.426 40.1324 108.67C44.2796 112.581 48.4267 116.736 53.0617 120.157C57.9407 123.824 63.0636 127.978 68.6745 129.934C71.8458 130.911 75.0171 131.156 77.9445 129.689C79.8961 128.956 81.6038 127.734 83.5553 127.49C85.5069 127.49 86.9706 128.223 88.6783 128.956C91.3617 129.934 94.0452 130.667 96.9725 130.667C102.583 130.911 108.194 129.445 113.073 126.756C124.051 121.135 131.369 110.87 137.956 100.849C134.541 102.804 126.978 104.76 122.099 105.982ZM121.855 57.8335L129.906 50.0124C126.734 50.5012 123.319 50.9901 120.148 50.9901C116.244 50.9901 112.097 50.7457 108.438 49.2792C107.95 49.0348 107.462 49.0348 106.974 48.7904L105.511 48.0572C104.535 47.5684 103.803 47.0795 103.071 46.5907C102.095 45.8575 101.12 45.3687 100.144 44.6355C99.656 45.1243 98.9241 45.3687 98.4362 45.8575C97.7044 46.3463 96.9725 46.5907 96.2407 46.8351C95.5088 47.0795 94.777 47.3239 93.8012 47.3239C93.0693 47.3239 92.0936 47.3239 91.3617 47.0795C92.0936 47.3239 92.8254 47.3239 93.5572 47.0795C94.2891 46.8351 95.0209 46.5907 95.7528 46.3463C96.4846 46.1019 97.2165 45.6131 97.7044 45.1243C98.1923 44.8799 98.6802 44.3911 99.1681 43.9022C98.6802 43.6578 98.4362 43.4134 97.9483 43.169C96.2407 42.1914 94.533 41.2138 92.8254 40.4805C91.6057 39.9917 90.6299 39.7473 89.4101 39.5029C85.9948 40.4805 82.0917 41.4582 78.6764 42.4358C76.9687 42.9246 75.2611 43.169 73.5534 43.6578C72.5776 43.9022 71.8458 43.9022 70.87 44.1466C70.3821 44.1466 69.8942 44.1466 69.6503 44.3911C69.1624 44.3911 68.6745 44.3911 68.4305 44.1466C68.9184 44.3911 69.4063 44.3911 69.6503 44.3911C70.1382 44.3911 70.6261 44.3911 70.87 44.1466C71.8458 43.9022 72.5776 43.9022 73.5534 43.6578C75.2611 43.169 76.9687 42.6802 78.6764 42.1914C81.8477 41.2138 84.5311 40.4805 87.7025 39.5029C87.7025 39.5029 87.7025 39.5029 87.4585 39.5029C83.5553 39.0141 79.6521 39.0141 75.749 38.5253C73.7974 38.2809 71.8458 38.0365 69.8942 37.3032C67.9426 36.8144 66.235 35.8368 64.7713 34.8592C66.235 36.0812 68.1866 36.8144 70.1382 37.3032C72.0898 37.792 74.0413 38.0365 75.9929 38.2809C79.8961 38.7697 83.7993 38.7697 87.7025 39.0141C89.1662 39.2585 90.6299 39.5029 92.0936 39.9917C91.6057 38.7697 91.1177 37.3032 90.6299 36.0812C89.898 34.6147 88.9222 33.1483 87.7025 32.1707C89.1662 33.1483 90.142 34.3703 91.1178 35.8368C91.6057 36.57 92.0936 37.3032 92.3375 38.0365C92.8254 38.7697 93.0694 39.5029 93.3133 40.2361H93.5572C95.5088 40.9693 97.2165 41.7026 98.9241 42.6802C100.632 43.6578 102.339 44.6355 103.803 45.8575C104.535 46.3463 105.511 46.8351 106.243 47.3239L107.462 47.8128C107.95 48.0572 108.438 48.0572 108.926 48.3016C110.634 48.7904 112.585 49.2792 114.537 49.5236L110.39 42.6802L105.023 38.2809L110.634 42.1914L115.513 49.2792C116.976 49.5236 118.684 49.5236 120.148 49.2792C124.051 49.2792 127.954 48.546 131.613 47.8128C135.516 47.0795 139.176 45.8575 142.835 44.8799C144.786 44.1466 147.958 42.9246 150.397 41.947C145.762 42.4358 140.883 42.6802 136.248 42.6802C124.783 42.6802 113.317 40.2361 104.535 31.9263C101.852 29.4822 99.656 26.7937 95.9967 25.8161C92.8254 24.8384 89.1662 25.0829 85.9948 25.3273C80.384 26.0605 74.7732 27.5269 69.1624 27.2825C61.112 27.0381 53.3057 24.1052 46.7191 19.4615C52.0859 28.0157 57.4528 36.8144 63.5515 44.6355C67.6987 49.768 72.8216 53.6785 79.6521 54.4118C84.5311 54.9006 89.6541 54.1674 94.533 54.9006C99.412 55.6338 102.583 58.0779 105.999 61.2552C111.609 66.1433 117.464 65.8989 124.051 62.966C134.053 58.3223 143.323 50.9901 151.617 43.6578C148.69 44.6355 145.03 46.1019 143.079 46.5907C139.42 47.8128 135.516 48.7904 131.613 49.5236C131.369 49.5236 131.369 49.5236 131.125 49.5236L121.855 57.8335ZM198.699 82.7631C198.455 80.5634 198.455 76.6529 198.211 72.9867C196.992 77.6305 195.772 82.5186 194.552 87.1624C192.844 94.2502 190.893 101.582 191.381 108.915C191.625 112.581 192.6 116.491 194.552 119.669C196.748 122.846 199.919 124.801 202.358 127.734C206.993 133.111 208.213 140.199 210.653 146.798C217.727 166.35 239.927 170.505 255.539 181.748C250.904 173.194 248.221 163.418 247.733 153.397C247.733 149.975 247.733 146.309 248.221 142.887C248.709 138.977 250.172 134.822 249.928 130.911C249.197 120.891 238.219 117.225 230.413 114.292C216.507 108.67 207.725 97.9163 203.09 83.7407C202.114 80.5634 201.139 77.3861 200.407 74.2088C200.163 77.3861 199.919 80.8078 199.919 82.7631C200.163 87.6512 200.651 92.5394 201.383 97.1831V97.4275C203.334 100.36 205.53 103.293 207.725 105.982C208.945 107.448 210.165 108.915 211.628 110.137C213.092 111.359 214.556 112.825 216.263 113.314C214.556 112.581 212.848 111.359 211.385 110.137C209.921 108.915 208.701 107.448 207.481 105.982C205.53 103.782 203.578 101.582 201.871 99.1384C202.114 100.605 202.602 102.316 203.09 103.782C203.822 105.982 204.554 108.426 205.53 110.626C206.506 112.825 207.725 114.78 209.189 116.736C210.653 118.447 212.604 120.157 214.556 121.135C218.459 122.846 221.874 125.779 224.314 129.201C226.021 129.934 227.729 131.156 229.193 132.378C230.656 133.6 231.876 134.822 233.096 136.044C234.316 137.266 235.292 138.732 236.511 140.199C235.535 138.732 234.316 137.51 233.096 136.288C231.876 135.066 230.656 133.844 229.193 132.867C228.217 132.133 226.997 131.4 225.778 130.667L226.021 130.911C227.241 133.111 228.461 135.311 228.705 137.755C229.193 140.199 228.949 142.643 228.949 145.087C228.949 147.531 229.193 149.975 230.169 152.175C231.144 154.374 232.608 156.33 234.072 158.285C237.243 161.951 240.902 165.128 245.293 167.572C241.146 165.128 237.243 162.196 234.072 158.529C232.608 156.574 231.144 154.619 230.169 152.419C229.925 151.686 229.437 150.708 229.437 149.975C229.193 150.464 229.193 150.708 228.949 151.442C228.705 152.175 228.705 153.152 228.461 153.886C228.461 154.619 228.461 155.597 228.461 156.33C228.461 157.063 228.705 158.041 228.949 158.774C228.705 158.041 228.217 157.063 228.217 156.33C227.973 155.352 227.973 154.619 227.973 153.641C227.973 152.664 227.973 151.93 228.217 150.953C228.461 150.22 228.705 148.753 228.949 148.02C228.705 147.042 228.705 146.065 228.705 145.087C228.705 142.643 228.705 140.199 228.461 137.755C228.217 135.311 226.997 133.111 225.778 131.156C223.094 127.245 219.435 123.824 215.044 121.868C212.848 120.891 210.897 119.18 209.189 117.225C208.457 116.247 207.725 115.514 207.237 114.536C207.725 118.447 208.213 122.357 208.945 126.023C209.433 128.223 209.921 130.423 210.653 132.622C211.385 134.822 212.116 137.022 213.58 138.977C212.116 137.022 211.385 134.822 210.409 132.867C209.677 130.667 208.945 128.467 208.457 126.268C207.481 121.868 206.749 117.469 206.262 112.825C206.018 112.336 205.53 111.603 205.286 111.114C204.31 108.915 203.334 106.471 202.602 104.271C201.871 101.827 201.383 99.6272 200.895 97.1831C199.675 92.5394 198.943 87.6512 198.699 82.7631ZM152.105 149.975C148.934 157.552 145.518 165.373 145.03 173.683C144.786 177.593 145.274 181.748 146.738 185.414C148.202 189.325 151.373 192.013 152.593 196.168C153.813 201.301 155.764 204.967 158.936 209.122C161.863 213.032 164.79 216.943 167.474 221.098C170.889 226.23 174.06 231.607 176.744 236.984C176.744 236.74 176.988 236.251 176.988 236.007C178.451 230.385 180.647 225.008 183.086 219.876C184.306 217.187 186.014 214.499 187.478 211.81C189.429 207.9 188.209 205.211 187.478 201.301C186.746 196.657 188.453 193.235 190.893 189.325C194.552 183.703 196.26 178.571 193.332 172.216C190.649 166.106 185.282 161.951 179.915 158.529C171.377 153.152 163.814 148.02 157.472 140.688C159.911 146.553 162.107 153.152 164.058 159.263C164.302 160.24 164.546 160.973 165.034 161.951C167.474 163.418 169.913 164.884 172.353 166.106C173.572 166.839 175.036 167.328 176.5 168.061C177.964 168.55 179.427 169.039 180.891 169.283C179.427 169.283 177.964 168.795 176.5 168.306C175.036 167.817 173.572 167.328 172.353 166.595C170.157 165.617 167.718 164.395 165.522 163.173C166.254 165.617 166.986 167.817 167.474 170.261C167.962 172.216 168.206 173.927 168.45 175.882C168.45 176.371 168.45 176.86 168.206 177.349C168.206 177.593 168.206 177.593 167.962 177.838L167.718 178.082L167.474 178.571C166.986 179.304 166.742 180.282 166.742 181.015C166.498 182.726 166.254 184.681 166.254 186.636C166.254 187.614 166.254 188.592 166.254 189.569C169.181 192.502 171.865 195.435 174.304 198.612C175.524 200.079 176.744 201.79 177.964 203.5C179.183 205.211 180.159 206.922 180.891 208.877C180.159 206.922 178.939 205.456 177.72 203.745C176.5 202.034 175.28 200.568 173.816 199.101C171.377 196.413 168.693 193.724 166.01 191.28C166.01 191.769 166.01 192.258 166.254 192.502C166.742 196.168 167.718 199.834 168.45 203.5C169.181 207.167 170.157 210.833 171.377 214.499C171.865 216.21 172.597 218.165 173.328 219.876C173.572 220.853 174.06 221.587 174.548 222.32C175.036 223.053 175.28 223.786 175.768 224.275C175.28 223.786 174.792 223.053 174.304 222.32C173.816 221.587 173.328 220.609 173.085 219.876C172.353 218.165 171.621 216.454 171.133 214.499C169.913 210.833 168.937 207.167 167.962 203.5C167.718 202.767 167.474 201.79 167.474 201.056C166.742 202.278 166.01 203.745 165.278 205.211C165.034 205.944 164.546 206.922 164.302 207.655C164.058 208.633 164.058 209.366 164.302 210.344C163.814 209.611 164.058 208.633 164.058 207.655C164.302 206.678 164.546 205.945 164.79 204.967C165.278 203.256 166.254 201.301 166.986 199.834C166.498 197.39 165.766 194.946 165.522 192.502C165.278 190.547 165.034 188.836 165.034 186.881C165.034 184.925 165.034 182.97 165.278 181.259C165.522 180.282 165.766 179.304 166.254 178.326L166.986 177.349V177.104V176.86C166.986 176.616 166.986 176.127 166.986 175.638C166.986 173.927 166.498 171.972 166.01 170.261C165.766 169.283 165.522 168.55 165.278 167.572C162.595 170.505 160.155 173.683 157.96 176.86C156.74 178.571 155.764 180.526 154.788 182.481C154.3 183.459 154.057 184.437 153.813 185.414C154.057 184.437 154.3 183.215 154.788 182.237C155.52 180.282 156.496 178.326 157.716 176.616C158.936 174.905 160.155 172.949 161.375 171.239C162.595 169.528 163.814 168.061 165.034 166.595C164.302 164.151 163.571 161.707 162.595 159.507C162.107 158.285 161.863 157.063 161.375 156.085C159.423 150.708 157.228 145.331 155.032 140.199C154.788 143.376 153.569 146.553 152.105 149.975ZM110.39 229.896C110.878 227.452 111.122 224.764 111.122 222.32C111.122 219.631 110.878 217.187 110.39 214.743C110.146 212.788 109.414 210.833 108.926 208.877L104.779 229.896C101.12 234.54 97.7044 239.184 94.2891 243.828C92.5814 246.272 91.1178 248.716 89.6541 251.16C88.9222 252.382 88.1904 253.604 87.7025 255.07C88.1904 253.848 88.9222 252.382 89.6541 251.16C91.1178 248.716 92.5814 246.027 94.2891 243.583C95.2649 242.117 96.2407 240.895 97.2165 239.428C95.0209 240.162 93.3133 240.65 91.1178 241.628C89.898 242.117 88.6783 242.606 87.7025 243.094C86.4827 243.583 85.5069 244.316 84.5311 245.05C85.5069 244.072 86.4827 243.583 87.7025 242.85C88.9222 242.361 89.898 241.628 91.1178 241.139C93.3133 240.162 95.9967 239.184 98.1923 238.206C100.388 235.273 102.583 232.341 104.779 229.408L110.39 198.368C107.95 200.323 105.755 202.278 103.559 204.478C102.339 205.7 100.876 207.167 99.656 208.389C98.4362 209.855 97.2165 211.321 96.7286 213.032C97.2165 211.321 98.4362 209.855 99.412 208.389C100.632 206.922 101.852 205.456 103.071 204.234C105.511 201.79 107.95 199.346 110.39 197.146L113.317 180.282C113.073 181.015 112.585 181.748 112.341 181.993C112.097 182.726 111.609 183.215 111.366 183.948C110.634 184.925 110.146 185.903 109.414 187.125C108.926 188.103 108.194 188.836 107.706 189.569C106.487 191.036 105.023 192.502 103.315 193.724C100.144 196.168 96.7286 198.368 93.5572 200.812C92.0936 202.034 90.8738 203.012 89.6541 204.478C87.9464 206.433 86.4827 208.633 85.7509 211.321C85.019 214.743 86.2388 217.187 87.2146 220.12C88.4343 224.031 88.4343 227.208 86.4827 230.63C84.0432 235.029 80.384 238.451 79.1643 243.583C77.9445 248.716 78.6764 253.848 78.6764 258.981C78.6764 263.136 78.1885 267.535 76.4808 271.446C83.3114 267.046 90.142 262.891 96.9725 258.492C101.12 255.804 105.999 253.36 108.926 249.205C112.097 244.805 110.878 239.428 113.073 234.54C114.781 230.874 117.464 227.697 120.148 224.764C121.611 223.053 123.319 221.587 124.295 219.631C126.246 216.21 125.271 213.521 124.051 210.099C120.88 201.056 117.708 192.013 114.537 182.97L109.414 206.922C110.39 209.366 110.878 211.81 111.366 214.254C111.853 216.943 111.853 219.387 111.853 222.075C111.609 224.764 111.122 227.452 110.39 229.896C110.146 232.585 109.17 234.785 108.194 237.229C108.926 234.785 109.902 232.341 110.39 229.896ZM27.2032 198.612C38.1808 201.301 47.9388 202.034 58.9165 198.612C68.4305 195.679 78.9203 191.036 86.9706 185.17C93.5572 180.282 95.5088 172.216 99.656 165.617C95.9967 167.084 91.8496 168.795 87.9464 170.505C85.9948 171.483 84.0432 172.216 81.8477 173.194C78.6764 176.371 75.505 179.548 72.3337 182.726C70.626 184.437 69.1624 186.392 67.6987 188.103C66.9668 189.08 66.235 190.058 65.7471 191.036C65.2592 192.013 64.5273 193.235 64.5273 194.213C64.7713 192.991 65.2592 192.013 65.7471 190.791C66.235 189.814 66.9668 188.836 67.6987 187.858C69.1624 185.903 70.6261 183.948 72.0897 182.237C74.5292 179.304 76.9687 176.616 79.6521 173.927C79.4082 173.927 79.4082 173.927 79.1643 174.172C75.505 175.882 72.0897 177.593 68.4305 179.304C66.7229 180.282 65.0152 181.015 63.3076 181.993C62.5757 182.481 61.5999 182.97 60.8681 183.459C60.1362 183.948 59.1604 184.681 58.6726 185.17L53.0617 188.103C49.8904 188.347 46.7191 188.592 43.5477 189.08C42.084 190.058 40.3764 191.036 38.9127 192.013C38.1809 192.502 37.449 192.991 36.4732 193.724C35.9853 193.969 35.7414 194.213 35.4974 194.702C35.7414 194.457 36.2293 193.969 36.4732 193.724C37.2051 192.991 37.9369 192.502 38.6688 192.013C39.8885 191.036 40.8643 190.302 42.084 189.569C40.6203 189.814 39.1566 190.058 37.693 190.058C35.2535 190.547 32.57 190.791 30.1306 191.524C27.6911 192.013 25.0076 192.746 22.8121 193.724C25.0076 192.502 27.6911 191.769 30.1306 191.28C32.57 190.791 35.2535 190.302 37.693 189.814C42.8159 189.08 47.9388 188.347 53.0617 187.858L58.4286 184.925C59.1605 183.948 59.8923 183.459 60.6241 182.97C60.8681 182.726 61.356 182.481 61.5999 182.237C59.8923 182.237 58.4286 182.237 56.721 182.237C54.5254 182.237 52.3299 181.993 50.1343 181.748C47.9388 181.504 45.7433 181.259 43.5477 180.526C41.3522 180.037 39.4006 179.304 37.449 177.838C39.4006 179.06 41.3522 179.793 43.5477 180.282C45.7433 180.771 47.9388 181.015 50.1343 181.259C52.3299 181.504 54.5254 181.504 56.721 181.504C58.9165 181.504 61.112 181.259 63.0636 181.015C64.7713 180.037 66.4789 179.06 68.1866 178.082C71.6019 176.127 75.2611 174.416 78.6764 172.705C77.2127 172.461 75.9929 172.216 74.5292 171.972C72.5776 171.483 70.626 170.994 68.6745 170.505C66.7229 170.017 64.7713 169.283 63.0636 168.306C61.356 167.328 59.4044 166.35 58.1847 164.64C59.4044 166.106 61.356 167.328 63.0636 168.061C65.0152 168.795 66.7229 169.528 68.9184 170.017C72.5777 170.994 76.4808 171.483 80.384 171.972C85.7509 169.283 91.3617 166.839 96.7286 164.395C92.0935 165.128 87.4585 164.884 83.0674 163.906C76.9687 162.684 71.3579 160.485 65.0152 161.218C42.328 163.418 27.935 184.192 9.63884 196.413C15.4936 196.168 21.3484 196.901 27.2032 198.612Z" fill="#EFB7C1"/>
</svg>
