<svg width="187" height="234" viewBox="0 0 187 234" fill="none" xmlns="http://www.w3.org/2000/svg">
<g opacity="0.1">
<path d="M139.528 150.123C143.384 148.379 147.591 147.332 151.798 147.332C156.004 147.332 160.562 149.077 162.315 152.915C164.418 157.799 161.614 163.381 158.458 167.917C156.355 171.056 153.901 174.545 150.395 175.243C147.591 175.941 144.085 174.894 141.982 172.801C139.528 170.708 137.775 168.265 136.022 165.823C134.62 163.73 133.217 161.637 132.867 158.846C132.516 156.403 133.217 153.263 135.321 151.868L139.528 150.123Z" fill="#EFB7C1"/>
<path d="M98.5107 93.2555C102.367 92.5577 107.275 92.5577 111.131 93.2555C114.988 93.9533 118.493 97.0932 119.194 100.931C119.896 105.815 115.689 110.002 111.832 113.142C109.378 115.235 106.223 117.677 102.718 117.677C99.913 117.677 97.459 115.584 95.7061 113.491C93.9532 111.049 93.2521 108.257 92.551 105.815C91.8498 103.722 91.1487 101.28 91.4992 98.8376C91.8498 96.3954 93.2521 93.9533 95.3555 93.2555H98.5107Z" fill="#EFB7C1"/>
<path d="M172.131 180.476C172.481 184.663 173.884 188.501 175.987 192.338C176.338 193.036 177.039 194.083 178.09 194.083C179.142 194.083 179.843 193.734 180.544 193.036C181.947 191.641 183.7 190.245 185.102 189.198C185.803 188.501 186.504 187.803 186.855 186.756C187.205 185.71 186.855 184.314 186.504 183.267C185.452 180.127 184.401 176.987 181.596 175.243C178.792 173.15 172.131 176.987 172.131 180.476Z" fill="#EFB7C1"/>
<path d="M125.505 12.3146C125.855 14.7568 126.907 17.1989 128.309 19.2922C131.114 22.7811 134.269 25.921 137.775 28.3632C138.826 29.061 140.229 29.7587 141.28 29.4099C142.332 29.061 143.033 27.6654 143.734 26.6188C144.786 24.1766 146.188 21.3855 147.24 18.9434C147.941 17.5478 148.292 16.5012 148.292 15.1056C148.292 13.3612 146.89 11.9657 145.838 10.919C142.683 7.77909 139.528 4.29025 134.97 3.59249C130.413 2.89472 124.102 8.12797 125.505 12.3146Z" fill="#EFB7C1"/>
<path d="M132.867 131.633C137.074 129.539 140.93 126.399 143.734 122.562C144.436 121.864 145.137 120.817 144.786 119.771C144.436 118.724 143.384 118.026 142.683 117.677C140.579 116.631 138.476 115.584 136.372 114.537C135.321 113.84 134.269 113.491 133.217 113.491C131.815 113.491 130.763 114.537 129.361 115.235C126.556 117.677 123.401 120.12 122.7 123.957C121.999 127.795 125.505 133.726 129.361 132.679L132.867 131.633Z" fill="#EFB7C1"/>
<path d="M162.665 225.482C166.171 228.971 170.027 231.762 174.234 233.507C175.286 233.856 176.338 234.204 177.389 233.856C178.441 233.507 178.441 232.111 178.792 231.413C179.142 228.971 179.843 226.878 180.194 224.436C180.544 223.389 180.544 221.994 180.194 220.947C179.843 219.551 178.441 218.854 177.389 217.807C174.234 215.714 171.079 213.62 167.223 213.969C163.366 214.318 160.562 222.691 162.665 225.482Z" fill="#EFB7C1"/>
<path d="M74.6718 21.0367C78.5281 26.6188 86.9418 30.8054 91.4992 32.5498C92.9015 33.2476 94.6544 33.5965 96.0567 32.8987C97.459 32.2009 97.8095 30.4565 98.1601 29.061C98.8612 25.5722 99.913 22.0833 100.614 18.9434C100.965 17.199 101.315 15.4545 100.965 14.059C100.264 11.6168 98.1601 10.5702 96.7578 9.17465C92.2004 6.0347 87.2924 2.89475 82.0338 3.59251C78.1775 3.9414 74.6718 7.77911 73.2695 10.9191C71.5166 14.7568 72.5684 17.8967 74.6718 21.0367Z" fill="#EFB7C1"/>
<path d="M101.666 131.982C105.172 130.935 109.028 132.679 110.781 135.47C112.534 138.261 112.534 142.448 110.08 145.239C108.327 147.332 105.522 148.379 102.718 149.077C100.264 149.775 97.1084 150.124 95.005 149.077C91.8498 147.332 90.097 143.146 91.4992 139.657C92.551 136.168 96.0567 133.726 99.5624 133.028L101.666 131.982Z" fill="#EFB7C1"/>
<path d="M139.528 58.0183C145.487 58.3672 151.447 64.6471 153.55 70.2292C155.654 75.8114 153.901 83.1379 148.642 86.2779C144.436 88.7201 139.177 88.7201 134.62 88.0223C129.361 87.3245 123.752 85.929 120.246 81.7424C116.039 76.858 116.39 69.1826 120.246 64.2982C124.102 59.4139 131.114 56.9717 137.424 58.0183H139.528Z" fill="#EFB7C1"/>
<path d="M167.924 116.979C171.78 117.328 175.636 116.282 179.493 116.631C183.349 116.979 187.205 121.166 185.102 124.655C184.751 125.353 184.05 126.05 183.349 126.399C177.74 130.586 168.274 130.586 164.068 125.004C162.315 122.562 161.964 118.375 164.769 117.328L167.924 116.979Z" fill="#EFB7C1"/>
<path d="M58.1949 81.0446C62.7524 87.6734 69.7638 91.86 73.9707 98.4887C78.1775 105.118 77.1258 116.282 69.4132 118.026C67.6604 118.375 65.9075 118.026 64.1546 117.677C49.7812 114.886 37.5112 100.233 40.6663 85.9289C42.0686 79.9979 48.0283 74.0669 53.6375 76.5091L58.1949 81.0446Z" fill="#EFB7C1"/>
<path d="M114.286 186.059C112.534 193.036 117.091 200.363 122.7 201.061C128.66 201.758 133.217 194.432 131.464 188.85C130.062 184.314 124.804 181.174 120.246 181.523C117.442 181.523 114.637 183.616 114.286 186.059Z" fill="#EFB7C1"/>
<path d="M0 16.8501C0 21.3856 1.40229 25.921 2.80457 29.4099C5.95972 36.7364 11.9194 43.3652 19.9826 44.063C33.3043 45.1096 43.4709 29.061 39.264 16.5012C35.7583 6.0347 24.54 -0.942966 13.6723 0.103684C10.1666 0.452567 6.31029 2.54587 3.85629 5.33693C1.05172 8.47688 0 12.3146 0 16.8501Z" fill="#EFB7C1"/>
<path d="M73.6201 54.1806C72.5684 55.2272 72.2178 56.6228 72.5684 58.0183L75.0224 70.5781C75.3729 71.6247 75.3729 72.3225 76.0741 73.0203C76.7752 74.0669 78.5281 74.4158 79.9304 74.7647C84.1372 75.1136 87.9935 72.6714 90.4475 69.1825C93.6027 64.2982 93.2521 56.9716 89.7464 52.0873C88.3441 50.3428 86.2407 48.9473 84.1372 48.5984C78.8786 47.9007 76.0741 51.0406 73.6201 54.1806Z" fill="#EFB7C1"/>
</g>
</svg>
